<svg xmlns="http://www.w3.org/2000/svg" xmlns:xlink="http://www.w3.org/1999/xlink" viewBox="0 0 797 311">
  <defs>
    <linearGradient id="Dégradé_sans_nom_99" data-name="Dégradé sans nom 99" x1="400.5" y1="9.71" x2="400.5" y2="295" gradientTransform="translate(243.28 557.72) rotate(-90)" gradientUnits="userSpaceOnUse">
      <stop offset="0.01" stop-color="#f986b6"/>
      <stop offset="0.04" stop-color="#f986b6"/>
      <stop offset="0.17" stop-color="#f481b6"/>
      <stop offset="0.34" stop-color="#e473b5"/>
      <stop offset="0.52" stop-color="#cb5cb5"/>
      <stop offset="0.71" stop-color="#a83cb4"/>
      <stop offset="0.91" stop-color="#7b14b3"/>
      <stop offset="0.99" stop-color="#6500b2"/>
    </linearGradient>
    <linearGradient id="linear-gradient" x1="400.5" y1="9.71" x2="400.5" y2="295" gradientUnits="userSpaceOnUse">
      <stop offset="0.01" stop-color="#fff"/>
      <stop offset="0.06" stop-color="#fff" stop-opacity="0.91"/>
      <stop offset="0.21" stop-color="#fff" stop-opacity="0.67"/>
      <stop offset="0.36" stop-color="#fff" stop-opacity="0.47"/>
      <stop offset="0.5" stop-color="#fff" stop-opacity="0.3"/>
      <stop offset="0.64" stop-color="#fff" stop-opacity="0.17"/>
      <stop offset="0.77" stop-color="#fff" stop-opacity="0.08"/>
      <stop offset="0.89" stop-color="#fff" stop-opacity="0.02"/>
      <stop offset="0.99" stop-color="#fff" stop-opacity="0"/>
    </linearGradient>
  </defs>
  <title>Screen</title>
  <g id="screen">
    <g id="screenContainer">
      <rect x="266.28" y="-216.28" width="268.45" height="747" transform="translate(557.72 -243.28) rotate(90)" style="fill: url(#Dégradé_sans_nom_99)"/>
      <polygon points="766.57 29.2 27 23 774 23 774 291.45 766.57 29.2" style="opacity: 0.77;mix-blend-mode: lighten;fill: url(#linear-gradient)"/>
      <polygon points="44.95 283.18 40.91 39.56 756.05 31.27 760.09 274.89 44.95 283.18" style="fill: #cdd0d7;mix-blend-mode: multiply"/>
      <rect x="52.43" y="44.26" width="696.14" height="225.92"/>
    </g>
    <g id="barchartControllers">
      <g id="btnDecreasing" class="controller">
        <rect x="537" y="222" width="181" height="36"/>
        <rect x="537.5" y="221.75" width="181" height="36" rx="10.44" ry="10.44" style="fill: none;stroke: #fff;stroke-miterlimit: 10"/>
        <text transform="translate(580.42 246.72)" style="font-size: 16px;fill: #fff;font-family: Futura-Medium, Futura">o<tspan x="9.62" y="0" style="letter-spacing: -0.0068359375em">r</tspan><tspan x="15.49" y="0">d</tspan><tspan x="25.09" y="0" style="letter-spacing: -0.0068359375em">r</tspan><tspan x="30.96" y="0">e déc</tspan><tspan x="70.82" y="0" style="letter-spacing: -0.0087890625em">r</tspan><tspan x="76.66" y="0">oissant</tspan></text>
        <rect x="566.47" y="236.5" width="4" height="16.5" rx="1.02" ry="1.02" style="fill: none;stroke: #fff;stroke-miterlimit: 10;stroke-width: 0.75px"/>
        <rect x="558.73" y="231.5" width="4" height="21.5" rx="1.02" ry="1.02" style="fill: none;stroke: #fff;stroke-miterlimit: 10;stroke-width: 0.75px"/>
        <rect x="551" y="226.5" width="4" height="26.5" rx="1.02" ry="1.02" style="fill: none;stroke: #fff;stroke-miterlimit: 10;stroke-width: 0.75px"/>
        <line x1="548" y1="253" x2="573" y2="253" style="fill: none;stroke: #fff;stroke-miterlimit: 10;stroke-width: 0.75px"/>
      </g>
      <g id="btnIncreasing" class="controller">
        <rect x="352" y="222" width="164" height="36"/>
        <rect x="352" y="221.75" width="164.5" height="36" rx="10.44" ry="10.44" style="fill: none;stroke: #fff;stroke-miterlimit: 10"/>
        <text transform="translate(399.42 246.72)" style="font-size: 16px;fill: #fff;font-family: Futura-Medium, Futura">o<tspan x="9.62" y="0" style="letter-spacing: -0.0068359375em">r</tspan><tspan x="15.49" y="0">d</tspan><tspan x="25.09" y="0" style="letter-spacing: -0.0068359375em">r</tspan><tspan x="30.96" y="0">e c</tspan><tspan x="52.38" y="0" style="letter-spacing: -0.0087890625em">r</tspan><tspan x="58.22" y="0">oissant</tspan></text>
        <rect x="385.47" y="226.5" width="4" height="26.5" rx="1.02" ry="1.02" style="fill: none;stroke: #fff;stroke-miterlimit: 10;stroke-width: 0.75px"/>
        <rect x="377.73" y="231.5" width="4" height="21.5" rx="1.02" ry="1.02" style="fill: none;stroke: #fff;stroke-miterlimit: 10;stroke-width: 0.75px"/>
        <rect x="370" y="236.5" width="4" height="16.5" rx="1.02" ry="1.02" style="fill: none;stroke: #fff;stroke-miterlimit: 10;stroke-width: 0.75px"/>
        <line x1="367" y1="253" x2="392" y2="253" style="fill: none;stroke: #fff;stroke-miterlimit: 10;stroke-width: 0.75px"/>
      </g>
      <g id="btnChrono" class="controller">
        <rect x="130" y="222" width="199" height="36"/>
        <rect x="129.5" y="221.75" width="199" height="36" rx="10.44" ry="10.44" style="fill: none;stroke: #fff;stroke-miterlimit: 10"/>
        <text transform="translate(170.42 246.72)" style="font-size: 16px;fill: #fff;font-family: Futura-Medium, Futura">o<tspan x="9.62" y="0" style="letter-spacing: -0.0068359375em">r</tspan><tspan x="15.49" y="0">d</tspan><tspan x="25.09" y="0" style="letter-spacing: -0.0068359375em">r</tspan><tspan x="30.96" y="0">e </tspan><tspan x="44.75" y="0" style="letter-spacing: 0.02587890625em">c</tspan><tspan x="52.79" y="0">h</tspan><tspan x="61.56" y="0" style="letter-spacing: -0.0087890625em">r</tspan><tspan x="67.41" y="0">onologi</tspan><tspan x="122.58" y="0" style="letter-spacing: 0.01123046875em">q</tspan><tspan x="132.35" y="0">ue</tspan></text>
        <rect x="156.47" y="226.5" width="4" height="26.5" rx="1.02" ry="1.02" style="fill: none;stroke: #fff;stroke-miterlimit: 10;stroke-width: 0.75px"/>
        <rect x="148.73" y="238.5" width="4" height="14.5" rx="1.02" ry="1.02" style="fill: none;stroke: #fff;stroke-miterlimit: 10;stroke-width: 0.75px"/>
        <rect x="141" y="231.5" width="4" height="21.5" rx="1.02" ry="1.02" style="fill: none;stroke: #fff;stroke-miterlimit: 10;stroke-width: 0.75px"/>
        <line x1="138" y1="253" x2="163" y2="253" style="fill: none;stroke: #fff;stroke-miterlimit: 10;stroke-width: 0.75px"/>
      </g>
    </g>
    <g id="mapControllers">
      <g id="player">
        <rect id="time" x="127" y="238" width="421" height="9" style="fill: #d8e2e8"/>
        <rect id="watch" x="125" y="237.69" width="82.57" height="9.33" style="fill: #ff4c41"/>
        <path id="playerCursor" d="M224.33,242.08A16.09,16.09,0,1,1,208.24,226,16.08,16.08,0,0,1,224.33,242.08Z" style="fill: #ff4c41"/>
        <g id="pause" class="controller">
          <rect x="98.02" y="233" width="3" height="18" style="fill: #fff"/>
          <rect x="92.24" y="233" width="3" height="18" style="fill: #fff"/>
        </g>
        <g id="play" class="controller">
          <polygon points="72.42 233 72.42 251.18 85.34 242.09 72.42 233" style="fill: #fff"/>
        </g>
      </g>
      <g id="btnPlane" class="controller">
        <circle cx="618.5" cy="239.5" r="23.5"/>
        <path d="M618.11,218a21.79,21.79,0,0,0-9.41,2.08,22.05,22.05,0,0,0-11.37,12.5.44.44,0,0,0,.26.57.43.43,0,0,0,.56-.26h0a21.25,21.25,0,0,1,10.92-12,21,21,0,0,1,16.15-.71.44.44,0,0,0,.57-.25.44.44,0,0,0-.2-.55l-.07,0A21.7,21.7,0,0,0,618.11,218Zm13.75,5.08a.44.44,0,0,0-.44.44.39.39,0,0,0,.16.34,21.37,21.37,0,0,1,7.22,20,.44.44,0,0,0,.36.51.45.45,0,0,0,.51-.36,22.25,22.25,0,0,0-7.53-20.82l-.07-.06A.54.54,0,0,0,631.86,223.08Zm-23.08,4.15a2.38,2.38,0,0,0-1.26.4l-2.65,1.3a4.51,4.51,0,0,0-.73.36.78.78,0,0,0-.32.33.89.89,0,0,0,0,.7,1,1,0,0,0,.52.46c.17.11.36.23.58.39l9.61,7-3.9,1.93a3.07,3.07,0,0,0-.31.17h0l-4.09-1.84a1.34,1.34,0,0,0-.66-.24,1.27,1.27,0,0,0-.71.2l-1.13.55a2.31,2.31,0,0,0-.35.18.56.56,0,0,0-.25.26.82.82,0,0,0,0,.65c.17.3.26.28.34.32l.23.15,3.63,2.67a2,2,0,0,0,0,1.7,2,2,0,0,0,1.35,1l-.15,4.55a2.28,2.28,0,0,1,0,.27.56.56,0,0,0,0,.48.79.79,0,0,0,.5.39.58.58,0,0,0,.36,0,1.88,1.88,0,0,0,.38-.18h0l1.13-.55a1.28,1.28,0,0,0,.6-.44,1.39,1.39,0,0,0,.22-.69l1.08-4.42.3-.13,3.93-1.93-.38,11.95c0,.27,0,.49-.06.69a1,1,0,0,0,.05.7.86.86,0,0,0,.55.43.84.84,0,0,0,.45,0,4.86,4.86,0,0,0,.73-.36l0,0L621,255.3a2.48,2.48,0,0,0,1.09-.76,3,3,0,0,0,.38-1.26h0l.39-1.62,1.48-.72a1.37,1.37,0,0,0,.62-1.81l-.05-.1h0a.61.61,0,0,0-.36-.31c-.14-.13-.24-.31-.42-.37a1.31,1.31,0,0,0-.44-.07l.54-2.22,1.39-.68a1.37,1.37,0,0,0,.61-1.82l0-.1c-.08-.14-.2-.35-.36-.4a1.07,1.07,0,0,0-.42-.28,1.13,1.13,0,0,0-.36-.06l.94-3.88,5.2-2.56a3,3,0,0,0,1.62-3.63v-.14l-.06-.13a2.8,2.8,0,0,0-2.85-1.48h0a3.28,3.28,0,0,0-1.16.34l-5.22,2.56L620,232.21a1.37,1.37,0,0,0,.08-1.33l0-.1a.61.61,0,0,0-.36-.31c-.14-.13-.24-.31-.42-.37a1.3,1.3,0,0,0-1,.06l-1.33.65-2.11-.95a1.39,1.39,0,0,0,.15-1.18.4.4,0,0,0,0-.11h0s0-.06,0-.09h0l0-.1a.65.65,0,0,0-.35-.32c-.14-.13-.24-.3-.42-.37a1.32,1.32,0,0,0-1,.07l-1.41.69-1.65-.74a3,3,0,0,0-1.24-.48Zm-.06,1.23a4.13,4.13,0,0,1,.75.35h0l1.94.88h0l1.87.84,3.35,1.51h0l1.87.85,3.53,1.59-6.3,3.11-10.12-7.43-.21-.14,2.63-1.3a2.69,2.69,0,0,1,.66-.27Zm5,.39a.14.14,0,0,1,.06.07h0l0,.09h0a.12.12,0,0,1-.05.16h0l-.23.11-.42-.18.5-.25a.12.12,0,0,1,.1,0Zm5.14,2.4a.09.09,0,0,1,.06.07h0l0,.09c0,.07,0,.12-.05.16l-.15.07-.42-.18.42-.21a.14.14,0,0,1,.09,0Zm11.23.86a1.22,1.22,0,0,1,.27,0,1.26,1.26,0,0,1,.33,0h0a1.45,1.45,0,0,1,.95.75h0a1.76,1.76,0,0,1-1,2.25l-4.28,2.1h0l-1.17.59-8.14,4h0l-4.52,2.22a6.76,6.76,0,0,1-2.84.75c-.77,0-1.18-.23-1.29-.47s0-.6.29-1.11a3,3,0,0,1,.23-.3l.13-.15c.09-.1.19-.21.3-.31l.22-.19.31-.26.32-.22.33-.21a6.37,6.37,0,0,1,.63-.35l7.1-3.5h0l11-5.42a2,2,0,0,1,.82-.22Zm-24.6,7.37.17.08h0l3.4,1.53a6.93,6.93,0,0,0-1.1,1.05l-3.19-2.33.59-.29.12-.05Zm19,.05-.95,3.94-.49,2-.88,3.59h0l-.49,2h0l-.47,1.92h0a4.9,4.9,0,0,1-.19.82,2.37,2.37,0,0,1-.62.35l-2.63,1.3a2.11,2.11,0,0,0,0-.26l.41-12.6,2-1a.36.36,0,0,0,.11-.06l4.22-2.08Zm-28.11.18a.45.45,0,0,0-.43.45h0A22.12,22.12,0,0,0,614.18,262a.44.44,0,0,0,.52-.34.45.45,0,0,0-.34-.53h0a21.24,21.24,0,0,1-17.45-21,.47.47,0,0,0-.23-.4.54.54,0,0,0-.22,0ZM625,243.93a.13.13,0,0,1,.07.06.47.47,0,0,0,.07.12l0,0a.1.1,0,0,1,0,.16l-.47.23.11-.44.21-.1a.1.1,0,0,1,.09,0Zm-13.63,1.89-.89,3.67h0a1,1,0,0,1,0,.19l-.11.06h0l-.59.29.13-4a7,7,0,0,0,1.51-.23Zm12.35,3.67a.12.12,0,0,1,.07.07l0,.1c0,.07,0,.12-.05.16l-.56.27.11-.44.3-.15a.14.14,0,0,1,.09,0Zm12.95,1.09a.43.43,0,0,0-.39.22,21.1,21.1,0,0,1-14.62,10.32.44.44,0,1,0,.15.87,22,22,0,0,0,15.23-10.74.44.44,0,0,0-.15-.61h0A.54.54,0,0,0,636.68,250.58Z" style="fill: #fff"/>
      </g>
      <g id="btnYear" class="controller">
        <rect x="673.5" y="217.5" width="46" height="46"/>
        <path d="M716.44,222.12h-2.72v-.9A2.72,2.72,0,0,0,711,218.5h-1.81a2.72,2.72,0,0,0-2.72,2.72v.9H686.53v-.9a2.72,2.72,0,0,0-2.72-2.72H682a2.72,2.72,0,0,0-2.72,2.72v.9h-2.72a2.74,2.74,0,0,0-2.72,2.72v32.63a4.54,4.54,0,0,0,4.53,4.53h36.26a4.54,4.54,0,0,0,4.53-4.53V224.84A2.74,2.74,0,0,0,716.44,222.12Zm.9,35.35a2.71,2.71,0,0,1-2.71,2.72H678.37a2.71,2.71,0,0,1-2.71-2.72V234.81h41.68Zm-41.68-32.63a.9.9,0,0,1,.9-.9h2.72v.9a2.72,2.72,0,0,0,2.72,2.72h1.81a2.72,2.72,0,0,0,2.72-2.72v-.9h19.94v.9a2.72,2.72,0,0,0,2.72,2.72H711a2.72,2.72,0,0,0,2.72-2.72v-.9h2.72a.9.9,0,0,1,.9.9v4.54H675.66Zm6.34-4.53h1.81a.91.91,0,0,1,.91.91v3.62a.91.91,0,0,1-.91.91H682a.91.91,0,0,1-.91-.91v-3.62A.91.91,0,0,1,682,220.31Zm27.19,0H711a.91.91,0,0,1,.91.91v3.62a.91.91,0,0,1-.91.91h-1.81a.91.91,0,0,1-.91-.91v-3.62A.91.91,0,0,1,709.19,220.31ZM717.34,233H675.66v-1.81h41.68Z" style="fill: #fff;stroke: #000;stroke-miterlimit: 10"/>
        <path d="M686.53,243h3.63a.9.9,0,0,0,.9-.91v-3.62a.9.9,0,0,0-.9-.91h-3.63a.91.91,0,0,0-.91.91v3.62A.91.91,0,0,0,686.53,243Zm.91-3.63h1.81v1.82h-1.81Z" style="fill: #fff;stroke: #000;stroke-miterlimit: 10"/>
        <path d="M694.69,243h3.62a.91.91,0,0,0,.91-.91v-3.62a.91.91,0,0,0-.91-.91h-3.62a.91.91,0,0,0-.91.91v3.62A.91.91,0,0,0,694.69,243Zm.9-3.63h1.82v1.82h-1.82Z" style="fill: #fff;stroke: #000;stroke-miterlimit: 10"/>
        <path d="M702.84,243h3.63a.91.91,0,0,0,.91-.91v-3.62a.91.91,0,0,0-.91-.91h-3.63a.9.9,0,0,0-.9.91v3.62A.9.9,0,0,0,702.84,243Zm.91-3.63h1.81v1.82h-1.81Z" style="fill: #fff;stroke: #000;stroke-miterlimit: 10"/>
        <path d="M711,243h3.63a.9.9,0,0,0,.9-.91v-3.62a.9.9,0,0,0-.9-.91H711a.91.91,0,0,0-.91.91v3.62A.91.91,0,0,0,711,243Zm.91-3.63h1.81v1.82h-1.81Z" style="fill: #fff;stroke: #000;stroke-miterlimit: 10"/>
        <path d="M678.37,250.22H682a.91.91,0,0,0,.91-.91v-3.62a.91.91,0,0,0-.91-.91h-3.63a.9.9,0,0,0-.9.91v3.62A.9.9,0,0,0,678.37,250.22Zm.91-3.63h1.81v1.82h-1.81Z" style="fill: #fff;stroke: #000;stroke-miterlimit: 10"/>
        <path d="M686.53,250.22h3.63a.9.9,0,0,0,.9-.91v-3.62a.9.9,0,0,0-.9-.91h-3.63a.91.91,0,0,0-.91.91v3.62A.91.91,0,0,0,686.53,250.22Zm.91-3.63h1.81v1.82h-1.81Z" style="fill: #fff;stroke: #000;stroke-miterlimit: 10"/>
        <path d="M694.69,250.22h3.62a.91.91,0,0,0,.91-.91v-3.62a.91.91,0,0,0-.91-.91h-3.62a.91.91,0,0,0-.91.91v3.62A.91.91,0,0,0,694.69,250.22Zm.9-3.63h1.82v1.82h-1.82Z" style="fill: #fff;stroke: #000;stroke-miterlimit: 10"/>
        <path d="M702.84,250.22h3.63a.91.91,0,0,0,.91-.91v-3.62a.91.91,0,0,0-.91-.91h-3.63a.9.9,0,0,0-.9.91v3.62A.9.9,0,0,0,702.84,250.22Zm.91-3.63h1.81v1.82h-1.81Z" style="fill: #fff;stroke: #000;stroke-miterlimit: 10"/>
        <path d="M711,250.22h3.63a.9.9,0,0,0,.9-.91v-3.62a.9.9,0,0,0-.9-.91H711a.91.91,0,0,0-.91.91v3.62A.91.91,0,0,0,711,250.22Zm.91-3.63h1.81v1.82h-1.81Z" style="fill: #fff;stroke: #000;stroke-miterlimit: 10"/>
        <path d="M678.37,257.47H682a.91.91,0,0,0,.91-.91v-3.62A.91.91,0,0,0,682,252h-3.63a.9.9,0,0,0-.9.91v3.62A.9.9,0,0,0,678.37,257.47Zm.91-3.63h1.81v1.82h-1.81Z" style="fill: #fff;stroke: #000;stroke-miterlimit: 10"/>
        <path d="M686.53,257.47h3.63a.9.9,0,0,0,.9-.91v-3.62a.9.9,0,0,0-.9-.91h-3.63a.91.91,0,0,0-.91.91v3.62A.91.91,0,0,0,686.53,257.47Zm.91-3.63h1.81v1.82h-1.81Z" style="fill: #fff;stroke: #000;stroke-miterlimit: 10"/>
        <path d="M694.69,257.47h3.62a.91.91,0,0,0,.91-.91v-3.62a.91.91,0,0,0-.91-.91h-3.62a.91.91,0,0,0-.91.91v3.62A.91.91,0,0,0,694.69,257.47Zm.9-3.63h1.82v1.82h-1.82Z" style="fill: #fff;stroke: #000;stroke-miterlimit: 10"/>
        <path d="M702.84,257.47h3.63a.91.91,0,0,0,.91-.91v-3.62a.91.91,0,0,0-.91-.91h-3.63a.9.9,0,0,0-.9.91v3.62A.9.9,0,0,0,702.84,257.47Zm.91-3.63h1.81v1.82h-1.81Z" style="fill: #fff;stroke: #000;stroke-miterlimit: 10"/>
      </g>
    </g>
    <rect id="infoScreen" x="130" y="55" width="589" height="155" rx="11.91" ry="11.91" style="fill: none;stroke: #fff;stroke-miterlimit: 10"/>
    <g id="btnBarchart" class="controller modeController">
      <circle cx="94.5" cy="162.5" r="23.5"/>
      <rect x="100.47" y="158.5" width="4" height="22.5" rx="1.02" ry="1.02" style="fill: none;stroke: #fff;stroke-miterlimit: 10;stroke-width: 0.75px"/>
      <rect x="92.73" y="148.5" width="4" height="32.5" rx="1.02" ry="1.02" style="fill: none;stroke: #fff;stroke-miterlimit: 10;stroke-width: 0.75px"/>
      <rect x="85" y="164.5" width="4" height="16.5" rx="1.02" ry="1.02" style="fill: none;stroke: #fff;stroke-miterlimit: 10;stroke-width: 0.75px"/>
      <circle cx="94.5" cy="162.5" r="22.5" style="fill: none;stroke: #fff;stroke-miterlimit: 10"/>
      <line x1="82" y1="181" x2="107" y2="181" style="fill: none;stroke: #fff;stroke-miterlimit: 10;stroke-width: 0.75px"/>
    </g>
    <g id="btnMap" class="controller modeController">
      <circle cx="93.5" cy="103.5" r="23.5"/>
      <path d="M107.81,97.39c-.68.38-.49.37-.68.38-.36,0-1.68.15-1.45,0a1.05,1.05,0,0,0,.44-.53c0-.06,0-.19,0-.23-.19-.21-.85-.09-1.12-.15s-.62-.27-.84-.31a3.22,3.22,0,0,0-.76,0c-.54.1-1.83.69-1.6,1.53s.43,1.16.79,1.29c.19.07.62-.08.81,0s.45.46.61.61a1.57,1.57,0,0,0,.38.3c.07,0,.25,0,.3,0s0,.25,0,.31.69,0,.91,0h2.52c.19,0,.62.13.76,0s0-.46,0-.61V99.6c0-.19-.18-.7,0-.75s.13.06.38-.28c.53-.72.58-.5.53-.72s.43-.13.53-.23.31-.61,0-.76l-.6-.31c-.4-.2-1.68-.83-1.68-.61s-.07.61-.07.84S108.5,97,107.81,97.39Z" style="fill: none;stroke: #fff;stroke-miterlimit: 10"/>
      <path d="M93.5,80.78a22.61,22.61,0,1,0,22.61,22.61A22.63,22.63,0,0,0,93.5,80.78Zm20.78,22.61c0,.52,0,1-.06,1.54L114,105c-.38.07,0,0-.23,0s-.33.24-.46.3a1,1,0,0,1-.53,0,.56.56,0,0,1-.38-.45c0-.23-.61-.31-1.14-.76s-.29-.58-.23-.77a.71.71,0,0,0-.08-.37c-.09-.27-.25-1-.53-1-.1,0-.23.23-.3.31s-.54.76-.61.69-.11.87,0,1.14a2.69,2.69,0,0,0,.91,1.14c.16.07,0,0,.46.53s.35.62.53.76.82-.1,1,.08.07.7,0,.91a3.89,3.89,0,0,1-.61.84c-.23.3-.35.27-.46.38a5.34,5.34,0,0,0-.45,1.68c-.08.22-.53,2.13-.61,2.36a2.75,2.75,0,0,1-.31.53c-.33.54-.83,1.73-1.14,2.28s-1.37,2.21-1.52,2.44a1.12,1.12,0,0,1-.53.46,2.76,2.76,0,0,1-1.37,0,2.61,2.61,0,0,1-.84-1.07,18.12,18.12,0,0,1-.31-3c-.07-.44-.32-1.3-.38-1.75s-.07-1.75-.15-2.2,0-.36,0-.46c.14-.29-.68-.84-.91-.92s-.23-.3-.53-.61-.58-.11-.77-.07a4.76,4.76,0,0,1-.83-.08,4.36,4.36,0,0,1-1.3,0c-.51-.24-1.12-1.28-1.44-1.75a4.86,4.86,0,0,1-.46-.91c-.08-.23-.23-.86-.31-1.14a5.66,5.66,0,0,1-.38-1.3,3.34,3.34,0,0,1,.84-1.37,2.32,2.32,0,0,1,.76-.61,11.33,11.33,0,0,0,1.14-1.06c.84-.76,0,0,0-.38s-.24-.54-.15-.69,0,0-.3-.53-.26-.33-.38-.38c-.36-.17.53-1.22.61-1.45s.38,0,.83-.23.35,0,.46,0,.2-.68.23-.91a1.07,1.07,0,0,0,0-.31,1.27,1.27,0,0,0-.38-.53c-.16-.08-.46,0-.69-.07a3.47,3.47,0,0,1-.76-.31c-.23-.15-.39-.52-.3-.68.17-.32,1.06-.46,1.29-.61s0-.46,0-.69.86-.29,1.14-.23a1.52,1.52,0,0,1,.76.38c.09.15,0,.52,0,.69s.16.53.31.61.34-.07.46-.08,0,0,.22-.23.21-.41.31-.53a1.05,1.05,0,0,1,.46-.23,4.61,4.61,0,0,1,.91,0c.21,0,.63.09.84.08a1.26,1.26,0,0,0,.6-.23,10.15,10.15,0,0,0,1.22-.76,1.37,1.37,0,0,0,.16-1.07c-.08-.23,0-.23,0-.3s-.44-.35-.61-.38a1.18,1.18,0,0,0-.61.15,3.56,3.56,0,0,0-.69.84c-.09.12-.18.44-.3.53a1,1,0,0,1-.38.08,9.93,9.93,0,0,1-1.22,0c-.27,0-.89,0-1.07-.16,0,0,0-.11,0-.22v-.16a.78.78,0,0,1,0-.22c.13-.27.75-.52.92-.77s.13-.84.3-1.06c.42-.54,1.83-1,2.36-1.37.15-.12.39-.28.61-.47A20.72,20.72,0,0,1,114.28,103.39Zm-16-20.22a2.71,2.71,0,0,1-.76.75c-.38.22,0,.62,0,.83A2.83,2.83,0,0,1,97,86.12c-.27.39-1.22,1.07-1.37,1.3a4,4,0,0,1-.68.68c-.26.22-.84.69-1.07.84a4.13,4.13,0,0,0-1.25,1.6c-.56,1.06-.73.87-1,.68s-1.5-.58-1.37-1c.06-.18,0,0-.61-.48A1.71,1.71,0,0,1,89.16,88c0-.17.25-.45.31-.61.13-.37.07-1.28.38-1.53s0,0-.31-.83-1-.55-1.29-.84c-.08-.09,0-.35.07-.46a3.32,3.32,0,0,1,.38-.46l.19-.17a20.62,20.62,0,0,1,4.61-.52A21,21,0,0,1,98.29,83.17Zm-17.2,3.56a4.25,4.25,0,0,0,1.22-.08,2.15,2.15,0,0,0,.84-.23c.25-.07,0,0,1.06-.07s0,0,.43-.08.49-.15.72,0,.69-.06.91,0,.76.76.91,1a12.1,12.1,0,0,1,1,1.37c.23.46,0,0-.53.38s-.31.31-.53.31a2.56,2.56,0,0,1-.84-.08c-.17-.08-.35-.44-.51-.53a1.44,1.44,0,0,0-1.12-.38c-.13,0-.32.22-.43.3l-.6.53a9.2,9.2,0,0,0-.77.59,4.5,4.5,0,0,1-.6.78c-.23.16.07.79.22,1s.36.47.54.54a2.57,2.57,0,0,0,1.14-.16,3.25,3.25,0,0,0,.76-.3c.46-.23,0,0,.3-.23s.4-.34.56-.38A2.6,2.6,0,0,1,87,91c.2.08.47.44.61.61A7,7,0,0,0,88.93,93a3,3,0,0,1,1,1.45,1.47,1.47,0,0,1-.22,1.14,2.19,2.19,0,0,1-.69.61,11.42,11.42,0,0,1-3.25.68c-1.35.15,0,.53,0,.69a13,13,0,0,1-1.93,1.6c-.68.53,0,0-.23.07s-.45.46-.68.69-.23,1.06-.46,1.21a4,4,0,0,1-1.29.39H80c-.23,0-.41-.06-.53,0a1.31,1.31,0,0,0-.54.53.7.7,0,0,0,0,.38c.11.22.59.44.77.61a19.87,19.87,0,0,1,1.59,1.75c.16.23.58,1,.92,1.22a4.56,4.56,0,0,0,1.52,0c.24,0,.72,0,1,0a17.35,17.35,0,0,0,1.78.3,1,1,0,0,1,.91.46,1.88,1.88,0,0,0,1.07.76,3.75,3.75,0,0,1,1.13.68c.38.27,1.46.61,1.69.77s.53,1.37.91,2,.69,1.15.38,1.83.23.92,0,1.14-.23.46-.84,1.37-.76,1.6-1,1.68-1.84,1.15-1.59,1.67c.13.3,0,0-1,.84s-.84.76-1.3,1-.4,1.07-.38,1.45,0,.64,0,1l-.88-.34c0-.26-.06-.51-.09-.68-.07-.46-.91-3.89-.91-4.27s-.56-.65-.69-.91a4.41,4.41,0,0,1,0-1.45c0-.19.09-.59,0-.76s-.29-.22-.38-.3a10.34,10.34,0,0,1-1.35-1.53c-.11-.17-.2-.59-.32-.76s-.6-.33-.69-.53.08-.76.08-1.22.23-.53.71-1.14.05-.38,0-.61.08-.38,0-.61a5,5,0,0,0-.76-1,5.05,5.05,0,0,0-.53-.6c-.37-.32-1.27-.72-1.68-1s-1-.73-1.29-1-1.35-1.16-1.75-1.6c-.13-.14-.32-.48-.46-.61s-.82-.5-1-.76A7,7,0,0,1,74,99.06c0-.53,0-1.6,0-2.13,0-.18,0-.45,0-.75A20.83,20.83,0,0,1,81.09,86.73Z" style="fill: none;stroke: #fff;stroke-miterlimit: 10"/>
    </g>
  </g>

</svg>
