<svg id="Groupe_846" data-name="Groupe 846" xmlns="http://www.w3.org/2000/svg" viewBox="0 0 200.8 62.443">
  <defs>
    <style>
      .cls-1, .cls-2 {
        fill: #fff;
      }

      .cls-2, .cls-3 {
        opacity: 0.6;
      }
    </style>
  </defs>
  <g id="Groupe_842" data-name="Groupe 842" transform="translate(0)">
    <path id="Tracé_68" data-name="Tracé 68" class="cls-1" d="M0,13.535V12.177C0,5.6,2.193.9,10.233.9,16.29.9,19,3.406,19.631,8.94l-5.117.731c-.209-2.924-1.357-4.594-4.386-4.594-4.072,0-5.325,2.715-5.325,7.1v1.357c0,4.8,1.253,7.1,5.325,7.1,3.237,0,4.177-1.357,4.594-4.908l5.117.522c-.94,5.221-3.341,8.458-10.024,8.458C2.3,24.812,0,20.009,0,13.535Z" transform="translate(0 0.04)"/>
    <path id="Tracé_69" data-name="Tracé 69" class="cls-1" d="M20.8,13.535V12.177C20.8,5.6,22.993.9,31.033.9c6.056,0,8.771,2.506,9.4,8.04l-5.117.731c-.209-2.924-1.357-4.594-4.386-4.594-4.072,0-5.325,2.715-5.325,7.1v1.357c0,4.8,1.253,7.1,5.325,7.1,3.237,0,4.177-1.357,4.594-4.908l5.117.522c-.94,5.221-3.341,8.458-10.024,8.458C23.1,24.812,20.8,20.009,20.8,13.535Z" transform="translate(0.919 0.04)"/>
    <path id="Tracé_70" data-name="Tracé 70" class="cls-1" d="M42.9,1.1h4.7V24.595H42.9Z" transform="translate(1.896 0.049)"/>
    <path id="Tracé_71" data-name="Tracé 71" class="cls-1" d="M57,7.936h3.028V5.952C60.028,2.4,60.759,0,66.293,0h1.984V3.968H66.711c-1.984,0-2.193.94-2.193,2.4V7.832h3.864V11.9H64.518V24.643H60.133V11.9H57Z" transform="translate(2.52)"/>
    <path id="Tracé_72" data-name="Tracé 72" class="cls-1" d="M69.1,16.385v-.94c0-4.594,1.984-8.145,7.623-8.145,5.743,0,7.727,3.446,7.727,8.04v.94c0,4.594-2.4,8.145-7.727,8.145C71.5,24.529,69.1,20.875,69.1,16.385Zm10.86-.313v-.418c0-3.133-.627-4.49-3.237-4.49-2.4,0-3.133,1.462-3.133,4.594v.313c0,3.028.835,4.594,3.133,4.594S79.96,19.2,79.96,16.071Z" transform="translate(3.054 0.323)"/>
    <path id="Tracé_73" data-name="Tracé 73" class="cls-1" d="M86.7,7.6h4.49V9.588A6.17,6.17,0,0,1,95.785,7.5v3.864c-3.237,0-4.594,1.253-4.594,4.386v8.562H86.7Z" transform="translate(3.832 0.332)"/>
    <path id="Tracé_74" data-name="Tracé 74" class="cls-1" d="M98,7.613h4.49V9.18A6.4,6.4,0,0,1,107.5,7.3c2.4,0,3.237.731,4.072,2.088,1.044-1.253,2.715-2.088,5.639-2.088,3.759,0,4.7,2.088,4.7,5.639V24.321h-4.49V13.774c0-1.357-.209-2.506-2.193-2.506-2.193,0-3.133.835-3.133,3.655v9.5h-4.49V13.774c0-1.357-.209-2.506-2.193-2.506-2.193,0-3.133.835-3.133,3.864v9.293H98Z" transform="translate(4.332 0.323)"/>
    <path id="Tracé_75" data-name="Tracé 75" class="cls-1" d="M123.5,19.422c0-3.655,2.924-5.534,9.92-6.474v-.313c0-1.253-.522-1.775-2.611-1.775-1.775,0-2.506.522-2.924,1.357l-4.177-1.462c.94-1.88,3.446-3.655,7.518-3.655,4.8,0,6.683,1.671,6.683,5.325v11.7h-4.49V22.345c-1.044,1.253-2.3,1.88-4.8,1.88C124.857,24.538,123.5,22.345,123.5,19.422Zm9.92-1.462V16.185c-3.759.522-5.43,1.253-5.43,2.924,0,1.253.731,1.88,2.088,1.88C132.793,20.988,133.42,19.63,133.42,17.96Z" transform="translate(5.459 0.314)"/>
    <path id="Tracé_76" data-name="Tracé 76" class="cls-1" d="M139.6,7.8h3.028V3h4.386V7.7h3.864v4.072h-3.864v6.474c0,1.88.313,2.4,2.3,2.4h1.566v3.864h-2.715c-4.49,0-5.639-1.566-5.639-5.639v-7.1H139.5V7.8Z" transform="translate(6.166 0.133)"/>
    <path id="Tracé_77" data-name="Tracé 77" class="cls-1" d="M153.7,1.5h4.49V5.886H153.7Zm0,6.37h4.49V24.681H153.7Z" transform="translate(6.794 0.066)"/>
    <path id="Tracé_78" data-name="Tracé 78" class="cls-1" d="M160.9,16.385v-.94c0-4.594,1.984-8.145,7.623-8.145,5.743,0,7.727,3.446,7.727,8.04v.94c0,4.594-2.4,8.145-7.727,8.145C163.3,24.529,160.9,20.875,160.9,16.385Zm10.86-.313v-.418c0-3.133-.627-4.49-3.237-4.49-2.4,0-3.133,1.462-3.133,4.594v.313c0,3.028.835,4.594,3.133,4.594S171.76,19.2,171.76,16.071Z" transform="translate(7.112 0.323)"/>
    <path id="Tracé_79" data-name="Tracé 79" class="cls-1" d="M178.4,7.613h4.49V9.284A7.037,7.037,0,0,1,188.007,7.3c3.759,0,4.908,2.088,4.908,5.639V24.321h-4.49V13.774c0-1.357-.418-2.506-2.3-2.506-2.193,0-3.237.835-3.237,3.864v9.293H178.4Z" transform="translate(7.886 0.323)"/>
  </g>
  <g id="Groupe_843" data-name="Groupe 843" transform="translate(33.519 40.411)">
    <path id="Tracé_80" data-name="Tracé 80" class="cls-1" d="M32.1,44.756V44.13c0-3.133,1.044-5.43,4.908-5.43,2.924,0,4.177,1.253,4.49,3.864l-2.4.313c-.1-1.357-.627-2.193-2.088-2.193-1.984,0-2.506,1.253-2.506,3.446v.627c0,2.3.627,3.446,2.611,3.446,1.566,0,1.984-.627,2.193-2.4l2.4.313c-.418,2.506-1.566,4.072-4.8,4.072C33.249,50.186,32.1,47.889,32.1,44.756Z" transform="translate(-32.1 -38.7)"/>
    <path id="Tracé_81" data-name="Tracé 81" class="cls-1" d="M42,44.756V44.13C42,41,43.044,38.7,46.908,38.7c2.924,0,4.177,1.253,4.49,3.864l-2.4.313c-.1-1.357-.627-2.193-2.088-2.193-1.984,0-2.506,1.253-2.506,3.446v.627c0,2.3.627,3.446,2.611,3.446,1.566,0,1.984-.627,2.193-2.4l2.4.313c-.418,2.506-1.671,4.072-4.8,4.072C43.044,50.186,42,47.889,42,44.756Z" transform="translate(-31.662 -38.7)"/>
    <path id="Tracé_82" data-name="Tracé 82" class="cls-1" d="M52.4,38.8h2.3V50.077H52.4Z" transform="translate(-31.203 -38.696)"/>
    <path id="Tracé_83" data-name="Tracé 83" class="cls-1" d="M65.352,45.33H61.488v4.7H59.4V39.9h2.088v3.655h3.864V39.9H67.44V50.029H65.352Z" transform="translate(-30.893 -38.647)"/>
    <path id="Tracé_84" data-name="Tracé 84" class="cls-1" d="M71.446,39.8h2.088L76.98,50.033H74.892l-.731-2.088h-3.55l-.731,2.088H68Zm-.209,6.578h2.4l-1.253-3.55Z" transform="translate(-30.513 -38.651)"/>
    <path id="Tracé_85" data-name="Tracé 85" class="cls-1" d="M77.6,46.583V39.9h2.088v6.578c0,1.253.313,1.984,1.88,1.984,1.671,0,1.984-.627,1.984-1.88V40h1.984v6.683c0,2.715-1.253,3.655-3.968,3.655C78.853,50.133,77.6,49.193,77.6,46.583Z" transform="translate(-30.089 -38.647)"/>
    <path id="Tracé_86" data-name="Tracé 86" class="cls-1" d="M89.228,41.675H86.2V39.9h8.04v1.775H91.212v8.354H89.124l.1-8.354Z" transform="translate(-29.709 -38.647)"/>
    <path id="Tracé_87" data-name="Tracé 87" class="cls-1" d="M95,39.9h6.892v1.775H96.984v1.984h4.386v1.775H96.984v2.819h4.908v1.775H95Z" transform="translate(-29.32 -38.647)"/>
    <path id="Tracé_88" data-name="Tracé 88" class="cls-1" d="M102.5,44.6h4.908v1.671H102.5Z" transform="translate(-28.988 -38.439)"/>
    <path id="Tracé_89" data-name="Tracé 89" class="cls-1" d="M107.8,47.009l2.193-.209c.209,1.044.731,1.566,2.3,1.566,1.149,0,1.984-.313,1.984-1.253s-.835-1.044-2.3-1.462c-1.88-.418-3.55-.835-3.55-3.028,0-1.566,1.044-2.924,3.864-2.924,2.3,0,3.55.94,3.968,2.715l-2.3.313c-.209-.835-.627-1.149-1.671-1.149-1.357,0-1.88.313-1.88,1.044s.627.94,2.088,1.253c2.4.522,3.759,1.044,3.759,3.237,0,1.984-1.775,3.028-3.968,3.028C109.262,50.142,108.322,48.889,107.8,47.009Z" transform="translate(-28.754 -38.656)"/>
    <path id="Tracé_90" data-name="Tracé 90" class="cls-1" d="M119.846,39.8h2.088l3.446,10.233h-2.088l-.731-2.088h-3.446l-.731,2.088H116.4Zm-.209,6.578h2.4l-1.253-3.55Z" transform="translate(-28.374 -38.651)"/>
    <path id="Tracé_91" data-name="Tracé 91" class="cls-1" d="M130.734,50.133h-2.088L125.2,39.9h2.088l2.4,7.518,2.4-7.518h1.984Z" transform="translate(-27.985 -38.647)"/>
    <path id="Tracé_92" data-name="Tracé 92" class="cls-1" d="M134.3,45.234v-.627c0-2.715.94-4.908,4.386-4.908,3.55,0,4.386,2.193,4.386,4.8v.731c0,2.506-1.044,4.908-4.386,4.908S134.3,47.949,134.3,45.234Zm6.683.1v-.627c0-2.193-.627-3.028-2.3-3.028s-2.3.94-2.3,3.028v.627c0,2.088.835,3.133,2.3,3.133C140.148,48.367,140.983,47.427,140.983,45.339Z" transform="translate(-27.582 -38.656)"/>
    <path id="Tracé_93" data-name="Tracé 93" class="cls-1" d="M144,39.9h2.088V50.029H144Z" transform="translate(-27.154 -38.647)"/>
    <path id="Tracé_94" data-name="Tracé 94" class="cls-1" d="M147.8,39.9h6.892v1.775h-4.908v1.984h4.386v1.775h-4.386v2.819h4.908v1.775H147.8Z" transform="translate(-26.986 -38.647)"/>
  </g>
  <g id="Groupe_844" data-name="Groupe 844" transform="translate(0 32.891)">
    <path id="Tracé_95" data-name="Tracé 95" class="cls-1" d="M0,46.223A14.885,14.885,0,0,0,14.828,61.051a14.562,14.562,0,0,0,9.085-3.133L20.78,54.473a9.944,9.944,0,0,1-5.952,1.984,10.129,10.129,0,0,1,0-20.258,10.51,10.51,0,0,1,4.072.835l1.88-4.281A14.144,14.144,0,0,0,14.828,31.5,14.729,14.729,0,0,0,0,46.223Z" transform="translate(0 -31.499)"/>
    <path id="Tracé_96" data-name="Tracé 96" class="cls-1" d="M6.6,45.932a7.932,7.932,0,0,0,7.936,7.936,8.088,8.088,0,0,0,4.386-1.357S16,49.273,15.685,48.96a4.488,4.488,0,0,1-1.253.209,3.237,3.237,0,0,1,0-6.474,2.48,2.48,0,0,1,1.253.313l1.88-4.281a7.629,7.629,0,0,0-3.133-.627A7.755,7.755,0,0,0,6.6,45.932Z" transform="translate(0.292 -31.207)"/>
    <path id="Tracé_97" data-name="Tracé 97" class="cls-2" d="M24.661,40.518l-.209-.418-5.221,2.4.209.522a5.754,5.754,0,0,1,.731,2.819,6.679,6.679,0,0,1-1.357,3.864l-.313.313L22.364,54.3l.418-.418a11.743,11.743,0,0,0,3.133-8.04A13.7,13.7,0,0,0,24.661,40.518Z" transform="translate(0.818 -31.119)"/>
  </g>
  <g id="Groupe_845" data-name="Groupe 845" class="cls-3" transform="translate(19.422 34.668)">
    <path id="Tracé_98" data-name="Tracé 98" class="cls-1" d="M18.6,41.345l8.04-3.759A14.955,14.955,0,0,0,22.15,33.2L18.6,41.345Z" transform="translate(-18.6 -33.2)"/>
  </g>
</svg>
