<svg xmlns="http://www.w3.org/2000/svg" viewBox="0 0 349.4 241.27"><defs><style>.cls-1{fill:#fff;}</style></defs><title>Gobelins_logo</title><g id="Calque_2" data-name="Calque 2"><g id="Calque_1-2" data-name="Calque 1"><path class="cls-1" d="M132.83,41.91a41.83,41.83,0,1,1,41.79,41.75A41.75,41.75,0,0,1,132.83,41.91Zm41.73,9.2a9.28,9.28,0,1,0-9.24-9.23A9.33,9.33,0,0,0,174.56,51.11Z"/><path class="cls-1" d="M204.53,166.43l1.34-.73a21.2,21.2,0,0,0,6.74-5.17c2.8-3.42,2.52-6.87-.77-9.82a14.1,14.1,0,0,0-5.36-2.85q-27.75-8.52-55.48-17.1a39.62,39.62,0,0,1-12.63-6.31c-8.11-6.26-11.67-14.52-10.7-24.71.87-9.1,5.52-15.77,13.23-20.43.52-.31,1.09-.52,1.63-.78l.21.38c-.3.21-.61.42-.9.65a42.67,42.67,0,0,0-5,4.06c-2.47,2.71-2.19,5.88.45,8.47A12.27,12.27,0,0,0,142.49,95c11.73,3.56,23.46,7.08,35.18,10.69,7.5,2.3,15,4.65,22.43,7.12A35.5,35.5,0,0,1,214,121c6.11,6,8.48,13.35,7.92,21.7-.68,10.08-5.46,17.72-14.22,22.81-.94.54-2,1-2.94,1.42Z"/><path class="cls-1" d="M35.34,191.61a15.58,15.58,0,0,1-5.13,12.28c-5.05,4.7-11,6.2-17.64,4.21C6.17,206.17,2,201.9.42,195.28a17.21,17.21,0,0,1,13.65-20.49c7.26-1.35,13.26,1,17.87,6.72a27.41,27.41,0,0,1,1.85,3.06H26.5a11.25,11.25,0,0,0-14.15-3.39,11.93,11.93,0,0,0-6,13.07,11.39,11.39,0,0,0,11,9c4.68.14,9.18-2.54,10.23-6.25H13.9v-5.39Z"/><path class="cls-1" d="M303,208.17h-6.66l-13.75-23.88-.39.11v23.73h-5.84v-32.9h6.83c4.43,7.79,9,15.75,13.51,23.72l.31-.07V175.21h6Z"/><path class="cls-1" d="M71.23,174.42a17.25,17.25,0,1,1-17.29,17.36A17.23,17.23,0,0,1,71.23,174.42Zm11.35,17.24A11.53,11.53,0,0,0,71.29,180,11.65,11.65,0,0,0,59.9,191.63a11.52,11.52,0,0,0,11.36,11.64A11.4,11.4,0,0,0,82.58,191.66Z"/><path class="cls-1" d="M110.5,208.25V175.08c1.21,0,2.33,0,3.44,0,2.85.09,5.72,0,8.53.38a8.45,8.45,0,0,1,7.47,8.06,6.74,6.74,0,0,1-2.72,5.9c-.25.19-.49.4-.8.66a5.81,5.81,0,0,0,.74.47c6,2.52,5.85,10.61,2.35,14.25a9.88,9.88,0,0,1-6.54,3.12c-3,.22-6.12.23-9.18.32C112.72,208.28,111.66,208.25,110.5,208.25Zm5.46-5.67c2.24,0,4.38.27,6.46-.41a4.05,4.05,0,0,0,3-3.79,4.26,4.26,0,0,0-2.76-4.15c-2.15-.85-4.38-.56-6.67-.48Zm0-14.66a11.45,11.45,0,0,0,5.2-.35,3.47,3.47,0,0,0,.69-6.09c-1.86-1-3.87-.92-5.89-.73Z"/><path class="cls-1" d="M163.93,180.74V189H175v5.63H164v8H175.4v5.54H158V175.21h17.44v5.27C171.67,180.89,167.87,180.42,163.93,180.74Z"/><path class="cls-1" d="M348.51,183.63H342.6c-.13-.39-.26-.79-.4-1.18a3.52,3.52,0,0,0-3.59-2.47,3.37,3.37,0,0,0-3.3,2.58,3.44,3.44,0,0,0,1.75,4.11c1,.56,2.18.89,3.26,1.36a44.78,44.78,0,0,1,4.82,2.21c6,3.51,5.44,13.35-.18,16.88-5.19,3.26-12.44,1.81-15.52-3.26a8.87,8.87,0,0,1-1.38-5h6.05c.23.64.39,1.19.62,1.72a4.2,4.2,0,0,0,4.7,2.59,4.31,4.31,0,0,0,3.93-3.49,4,4,0,0,0-1.92-4.43,31,31,0,0,0-3.51-1.61c-1.28-.56-2.61-1-3.86-1.63-3.72-1.87-5.13-5-4.82-9.05a8.76,8.76,0,0,1,5.92-7.94,9.8,9.8,0,0,1,13.33,7.55A6.66,6.66,0,0,1,348.51,183.63Z"/><path class="cls-1" d="M217.67,208.16H201.8v-33h5.73c.18,9.07,0,18.11.11,27.35h10Z"/><path class="cls-1" d="M242.61,175.18h5.52v33.07h-5.4C242.28,207,242.18,177.06,242.61,175.18Z"/><path class="cls-1" d="M250.36,240.83h-2V218.92h3.22l8.15,19,8.18-19h3.17v21.89c-.34.05-.59.12-.85.13s-.52-.06-1-.11V221.66l-.43-.11c-2.84,6.37-5.39,12.88-8.22,19.31h-1.83q-4-9.51-8-19.13l-.42.09Z"/><path class="cls-1" d="M329.49,231c.05,4.88-4.7,9.67-9.95,10.23-6.2.66-11.92-3.25-13.14-9A11.44,11.44,0,0,1,314.1,219c5.45-1.81,11.92.6,14.06,5.36h-2.09c-4.54-4.44-8.86-5.36-13.16-2.75a9.63,9.63,0,0,0-4.31,11,9.88,9.88,0,0,0,10.23,6.76,9.14,9.14,0,0,0,8.2-6.7H314.9V231Z"/><path class="cls-1" d="M151.89,241.11v-22.3c3.84,0,7.6-.4,11.24.82a10.68,10.68,0,0,1,3,1.54,10.44,10.44,0,0,1,4.09,11c-.92,4.5-3.76,7.55-8.36,8.32A91,91,0,0,1,151.89,241.11ZM154,220.72v18.33c3,0,5.91.35,8.73-.64a9,9,0,0,0,5.73-8.22,9.12,9.12,0,0,0-5.14-8.47C160.34,220.46,157.23,220.56,154,220.72Z"/><path class="cls-1" d="M84.5,241.24a11.44,11.44,0,1,1,11.83-11.37A11.59,11.59,0,0,1,84.5,241.24Zm.1-1.83a9.56,9.56,0,0,0,9.62-9.61A9.62,9.62,0,1,0,75,230,9.56,9.56,0,0,0,84.6,239.41Z"/><path class="cls-1" d="M284.7,233.55c-1.08,2.47-2.14,4.87-3.21,7.29H279.4c3.16-7.42,6.24-14.66,9.35-22h2.45l9.43,21.93-2.15.13c-1.09-2.46-2.16-4.9-3.26-7.4Zm9.66-2c-1.47-3.51-2.83-6.77-4.2-10l-.36,0-4.26,10Z"/><path class="cls-1" d="M65.38,235.27h2c-1.75,4.09-7.24,6.74-11.93,5.82a11.45,11.45,0,0,1-.91-22.35c5.1-1.23,10.75,1.1,12.79,5.41h-2c-4.75-5.58-11-4.53-14.43-1.09a9.41,9.41,0,0,0,.09,13.58C54.55,240.16,60.54,241,65.38,235.27Z"/><path class="cls-1" d="M38.12,239v1.8H26.21V218.88H38.06v1.74H28.31v8.25h9.42l.11,1.78H28.31V239Z"/><path class="cls-1" d="M125.21,228.89h9.45v1.77h-9.43V239H135l.14,1.81h-12V218.89H135l.11,1.71h-9.91Z"/><path class="cls-1" d="M349.1,239v1.79H337.21v-21.9H349.1v1.66h-9.77v8.26h9.42c0,.67.06,1.11.09,1.8h-9.52V239Z"/><path class="cls-1" d="M191,229.05v1.6h-9.37a51.73,51.73,0,0,0-.06,8.44h9.73v1.75H179.54V218.9h11.73l.08,1.69h-9.77v8.17C184.61,229.19,187.73,228.71,191,229.05Z"/><path class="cls-1" d="M.36,218.88h2v20.19h9l.09,1.73H.36Z"/><path class="cls-1" d="M104,218.86h1.92v20.19H115v1.79H104Z"/><path class="cls-1" d="M209.76,218.78V239h9.16l.14,1.75h-11c-.4-1.11-.51-19.91-.09-21.93Z"/><path class="cls-1" d="M236.45,240.84H234.7V218.93h1.75Z"/><path class="cls-1" d="M225.48,218.89l-2.92,6.33-1.83.09c.88-2.26,1.69-4.3,2.53-6.42Z"/><path class="cls-1" d="M17.38,218.88,14.5,225.2l-1.86.12c.9-2.28,1.7-4.32,2.53-6.44Z"/><path class="cls-1" d="M28.89,215.75l5.75-3.15.87,1.63-5.75,3.15Z"/></g></g></svg>