<?xml version="1.0" encoding="utf-8"?>
<!-- Generator: Adobe Illustrator 22.1.0, SVG Export Plug-In . SVG Version: 6.00 Build 0)  -->
<svg version="1.1" id="Calque_1" xmlns="http://www.w3.org/2000/svg" xmlns:xlink="http://www.w3.org/1999/xlink" x="0px" y="0px"
	 viewBox="0 0 953.6 1081" style="enable-background:new 0 0 953.6 1081;" xml:space="preserve">
<style type="text/css">
	.st0{fill:url(#SVGID_1_);}
	.st1{fill:#1C2D4F;}
	.st2{fill:#203157;}
	.st3{fill:url(#SVGID_2_);}
	.st4{fill:url(#SVGID_3_);}
	.st5{fill:url(#SVGID_4_);}
	.st6{fill:#FFEDFF;}
	.st7{fill:url(#SVGID_5_);}
	.st8{fill:url(#nuage_1_1_);}
	.st9{fill:url(#SVGID_6_);}
	.st10{fill:url(#SVGID_7_);}
	.st11{fill:url(#SVGID_8_);}
	.st12{opacity:0.1;fill:#D15F5E;enable-background:new    ;}
	.st13{fill:url(#SVGID_9_);}
	.st14{fill:url(#SVGID_10_);}
	.st15{fill:url(#SVGID_11_);}
	.st16{fill:url(#SVGID_12_);}
	.st17{fill:#FFFBE4;}
	.st18{fill:url(#SVGID_13_);}
	.st19{fill:url(#SVGID_14_);}
	.st20{fill:url(#SVGID_15_);}
	.st21{fill:url(#SVGID_16_);}
	.st22{fill:#44769B;}
	.st23{fill:url(#SVGID_17_);}
	.st24{fill:url(#SVGID_18_);}
	.st25{fill:url(#SVGID_19_);}
	.st26{fill:url(#SVGID_20_);}
	.st27{fill:none;stroke:url(#SVGID_21_);stroke-width:2;stroke-miterlimit:10;}
	.st28{fill:none;stroke:url(#SVGID_22_);stroke-width:2;stroke-miterlimit:10;}
	.st29{fill:none;stroke:url(#SVGID_23_);stroke-width:2;stroke-miterlimit:10;}
	.st30{fill:none;stroke:url(#SVGID_24_);stroke-width:2;stroke-miterlimit:10;}
	.st31{fill:url(#SVGID_25_);}
	.st32{fill:#003957;}
	.st33{fill:#3B5F78;}
	.st34{fill:url(#SVGID_26_);}
	.st35{clip-path:url(#SVGID_28_);}
	.st36{fill:#131F49;}
	.st37{fill:url(#SVGID_29_);}
	.st38{fill:#177C9E;}
	.st39{fill:url(#SVGID_30_);}
	.st40{fill:url(#SVGID_31_);}
	.st41{fill:url(#SVGID_32_);}
</style>
<title>observation</title>
<g>
	<g id="Calque_2_1_">
		<g id="illustrator">
			
				<linearGradient id="SVGID_1_" gradientUnits="userSpaceOnUse" x1="488.376" y1="6.0238" x2="471.9958" y2="764.4824" gradientTransform="matrix(1 0 0 -1 0 1082)">
				<stop  offset="0" style="stop-color:#006AA6"/>
				<stop  offset="1" style="stop-color:#4A2D92"/>
			</linearGradient>
			<rect class="st0" width="953.6" height="1079"/>
			<g id="montagne">
				<polygon class="st1" points="941.7,913.3 953.6,922.2 953.6,975 644.4,975 644.4,939.4 667.5,927.7 688.7,917 721.5,921.2 
					721.5,921.2 731.1,922.5 744.4,921 744.4,921 781.7,917 811.6,922.5 881.9,903.7 900.2,913.8 				"/>
				<polygon class="st1" points="360.9,943.2 304.3,910.5 278.7,905.2 237.3,884 121.7,950 				"/>
				<polygon class="st2" points="213.2,961.2 232.5,934.2 323.8,915.6 351.8,918.7 446.1,898.2 469,902.1 519.6,891.2 673.3,929.1 
					737.5,918.7 771,930.4 867.3,949.7 867.3,979.2 213.2,979.2 				"/>
				
					<linearGradient id="SVGID_2_" gradientUnits="userSpaceOnUse" x1="801.6473" y1="290.1397" x2="823.0873" y2="89.6197" gradientTransform="matrix(1 0 0 -1 0 1082)">
					<stop  offset="0" style="stop-color:#40677D"/>
					<stop  offset="7.000000e-02" style="stop-color:#3E637B"/>
					<stop  offset="0.66" style="stop-color:#2B456A"/>
					<stop  offset="1" style="stop-color:#243964"/>
				</linearGradient>
				<polygon class="st3" points="953.6,934.7 953.6,973.1 684.4,973.1 684.4,950.9 692.6,949.1 692.6,949.1 761.5,933.6 
					780.7,939.4 800.5,936.3 800.5,936.3 802.4,936 916.2,918.7 				"/>
				
					<linearGradient id="SVGID_3_" gradientUnits="userSpaceOnUse" x1="161.0214" y1="331.2321" x2="181.5814" y2="123.0621" gradientTransform="matrix(1 0 0 -1 0 1082)">
					<stop  offset="0" style="stop-color:#40677D"/>
					<stop  offset="7.000000e-02" style="stop-color:#3E637B"/>
					<stop  offset="0.66" style="stop-color:#2B456A"/>
					<stop  offset="1" style="stop-color:#243964"/>
				</linearGradient>
				<path class="st4" d="M0.6,910.5l20.6-10.3l50.1-28.3c0,0,30.8,20.6,35.3,19.3s56.9,9.6,66.5,13.5s52,15.9,52,15.9
					s52,11.1,61.2,11.1s50.6,4.8,50.6,4.8L363,949v24.1H0.6V910.5z"/>
				
					<linearGradient id="SVGID_4_" gradientUnits="userSpaceOnUse" x1="450.712" y1="356.6093" x2="479.9819" y2="27.0293" gradientTransform="matrix(1 0 0 -1 0 1082)">
					<stop  offset="0" style="stop-color:#40677D"/>
					<stop  offset="0.23" style="stop-color:#36566E"/>
					<stop  offset="0.72" style="stop-color:#243854"/>
					<stop  offset="1" style="stop-color:#1D2C4A"/>
				</linearGradient>
				<path class="st5" d="M953.6,963.6V1081H0.6V964.4c73.2-5.8,146.5-10.2,219.9-13.3c45.9-2,91.8-3.4,137.8-4.3l0,0
					c95.4-1.9,190.7-1.6,286.1,0.9c16.1,0.4,32.2,0.9,48.2,1.5l0,0c58.3,2,116.5,4.8,174.7,8.5C896.1,959.4,924.8,961.4,953.6,963.6
					z"/>
			</g>
			<g id="étoile">
				<path class="st6" d="M771.7,189.1l0.9,1.7c0,0,0.1,0.1,0.1,0.1l1.7,0.9c0.1,0.1,0.1,0.2,0.1,0.3c0,0,0,0.1-0.1,0.1l-1.7,0.9
					c0,0-0.1,0.1-0.1,0.1l-0.9,1.7c-0.1,0.1-0.2,0.1-0.3,0.1c0,0-0.1-0.1-0.1-0.1l-0.9-1.7c0,0-0.1-0.1-0.1-0.1l-1.7-0.9
					c-0.1-0.1-0.1-0.2-0.1-0.3c0,0,0-0.1,0.1-0.1l1.7-0.9c0,0,0.1-0.1,0.1-0.1l0.9-1.7C771.4,189,771.5,189,771.7,189.1
					C771.6,189.1,771.7,189.1,771.7,189.1z"/>
				<path class="st6" d="M447.5,92.2l0.9,1.7c0,0,0.1,0.1,0.1,0.1l1.7,0.9c0.1,0.1,0.1,0.2,0.1,0.3c0,0,0,0.1-0.1,0.1l-1.7,0.9
					c0,0-0.1,0.1-0.1,0.1l-0.9,1.7c-0.1,0.1-0.2,0.1-0.3,0.1c0,0-0.1,0-0.1-0.1l-0.9-1.7c0,0-0.1-0.1-0.1-0.1l-1.7-0.9
					c-0.1-0.1-0.1-0.2-0.1-0.3c0,0,0-0.1,0.1-0.1l1.7-0.9c0,0,0.1-0.1,0.1-0.1l0.9-1.7C447.1,92.1,447.3,92.1,447.5,92.2
					C447.4,92.1,447.5,92.2,447.5,92.2z"/>
				<path class="st6" d="M176.7,252.2l0.9,1.7c0,0,0.1,0.1,0.1,0.1l1.7,0.9c0.1,0.1,0.1,0.2,0.1,0.3c0,0-0.1,0.1-0.1,0.1l-1.7,0.9
					c0,0-0.1,0.1-0.1,0.1l-0.9,1.7c-0.1,0.1-0.2,0.1-0.3,0.1c0,0-0.1,0-0.1-0.1l-0.9-1.7c0,0-0.1-0.1-0.1-0.1l-1.7-0.9
					c-0.1-0.1-0.1-0.2-0.1-0.3c0,0,0.1-0.1,0.1-0.1l1.7-0.9c0,0,0.1-0.1,0.1-0.1l0.9-1.7c0.1-0.1,0.2-0.2,0.3-0.1
					C176.6,252.1,176.6,252.2,176.7,252.2z"/>
				<path class="st6" d="M38.8,97.8l0.9,1.7c0,0,0.1,0.1,0.1,0.1l1.7,0.9c0.1,0.1,0.2,0.2,0.1,0.3c0,0-0.1,0.1-0.1,0.1l-1.7,0.9
					c0,0-0.1,0.1-0.1,0.1l-0.9,1.7c-0.1,0.1-0.2,0.1-0.3,0.1c0,0-0.1-0.1-0.1-0.1l-0.9-1.7c0,0-0.1-0.1-0.1-0.1l-1.7-0.9
					c-0.1-0.1-0.1-0.2-0.1-0.3c0,0,0.1-0.1,0.1-0.1l1.7-0.9c0,0,0.1-0.1,0.1-0.1l0.9-1.7C38.4,97.7,38.6,97.7,38.8,97.8
					C38.7,97.7,38.7,97.8,38.8,97.8z"/>
				<path class="st6" d="M217,471.1l0.9,1.7c0,0,0.1,0.1,0.1,0.1l1.7,0.9c0.1,0.1,0.1,0.2,0.1,0.3c0,0,0,0.1-0.1,0.1l-1.7,0.9
					c0,0-0.1,0.1-0.1,0.1l-0.9,1.7c-0.1,0.1-0.2,0.1-0.3,0.1c0,0-0.1-0.1-0.1-0.1l-0.9-1.7c0,0-0.1-0.1-0.1-0.1l-1.7-0.9
					c-0.1-0.1-0.2-0.2-0.1-0.3c0,0,0.1-0.1,0.1-0.1l1.7-0.9c0,0,0.1-0.1,0.1-0.1l0.9-1.7C216.7,471,216.8,471,217,471.1
					C216.9,471,217,471.1,217,471.1z"/>
				<path class="st6" d="M857.4,93.3l0.6,1c0,0,0,0.1,0.1,0.1l1,0.6c0.1,0,0.1,0.1,0.1,0.2c0,0,0,0-0.1,0.1l-1,0.6c0,0,0,0-0.1,0
					l-0.6,1c0,0.1-0.1,0.1-0.2,0.1c0,0,0,0-0.1-0.1l-0.6-1h0l-1-0.6c-0.1,0-0.1-0.1-0.1-0.2c0,0,0,0,0.1-0.1l1-0.6c0,0,0,0,0-0.1
					l0.6-1C857.2,93.2,857.3,93.2,857.4,93.3C857.4,93.2,857.4,93.2,857.4,93.3z"/>
				<path class="st6" d="M926.9,175.8l0.3,0.5l0,0l0.5,0.3c0,0,0,0.1,0,0.1c0,0,0,0,0,0l-0.5,0.3l0,0l-0.3,0.5c0,0,0,0.1-0.1,0.1
					c0,0-0.1,0-0.1-0.1l-0.3-0.5l0,0l-0.5-0.3c0,0-0.1,0-0.1-0.1c0,0,0-0.1,0.1-0.1l0.5-0.3l0,0l0.3-0.5
					C926.8,175.8,926.8,175.8,926.9,175.8C926.9,175.8,926.9,175.8,926.9,175.8z"/>
				<path class="st6" d="M681.7,386.2l0.3,0.5l0,0l0.5,0.3c0,0,0,0.1,0,0.1c0,0,0,0,0,0l-0.5,0.3l0,0l-0.3,0.5c0,0-0.1,0-0.1,0
					c0,0,0,0,0,0l-0.3-0.5l0,0l-0.5-0.3c0,0,0-0.1,0-0.1c0,0,0,0,0,0l0.5-0.3l0,0l0.3-0.5C681.6,386.2,681.6,386.1,681.7,386.2
					C681.7,386.2,681.7,386.2,681.7,386.2z"/>
				<path class="st6" d="M665.6,183.2l0.3,0.5l0,0l0.5,0.3c0,0,0,0.1,0,0.1c0,0,0,0,0,0l-0.5,0.3l0,0l-0.3,0.5c0,0-0.1,0-0.1,0
					c0,0,0,0,0,0l-0.3-0.5l0,0l-0.5-0.3c0,0,0-0.1,0-0.1c0,0,0,0,0,0l0.5-0.3l0,0l0.3-0.5C665.5,183.1,665.6,183.1,665.6,183.2
					C665.6,183.2,665.6,183.2,665.6,183.2z"/>
				<path class="st6" d="M225.6,359.1l0.3,0.5l0,0l0.5,0.3c0,0,0,0.1,0,0.1c0,0,0,0,0,0l-0.5,0.3l0,0l-0.3,0.5c0,0-0.1,0.1-0.1,0
					c0,0,0,0,0,0l-0.3-0.5l0,0l-0.5-0.3c0,0,0-0.1,0-0.1c0,0,0,0,0,0l0.5-0.3l0,0l0.3-0.5C225.5,359.1,225.5,359.1,225.6,359.1
					C225.5,359.1,225.6,359.1,225.6,359.1z"/>
				<path class="st6" d="M17.6,356.5l0.3,0.5l0,0l0.5,0.3c0,0,0,0.1,0,0.1c0,0,0,0,0,0l-0.5,0.3l0,0l-0.3,0.5c0,0-0.1,0-0.1,0
					c0,0,0,0,0,0l-0.3-0.5l0,0l-0.5-0.3c0,0,0-0.1,0-0.1c0,0,0,0,0,0l0.5-0.3l0,0l0.3-0.5C17.5,356.5,17.5,356.4,17.6,356.5
					C17.6,356.5,17.6,356.5,17.6,356.5z"/>
				<path class="st6" d="M132.4,194.1l0.3,0.5l0,0l0.5,0.3c0,0,0,0.1,0,0.1c0,0,0,0,0,0l-0.5,0.3l0,0l-0.3,0.5c0,0-0.1,0-0.1,0
					c0,0,0,0,0,0l-0.3-0.5l0,0l-0.5-0.3c0,0,0-0.1,0-0.1c0,0,0,0,0,0l0.5-0.3l0,0l0.3-0.5C132.3,194.1,132.4,194,132.4,194.1
					C132.4,194.1,132.4,194.1,132.4,194.1z"/>
				<path class="st6" d="M344.1,84.5l0.3,0.5l0,0l0.5,0.3c0,0,0,0.1,0,0.1c0,0,0,0,0,0l-0.5,0.3l0,0l-0.3,0.5c0,0-0.1,0.1-0.1,0
					c0,0,0,0,0,0l-0.3-0.5l0,0l-0.5-0.3c0,0,0-0.1,0-0.1c0,0,0,0,0,0l0.5-0.3l0,0l0.3-0.5C344,84.5,344,84.5,344.1,84.5
					C344.1,84.5,344.1,84.5,344.1,84.5z"/>
				<path class="st6" d="M434.8,145.7l0.3,0.5l0,0l0.5,0.3c0,0,0,0.1,0,0.1c0,0,0,0,0,0l-0.5,0.3l0,0l-0.3,0.5c0,0-0.1,0-0.1,0
					c0,0,0,0,0,0l-0.3-0.5l0,0l-0.5-0.3c0,0,0-0.1,0-0.1c0,0,0,0,0,0l0.5-0.3l0,0l0.3-0.5C434.7,145.7,434.8,145.7,434.8,145.7
					C434.8,145.7,434.8,145.7,434.8,145.7z"/>
				<path class="st6" d="M630.4,73.9l0.3,0.5l0,0l0.5,0.3c0,0,0,0.1,0,0.1c0,0,0,0,0,0l-0.5,0.3l0,0l-0.3,0.5c0,0-0.1,0-0.1,0
					c0,0,0,0,0,0l-0.3-0.5l0,0l-0.5-0.3c0,0,0-0.1,0-0.1c0,0,0,0,0,0l0.5-0.3l0,0l0.3-0.5C630.3,73.8,630.3,73.8,630.4,73.9
					C630.4,73.8,630.4,73.9,630.4,73.9z"/>
				<path class="st6" d="M914,360.1l0.3,0.5l0,0l0.5,0.3c0,0,0,0.1,0,0.1c0,0,0,0,0,0l-0.5,0.3l0,0l-0.3,0.5c0,0-0.1,0-0.1,0
					c0,0,0,0,0,0l-0.3-0.5l0,0l-0.5-0.3c0,0,0-0.1,0-0.1c0,0,0,0,0,0l0.5-0.3l0,0l0.3-0.5C913.9,360,913.9,360,914,360.1
					C914,360.1,914,360.1,914,360.1z"/>
				<path class="st6" d="M585.9,133.5l0.3,0.5l0,0l0.5,0.3c0,0,0,0.1,0,0.1c0,0,0,0,0,0l-0.5,0.3l0,0l-0.3,0.5c0,0-0.1,0-0.1,0
					c0,0,0,0,0,0l-0.3-0.5l0,0l-0.5-0.3c0,0,0-0.1,0-0.1c0,0,0,0,0,0l0.5-0.3l0,0l0.3-0.5C585.8,133.5,585.9,133.4,585.9,133.5
					C585.9,133.5,585.9,133.5,585.9,133.5z"/>
				<path class="st6" d="M704.5,470.3l0.6,1c0,0,0,0.1,0.1,0.1l1,0.6c0.1,0,0.1,0.1,0.1,0.2c0,0,0,0-0.1,0.1l-1,0.6c0,0,0,0-0.1,0.1
					l-0.6,1c0,0.1-0.1,0.1-0.2,0.1c0,0,0,0-0.1-0.1l-0.6-1l-0.1-0.1l-1-0.6c-0.1,0-0.1-0.1-0.1-0.2c0,0,0,0,0.1-0.1l1-0.6l0.1-0.1
					l0.6-1C704.3,470.2,704.4,470.2,704.5,470.3C704.5,470.2,704.5,470.3,704.5,470.3z"/>
				<path class="st6" d="M358.9,384.3l0.6,1l0,0.1l1,0.6c0.1,0,0.1,0.1,0.1,0.2c0,0,0,0-0.1,0.1l-1,0.6c0,0,0,0,0,0.1l-0.6,1
					c0,0.1-0.1,0.1-0.2,0.1c0,0,0,0-0.1-0.1l-0.6-1c0,0,0-0.1-0.1-0.1l-1-0.6c-0.1,0-0.1-0.1-0.1-0.2c0,0,0,0,0.1-0.1l1-0.6
					c0,0,0,0,0.1-0.1l0.6-1C358.7,384.3,358.8,384.2,358.9,384.3C358.9,384.3,358.9,384.3,358.9,384.3z"/>
				<path class="st6" d="M319.6,204.9l0.6,1l0.1,0.1l1,0.6c0.1,0,0.1,0.1,0.1,0.2c0,0,0,0-0.1,0.1l-1,0.6c0,0,0,0-0.1,0.1l-0.6,1.1
					c0,0.1-0.1,0.1-0.2,0.1c0,0,0,0-0.1-0.1l-0.6-1.1c0,0,0-0.1-0.1-0.1l-1-0.6c-0.1,0-0.1-0.1-0.1-0.2c0,0,0-0.1,0.1-0.1l1-0.6
					c0,0,0,0,0.1-0.1l0.6-1C319.4,204.8,319.5,204.8,319.6,204.9C319.6,204.9,319.6,204.9,319.6,204.9z"/>
				<path class="st6" d="M38.7,271.1l0.6,1c0,0,0,0,0.1,0.1l1,0.6c0.1,0,0.1,0.1,0.1,0.2c0,0,0,0-0.1,0.1l-1,0.6c0,0-0.1,0-0.1,0.1
					l-0.6,1c0,0.1-0.1,0.1-0.2,0.1c0,0,0,0-0.1-0.1l-0.6-1c0,0,0,0-0.1-0.1l-1-0.6c-0.1,0-0.1-0.1-0.1-0.2c0,0,0,0,0.1-0.1l1-0.6
					l0.1-0.1l0.6-1C38.5,271.1,38.6,271.1,38.7,271.1C38.6,271.1,38.7,271.1,38.7,271.1z"/>
				<path class="st6" d="M726.5,80.8l0.6,1l0.1,0.1l1,0.6c0.1,0,0.1,0.1,0.1,0.2c0,0,0,0-0.1,0.1l-1,0.6l-0.1,0.1l-0.6,1
					c0,0.1-0.1,0.1-0.2,0.1c0,0,0,0-0.1-0.1l-0.6-1c0,0,0-0.1-0.1-0.1l-1-0.6c-0.1,0-0.1-0.1-0.1-0.2c0,0,0,0,0.1-0.1l1-0.6l0.1-0.1
					l0.6-1C726.3,80.7,726.4,80.7,726.5,80.8C726.5,80.7,726.5,80.8,726.5,80.8z"/>
				<path class="st6" d="M821,339l0.6,1c0,0,0,0.1,0.1,0.1l1,0.6c0.1,0,0.1,0.1,0.1,0.2c0,0,0,0.1-0.1,0.1l-1,0.6l-0.1,0.1l-0.6,1
					c0,0.1-0.1,0.1-0.2,0.1c0,0,0,0-0.1-0.1l-0.6-1l-0.1-0.1l-1-0.6c-0.1,0-0.1-0.1-0.1-0.2c0,0,0,0,0.1-0.1l1-0.6l0.1-0.1l0.6-1
					C820.8,338.9,820.9,338.9,821,339C821,339,821,339,821,339z"/>
			</g>
			
				<linearGradient id="SVGID_5_" gradientUnits="userSpaceOnUse" x1="642.5828" y1="859.9035" x2="940.5128" y2="824.8035" gradientTransform="matrix(1 0 0 -1 0 1082)">
				<stop  offset="0" style="stop-color:#40677D"/>
				<stop  offset="7.000000e-02" style="stop-color:#3E637B"/>
				<stop  offset="0.66" style="stop-color:#2B456A"/>
				<stop  offset="1" style="stop-color:#243964"/>
			</linearGradient>
			<path class="st7" d="M953.6,337.1c-23.4,2.5-34.1-3-34.1-3s3.2-1.3-1.6-5.4s-27.1-0.5-32.2-3.4s-9.6-8.4-24.6-6.6
				c-12.6-2.5-23.1-2.6-30.6,5c-4.2,4.3,5.1,9.3,5.1,9.3s-6,0.5-13,0.7c-3.5,0.1-7.2,0.2-10.7,0.1c-10.2-0.3-30.3,3.5-30.3,3.5
				s-11-1.3-23.6-4.3s-53.1,0-53.1,0s34.6-4.8,67.6-12.9c-5.6-12.1-3.2-21.7,23.8-25.5c-3.8-5.9,1.9-9.1,1.9-9.1s-12.6-2.7-9.3-20.9
				c2.5-14.3,13.8-22.2,33.7-25.1c6.1-0.8,12.2-1.2,18.3-1.2c-2.7-6.2-2.4-11.8,3.2-10.5c-2.7-27.9,9.1-64.9,51.7-74.5
				c28-6.3,47.6,2.2,57.8,8.8L953.6,337.1z"/>
			
				<linearGradient id="nuage_1_1_" gradientUnits="userSpaceOnUse" x1="220.231" y1="821.7694" x2="83.601" y2="598.0894" gradientTransform="matrix(1 0 0 -1 0 1082)">
				<stop  offset="0" style="stop-color:#40677D"/>
				<stop  offset="7.000000e-02" style="stop-color:#3E637B"/>
				<stop  offset="0.66" style="stop-color:#2B456A"/>
				<stop  offset="1" style="stop-color:#243964"/>
			</linearGradient>
			<path id="nuage_1" class="st8" d="M0,316c0,0,24.1-25.7,68.5-15.7s56.7,48.6,53.9,77.6c5.9-1.4,6.1,4.5,3.3,10.9
				c32.7,0.3,50.9,8.5,54.2,27.4s-9.7,21.8-9.7,21.8s5.9,3.4,2,9.5c28.2,3.9,30.7,14,24.8,26.6c34.4,8.4,70.4,13.4,70.4,13.4
				s-42.2-3.1-55.4,0s-24.6,4.5-24.6,4.5s-21-3.9-31.6-3.6s-24.6-0.8-24.6-0.8s9.7-5.2,5.3-9.6c-7.8-8-18.7-7.8-31.9-5.2
				c-15.7-1.9-20.3,3.9-25.7,6.9s-28.6-0.7-33.6,3.5s-1.7,5.6-1.7,5.6s-13.7,7-43.9,2L0,316z"/>
			<g id="satellite">
				<g>
					
						<linearGradient id="SVGID_6_" gradientUnits="userSpaceOnUse" x1="207.51" y1="162.455" x2="251.92" y2="162.455" gradientTransform="matrix(1 0 0 -1 0 1082)">
						<stop  offset="0" style="stop-color:#571393"/>
						<stop  offset="3.000000e-02" style="stop-color:#681B82"/>
						<stop  offset="8.000000e-02" style="stop-color:#7E266D"/>
						<stop  offset="0.13" style="stop-color:#8D2D5E"/>
						<stop  offset="0.19" style="stop-color:#963255"/>
						<stop  offset="0.27" style="stop-color:#993352"/>
						<stop  offset="0.39" style="stop-color:#7D3B5C"/>
						<stop  offset="0.57" style="stop-color:#56476A"/>
						<stop  offset="0.74" style="stop-color:#394F74"/>
						<stop  offset="0.89" style="stop-color:#28547A"/>
						<stop  offset="1" style="stop-color:#22567C"/>
					</linearGradient>
					<polygon class="st9" points="207.5,887.2 221,952.5 251.9,951.1 219.7,886.6 					"/>
					
						<linearGradient id="SVGID_7_" gradientUnits="userSpaceOnUse" x1="1726.8087" y1="178.7992" x2="1742.6787" y2="119.5891" gradientTransform="matrix(0.999 -4.553734e-02 -4.553734e-02 -0.999 -1503.1672 1154.2506)">
						<stop  offset="0" style="stop-color:#CCCCCC"/>
						<stop  offset="7.000000e-02" style="stop-color:#C2C2C2"/>
						<stop  offset="0.51" style="stop-color:#838383"/>
						<stop  offset="0.83" style="stop-color:#5C5C5C"/>
						<stop  offset="1" style="stop-color:#4D4D4D"/>
					</linearGradient>
					<polygon class="st10" points="202.2,887.4 215.7,952.8 246.7,951.4 214.4,886.8 					"/>
				</g>
				<g>
					
						<linearGradient id="SVGID_8_" gradientUnits="userSpaceOnUse" x1="1684.1639" y1="245.3601" x2="1874.8425" y2="245.3601" gradientTransform="matrix(0.999 -4.553734e-02 -4.553734e-02 -0.999 -1503.1672 1154.2506)">
						<stop  offset="0" style="stop-color:#CCCCCC"/>
						<stop  offset="7.000000e-02" style="stop-color:#C2C2C2"/>
						<stop  offset="0.51" style="stop-color:#838383"/>
						<stop  offset="0.83" style="stop-color:#5C5C5C"/>
						<stop  offset="1" style="stop-color:#4D4D4D"/>
					</linearGradient>
					<path class="st11" d="M179.8,740.5c-21.8,18.8-16.2,84.6,8.1,157.2c53.7,23.9,134.6,26.5,174.4,8.7L179.8,740.5z"/>
					<path class="st12" d="M187.3,887.3c4-16.7,7.6-33.8,12.6-50.3c-0.2-0.4-0.2-0.8-0.5-1c-10.6-13.5-28.7-42.3-28.6-72.9
						c-5.9,26.8-0.3,72.2,16.4,124.9C187.2,887.7,187.2,887.5,187.3,887.3z"/>
					
						<linearGradient id="SVGID_9_" gradientUnits="userSpaceOnUse" x1="1691.3162" y1="249.9651" x2="1876.7311" y2="249.9651" gradientTransform="matrix(0.999 -4.553734e-02 -4.553734e-02 -0.999 -1503.1672 1154.2506)">
						<stop  offset="0" style="stop-color:#571393"/>
						<stop  offset="3.000000e-02" style="stop-color:#681B82"/>
						<stop  offset="8.000000e-02" style="stop-color:#7E266D"/>
						<stop  offset="0.13" style="stop-color:#8D2D5E"/>
						<stop  offset="0.19" style="stop-color:#963255"/>
						<stop  offset="0.27" style="stop-color:#993352"/>
						<stop  offset="0.39" style="stop-color:#7D3B5C"/>
						<stop  offset="0.57" style="stop-color:#56476A"/>
						<stop  offset="0.74" style="stop-color:#394F74"/>
						<stop  offset="0.89" style="stop-color:#28547A"/>
						<stop  offset="1" style="stop-color:#22567C"/>
					</linearGradient>
					<path class="st13" d="M179.8,740.5c-17.3,12.6-7.9,73,52.4,121.8s124.4,49.5,130.1,44s-3.2-54.9-48.9-100.3
						S197.1,727.9,179.8,740.5z"/>
					
						<linearGradient id="SVGID_10_" gradientUnits="userSpaceOnUse" x1="1721.4221" y1="294.5961" x2="1882.3521" y2="171.4461" gradientTransform="matrix(0.999 -4.553734e-02 -4.553734e-02 -0.999 -1503.1672 1154.2506)">
						<stop  offset="0" style="stop-color:#CCCCCC"/>
						<stop  offset="1" style="stop-color:#4D4D4D"/>
					</linearGradient>
					<path class="st14" d="M351.9,906.8c-21.8,1-68.9-9.5-116.2-47.8c-42-34.1-62.6-73.2-62-98.7c0.2-8.8,2.7-15.4,7-18.5
						c1.9-1.4,4.8-2.2,8.4-2.4c24.8-1.1,83.1,27.3,123.5,67.5c36.7,36.5,49.7,76.5,49.5,93c0,4-0.9,5-1,5
						C360.6,905.5,358,906.5,351.9,906.8L351.9,906.8z"/>
					
						<linearGradient id="SVGID_11_" gradientUnits="userSpaceOnUse" x1="1781.6602" y1="262.644" x2="1804.5901" y2="230.554" gradientTransform="matrix(0.999 -4.553734e-02 -4.553734e-02 -0.999 -1503.1672 1154.2506)">
						<stop  offset="0.22" style="stop-color:#CCCCCC"/>
						<stop  offset="0.35" style="stop-color:#BDBDBD"/>
						<stop  offset="0.61" style="stop-color:#969696"/>
						<stop  offset="0.95" style="stop-color:#575757"/>
						<stop  offset="1" style="stop-color:#4D4D4D"/>
					</linearGradient>
					<path class="st15" d="M227.1,852.2l79.8-71.2c6.3,1.1,10.2,6.3,13,12.5l-69.3,77.1C242.8,865.3,237.6,861.3,227.1,852.2z"/>
					
						<linearGradient id="SVGID_12_" gradientUnits="userSpaceOnUse" x1="1788.0299" y1="222.8324" x2="1766.6899" y2="248.7124" gradientTransform="matrix(0.999 -4.553734e-02 -4.553734e-02 -0.999 -1503.1672 1154.2506)">
						<stop  offset="0.38" style="stop-color:#22567D"/>
						<stop  offset="1" style="stop-color:#660099"/>
					</linearGradient>
					<path class="st16" d="M247.5,830.1l8.3-7.3c4.7,8.2,12.6,15.4,21.9,22.1l-7.9,9.4C260.5,848.1,252.9,839.8,247.5,830.1z"/>
					<path class="st17" d="M306.9,781c6.2,1.3,10.4,6.1,13,12.5C312.1,793.7,307.8,789.1,306.9,781z"/>
					
						<linearGradient id="SVGID_13_" gradientUnits="userSpaceOnUse" x1="1821.7333" y1="250.6353" x2="1800.3933" y2="276.5153" gradientTransform="matrix(0.999 -4.553734e-02 -4.553734e-02 -0.999 -1503.1672 1154.2506)">
						<stop  offset="0.38" style="stop-color:#22567D"/>
						<stop  offset="1" style="stop-color:#660099"/>
					</linearGradient>
					<path class="st18" d="M287.7,795.5c5,6.7,10.9,12.7,17.4,17.9l-5.1,7.4c-7.7-6.1-13.9-12.9-17.6-20.9L287.7,795.5z"/>
					
						<linearGradient id="SVGID_14_" gradientUnits="userSpaceOnUse" x1="1833.8529" y1="286.4017" x2="1891.943" y2="340.8817" gradientTransform="matrix(0.999 -4.553734e-02 -4.553734e-02 -0.999 -1503.1672 1154.2506)">
						<stop  offset="0.38" style="stop-color:#22567D"/>
						<stop  offset="1" style="stop-color:#131F49"/>
					</linearGradient>
					<path class="st19" d="M310.4,785.2l65.1-62.3l2,2.3l-62.4,64.9C313.1,789.1,311.4,787.4,310.4,785.2z"/>
					
						<linearGradient id="SVGID_15_" gradientUnits="userSpaceOnUse" x1="1899.6605" y1="324.3519" x2="1879.2705" y2="346.732" gradientTransform="matrix(0.999 -4.553734e-02 -4.553734e-02 -0.999 -1503.1672 1154.2506)">
						<stop  offset="0.38" style="stop-color:#22567D"/>
						<stop  offset="1" style="stop-color:#660099"/>
					</linearGradient>
					<path class="st20" d="M373.4,745.4c-7.5-3.8-13.7-9.8-17.9-17.2l7.5-9.1c8.1,4.1,14.7,10.5,19.1,18.4L373.4,745.4z"/>
					
						<linearGradient id="SVGID_16_" gradientUnits="userSpaceOnUse" x1="1911.1619" y1="326.8451" x2="1882.9318" y2="357.2551" gradientTransform="matrix(0.999 -4.553734e-02 -4.553734e-02 -0.999 -1503.1672 1154.2506)">
						<stop  offset="0.22" style="stop-color:#22567D"/>
						<stop  offset="1" style="stop-color:#660099"/>
					</linearGradient>
					<path class="st21" d="M384.2,742c-10.1-6.4-18.9-14.7-25.6-24.6l7.3-9.3c10.8,6.8,20.2,15.7,27.3,26.3L384.2,742z"/>
					<path class="st22" d="M365.9,708c10.8,6.8,20.2,15.7,27.3,26.3C381.6,728.7,372,719.5,365.9,708z"/>
					
						<linearGradient id="SVGID_17_" gradientUnits="userSpaceOnUse" x1="1914.8695" y1="338.211" x2="1894.4695" y2="360.591" gradientTransform="matrix(0.999 -4.553734e-02 -4.553734e-02 -0.999 -1503.1672 1154.2506)">
						<stop  offset="0.38" style="stop-color:#22567D"/>
						<stop  offset="1" style="stop-color:#660099"/>
					</linearGradient>
					<path class="st23" d="M385.2,726.6c-5-2.1-9-5.9-11.3-10.8l6.1-7.2c5.3,2.2,9.6,6.3,12,11.6L385.2,726.6z"/>
					<path class="st22" d="M380.1,708.6c5.3,2.2,9.6,6.3,12,11.6C386.2,719,381.5,714.5,380.1,708.6z"/>
					<g>
						
							<linearGradient id="SVGID_18_" gradientUnits="userSpaceOnUse" x1="538.5767" y1="156.1388" x2="602.6066" y2="229.8588" gradientTransform="matrix(-1 5.000000e-02 -5.000000e-02 -1 730.76 1054.46)">
							<stop  offset="0" style="stop-color:#22567D"/>
							<stop  offset="0.46" style="stop-color:#660099"/>
						</linearGradient>
						<path class="st24" d="M149.1,926.3l17,17l-5.6,5c-7.4-4.1-13.2-9.3-16.4-16.3L149.1,926.3z M181.9,878.6l-32.3,37.6l26.5,26.5
							l40.5-34.9L181.9,878.6z"/>
						
							<linearGradient id="SVGID_19_" gradientUnits="userSpaceOnUse" x1="1690.2365" y1="124.1172" x2="1647.5465" y2="169.0671" gradientTransform="matrix(0.999 -4.553734e-02 -4.553734e-02 -0.999 -1503.1672 1154.2506)">
							<stop  offset="0" style="stop-color:#CCCCCC"/>
							<stop  offset="0.46" style="stop-color:#8A8A8A"/>
							<stop  offset="0.82" style="stop-color:#5E5E5E"/>
							<stop  offset="1" style="stop-color:#4D4D4D"/>
						</linearGradient>
						<path class="st25" d="M174.5,951.7c-12.4-6.7-23-13.4-33.9-33.9l4.7-6l35.2,35.2L174.5,951.7z"/>
						
							<linearGradient id="SVGID_20_" gradientUnits="userSpaceOnUse" x1="1715.5652" y1="148.1659" x2="1672.8751" y2="193.1159" gradientTransform="matrix(0.999 -4.553734e-02 -4.553734e-02 -0.999 -1503.1672 1154.2506)">
							<stop  offset="0" style="stop-color:#CCCCCC"/>
							<stop  offset="7.000000e-02" style="stop-color:#C2C2C2"/>
							<stop  offset="0.51" style="stop-color:#838383"/>
							<stop  offset="0.83" style="stop-color:#5C5C5C"/>
							<stop  offset="1" style="stop-color:#4D4D4D"/>
						</linearGradient>
						<path class="st26" d="M197.3,931c-15.2-11.8-28.2-23.6-35.8-35.8l9.2-10.5c9.3,12.4,23,24.6,37.1,37.1L197.3,931z"/>
					</g>
				</g>
				
					<linearGradient id="SVGID_21_" gradientUnits="userSpaceOnUse" x1="403.1143" y1="232.7987" x2="400.7143" y2="343.7487" gradientTransform="matrix(0.5515 -0.5515 -0.4455 -0.4455 322.9708 1037.6897)">
					<stop  offset="0" style="stop-color:#006AA6"/>
					<stop  offset="1" style="stop-color:#4A2D92"/>
				</linearGradient>
				
					<ellipse transform="matrix(0.7071 -0.7071 0.7071 0.7071 -363.7248 494.2189)" class="st27" cx="414.7" cy="686.2" rx="18.4" ry="34.2"/>
				
					<linearGradient id="SVGID_22_" gradientUnits="userSpaceOnUse" x1="506.9003" y1="210.2482" x2="503.6203" y2="361.8082" gradientTransform="matrix(0.5515 -0.5515 -0.4455 -0.4455 322.961 1037.6853)">
					<stop  offset="0" style="stop-color:#006AA6"/>
					<stop  offset="1" style="stop-color:#4A2D92"/>
				</linearGradient>
				
					<ellipse transform="matrix(0.7071 -0.7071 0.7071 0.7071 -307.1406 518.825)" class="st28" cx="472.7" cy="630.2" rx="25.3" ry="46.9"/>
				
					<linearGradient id="SVGID_23_" gradientUnits="userSpaceOnUse" x1="628.3279" y1="162.2492" x2="623.8379" y2="370.2093" gradientTransform="matrix(0.5515 -0.5515 -0.4455 -0.4455 322.9648 1037.6989)">
					<stop  offset="0" style="stop-color:#006AA6"/>
					<stop  offset="1" style="stop-color:#4A2D92"/>
				</linearGradient>
				
					<ellipse transform="matrix(0.7071 -0.7071 0.7071 0.7071 -244.1461 555.2091)" class="st29" cx="548.1" cy="572.3" rx="34.8" ry="64.5"/>
				
					<linearGradient id="SVGID_24_" gradientUnits="userSpaceOnUse" x1="779.3825" y1="116.5631" x2="773.2725" y2="399.1131" gradientTransform="matrix(0.5515 -0.5515 -0.4455 -0.4455 322.9605 1037.6993)">
					<stop  offset="0" style="stop-color:#006AA6"/>
					<stop  offset="1" style="stop-color:#4A2D92"/>
				</linearGradient>
				
					<ellipse transform="matrix(0.7071 -0.7071 0.7071 0.7071 -162.8225 593.2498)" class="st30" cx="634.7" cy="493.2" rx="47.4" ry="87.9"/>
			</g>
			<g id="étoile-2">
				<path class="st6" d="M194.7,628.7l-0.9-1.7c0,0-0.1-0.1-0.1-0.1l-1.7-0.9c-0.1-0.1-0.1-0.2-0.1-0.3c0,0,0.1-0.1,0.1-0.1l1.7-0.9
					c0,0,0.1-0.1,0.1-0.1l0.9-1.7c0.1-0.1,0.2-0.1,0.3-0.1c0,0,0.1,0.1,0.1,0.1l0.9,1.7c0,0,0.1,0.1,0.1,0.1l1.7,0.9
					c0.1,0.1,0.1,0.2,0.1,0.3c0,0-0.1,0.1-0.1,0.1l-1.7,0.9c0,0-0.1,0.1-0.1,0.1l-0.9,1.7C195.1,628.8,194.9,628.8,194.7,628.7
					C194.8,628.7,194.8,628.7,194.7,628.7z"/>
				<path class="st6" d="M519,725.6l-0.9-1.7c0,0-0.1-0.1-0.1-0.1l-1.7-0.9c-0.1-0.1-0.2-0.2-0.1-0.3c0,0,0.1-0.1,0.1-0.1l1.7-0.9
					c0,0,0.1-0.1,0.1-0.1l0.9-1.7c0.1-0.1,0.2-0.1,0.3-0.1c0,0,0.1,0.1,0.1,0.1l0.9,1.7c0,0,0.1,0.1,0.1,0.1l1.7,0.9
					c0.1,0.1,0.1,0.2,0.1,0.3c0,0-0.1,0.1-0.1,0.1l-1.7,0.9c0,0-0.1,0.1-0.1,0.1l-0.9,1.7C519.3,725.7,519.2,725.7,519,725.6
					C519.1,725.6,519,725.6,519,725.6z"/>
				<path class="st6" d="M10.4,419.3l-0.9-1.7c0,0-0.1-0.1-0.1-0.1l-1.7-0.9c-0.1-0.1-0.1-0.2-0.1-0.3c0,0,0.1-0.1,0.1-0.1l1.7-0.9
					c0,0,0.1-0.1,0.1-0.1l0.9-1.7c0.1-0.1,0.2-0.1,0.3-0.1c0,0,0.1,0.1,0.1,0.1l0.9,1.7c0,0,0.1,0.1,0.1,0.1l1.7,0.9
					c0.1,0.1,0.1,0.2,0.1,0.3c0,0-0.1,0.1-0.1,0.1l-1.7,0.9c0,0-0.1,0.1-0.1,0.1l-0.9,1.7c-0.1,0.1-0.2,0.2-0.3,0.1
					C10.4,419.4,10.4,419.4,10.4,419.3z"/>
				<path class="st6" d="M789.8,565.6l-0.9-1.7c0,0-0.1-0.1-0.1-0.1l-1.7-0.9c-0.1-0.1-0.1-0.2-0.1-0.3c0,0,0-0.1,0.1-0.1l1.7-0.9
					c0,0,0.1-0.1,0.1-0.1l0.9-1.7c0.1-0.1,0.2-0.1,0.3-0.1c0,0,0.1,0,0.1,0.1l0.9,1.7c0,0,0.1,0.1,0.1,0.1l1.7,0.9
					c0.1,0.1,0.1,0.2,0.1,0.3c0,0,0,0.1-0.1,0.1l-1.7,0.9c0,0-0.1,0.1-0.1,0.1l-0.9,1.7C790.1,565.7,790,565.7,789.8,565.6
					C789.8,565.6,789.8,565.6,789.8,565.6z"/>
				<path class="st6" d="M927.7,720l-0.9-1.7c0,0-0.1-0.1-0.1-0.1l-1.7-0.9c-0.1-0.1-0.1-0.2-0.1-0.3c0,0,0-0.1,0.1-0.1l1.7-0.9
					c0,0,0.1-0.1,0.1-0.1l0.9-1.7c0.1-0.1,0.2-0.1,0.3-0.1c0,0,0.1,0,0.1,0.1l0.9,1.7c0,0,0.1,0.1,0.1,0.1l1.7,0.9
					c0.1,0.1,0.1,0.2,0.1,0.3c0,0,0,0.1-0.1,0.1l-1.7,0.9c0,0-0.1,0.1-0.1,0.1l-0.9,1.7C928,720.1,927.9,720.1,927.7,720
					C927.7,720.1,927.7,720,927.7,720z"/>
				<path class="st6" d="M749.4,346.7l-0.9-1.7c0,0-0.1-0.1-0.1-0.1l-1.7-0.9c-0.1-0.1-0.1-0.2-0.1-0.3c0,0,0.1-0.1,0.1-0.1l1.7-0.9
					c0,0,0.1-0.1,0.1-0.1l0.9-1.7c0.1-0.1,0.2-0.1,0.3-0.1c0,0,0.1,0,0.1,0.1l0.9,1.7c0,0,0.1,0.1,0.1,0.1l1.7,0.9
					c0.1,0.1,0.1,0.2,0.1,0.3c0,0-0.1,0.1-0.1,0.1l-1.7,0.9c0,0-0.1,0.1-0.1,0.1l-0.9,1.7c-0.1,0.1-0.2,0.2-0.3,0.1
					C749.4,346.7,749.4,346.7,749.4,346.7z"/>
				<path class="st6" d="M109,724.5l-0.6-1c0,0,0,0-0.1-0.1l-1.1-0.6c-0.1,0-0.1-0.1-0.1-0.2c0,0,0,0,0.1-0.1l1.1-0.6
					c0,0,0.1,0,0.1-0.1l0.6-1c0-0.1,0.1-0.1,0.2-0.1c0,0,0,0,0.1,0.1l0.6,1l0.1,0.1l1,0.6c0.1,0,0.1,0.1,0.1,0.2c0,0,0,0-0.1,0.1
					l-1,0.6l-0.1,0.1l-0.6,1C109.2,724.6,109.1,724.6,109,724.5C109,724.6,109,724.5,109,724.5z"/>
				<path class="st6" d="M39.5,642l-0.3-0.5l0,0l-0.5-0.3c0,0,0-0.1,0-0.1c0,0,0,0,0,0l0.5-0.3l0,0l0.3-0.5c0,0,0.1,0,0.1,0
					c0,0,0,0,0,0l0.3,0.5l0,0l0.5,0.3c0,0,0,0.1,0,0.1c0,0,0,0,0,0l-0.5,0.3l0,0l-0.3,0.5C39.6,642,39.6,642,39.5,642
					C39.6,642,39.5,642,39.5,642z"/>
				<path class="st6" d="M284.7,431.6l-0.3-0.5l0,0l-0.5-0.3c0,0,0-0.1,0-0.1c0,0,0,0,0,0l0.5-0.3l0,0l0.3-0.5c0,0,0.1,0,0.1,0
					c0,0,0,0,0,0l0.3,0.5l0,0l0.5,0.3c0,0,0,0.1,0,0.1c0,0,0,0,0,0l-0.5,0.3l0,0l-0.3,0.5C284.8,431.6,284.8,431.6,284.7,431.6
					C284.7,431.6,284.7,431.6,284.7,431.6z"/>
				<path class="st6" d="M300.8,634.6l-0.3-0.5l0,0l-0.5-0.3c0,0,0-0.1,0-0.1c0,0,0,0,0,0l0.5-0.3l0,0l0.3-0.5c0,0,0.1,0,0.1,0
					c0,0,0,0,0,0l0.3,0.5l0,0l0.5,0.3c0,0,0,0.1,0,0.1c0,0,0,0,0,0l-0.5,0.3l0,0l-0.3,0.5C300.9,634.6,300.9,634.7,300.8,634.6
					C300.8,634.6,300.8,634.6,300.8,634.6z"/>
				<path class="st6" d="M740.9,458.6l-0.3-0.5l0,0l-0.5-0.3c0,0,0-0.1,0-0.1c0,0,0,0,0,0l0.5-0.3l0,0l0.3-0.5c0,0,0.1,0,0.1,0
					c0,0,0,0,0,0l0.3,0.5l0,0l0.5,0.3c0,0,0,0.1,0,0.1c0,0,0,0,0,0l-0.5,0.3l0,0l-0.3,0.5C741,458.7,740.9,458.7,740.9,458.6
					C740.9,458.7,740.9,458.7,740.9,458.6z"/>
				<path class="st6" d="M948.8,461.3l-0.3-0.5l0,0l-0.5-0.3c0,0,0-0.1,0-0.1c0,0,0,0,0,0l0.5-0.3l0,0l0.3-0.5c0,0,0.1,0,0.1,0
					c0,0,0,0,0,0l0.3,0.5l0,0l0.5,0.3c0,0,0,0.1,0,0.1c0,0,0,0,0,0l-0.5,0.3l0,0l-0.3,0.5C949,461.3,948.9,461.3,948.8,461.3
					C948.9,461.3,948.9,461.3,948.8,461.3z"/>
				<path class="st6" d="M834,623.7l-0.3-0.5l0,0l-0.5-0.3c0,0,0-0.1,0-0.1c0,0,0,0,0,0l0.5-0.3l0,0l0.3-0.5c0,0,0.1,0,0.1,0
					c0,0,0,0,0,0l0.3,0.5l0,0l0.5,0.3c0,0,0,0.1,0,0.1c0,0,0,0,0,0l-0.5,0.3l0,0l-0.3,0.5C834.1,623.7,834.1,623.7,834,623.7
					C834,623.7,834,623.7,834,623.7z"/>
				<path class="st6" d="M622.3,733.3l-0.3-0.5l0,0l-0.5-0.3c0,0,0-0.1,0-0.1c0,0,0,0,0,0l0.5-0.3l0,0l0.3-0.5c0,0,0.1,0,0.1,0
					c0,0,0,0,0,0l0.3,0.5l0,0l0.5,0.3c0,0,0,0.1,0,0.1c0,0,0,0,0,0l-0.5,0.3l0,0L622.3,733.3C622.4,733.3,622.4,733.3,622.3,733.3z"
					/>
				<path class="st6" d="M531.6,672.1l-0.3-0.5l0,0l-0.5-0.3c0,0,0-0.1,0-0.1c0,0,0,0,0,0l0.5-0.3l0,0l0.3-0.5c0,0,0.1,0,0.1,0
					c0,0,0,0,0,0l0.3,0.5l0,0l0.5,0.3c0,0,0,0.1,0,0.1c0,0,0,0,0,0l-0.5,0.3l0,0l-0.3,0.5C531.7,672.1,531.7,672.1,531.6,672.1
					C531.6,672.1,531.6,672.1,531.6,672.1z"/>
				<path class="st6" d="M336.1,743.9l-0.3-0.5l0,0l-0.5-0.3c0,0-0.1-0.1,0-0.1c0,0,0,0,0,0l0.5-0.3l0,0l0.3-0.5c0,0,0.1,0,0.1,0
					c0,0,0,0,0,0l0.3,0.5l0,0l0.5,0.3c0,0,0.1,0.1,0,0.1c0,0,0,0,0,0l-0.5,0.3l0,0l-0.3,0.5C336.2,744,336.1,744,336.1,743.9
					C336.1,743.9,336.1,743.9,336.1,743.9z"/>
				<path class="st6" d="M52.5,457.7l-0.3-0.5l0,0l-0.5-0.3c0,0,0-0.1,0-0.1c0,0,0,0,0,0l0.5-0.3l0,0l0.3-0.5c0,0,0.1,0,0.1,0
					c0,0,0,0,0,0l0.3,0.5l0,0l0.5,0.3c0,0,0,0.1,0,0.1c0,0,0,0,0,0l-0.5,0.3l0,0l-0.3,0.5C52.6,457.7,52.5,457.8,52.5,457.7
					C52.5,457.7,52.5,457.7,52.5,457.7z"/>
				<path class="st6" d="M380.5,684.3l-0.3-0.5l0,0l-0.5-0.3c0,0,0-0.1,0-0.1c0,0,0,0,0,0l0.5-0.3l0,0l0.3-0.5c0,0,0.1,0,0.1,0
					c0,0,0,0,0,0l0.3,0.5l0,0l0.5,0.3c0,0,0,0.1,0,0.1c0,0,0,0,0,0l-0.5,0.3l0,0l-0.3,0.5C380.6,684.3,380.6,684.3,380.5,684.3
					C380.5,684.3,380.5,684.3,380.5,684.3z"/>
				<path class="st6" d="M261.9,347.5l-0.6-1l-0.1-0.1l-1-0.6c-0.1,0-0.1-0.1-0.1-0.2c0,0,0,0,0.1-0.1l1-0.6l0.1-0.1l0.6-1
					c0-0.1,0.1-0.1,0.2-0.1c0,0,0.1,0,0.1,0.1l0.6,1c0,0,0,0.1,0.1,0.1l1,0.6c0.1,0,0.1,0.1,0.1,0.2c0,0,0,0-0.1,0.1l-1,0.6
					l-0.1,0.1l-0.6,1C262.1,347.6,262,347.6,261.9,347.5C262,347.5,261.9,347.5,261.9,347.5z"/>
				<path class="st6" d="M607.5,433.5l-0.6-1c0,0,0-0.1-0.1-0.1l-1-0.6c-0.1,0-0.1-0.1-0.1-0.2c0,0,0,0,0.1-0.1l1-0.6l0.1-0.1l0.6-1
					c0-0.1,0.1-0.1,0.2-0.1c0,0,0,0,0.1,0.1l0.6,1l0.1,0.1l1,0.6c0.1,0,0.1,0.1,0.1,0.2c0,0,0,0-0.1,0.1l-1,0.6l-0.1,0.1l-0.6,1
					C607.7,433.5,607.6,433.5,607.5,433.5C607.5,433.5,607.5,433.5,607.5,433.5z"/>
				<path class="st6" d="M646.8,612.9l-0.6-1c0,0,0-0.1-0.1-0.1l-1-0.6c-0.1,0-0.1-0.1-0.1-0.2c0,0,0-0.1,0.1-0.1l1-0.6l0.1-0.1
					l0.6-1c0-0.1,0.1-0.1,0.2-0.1c0,0,0,0,0.1,0.1l0.6,1l0.1,0.1l1,0.6c0.1,0,0.1,0.1,0.1,0.2c0,0,0,0-0.1,0.1l-1,0.6
					c0,0,0,0-0.1,0.1l-0.6,1C647,613,646.9,613,646.8,612.9C646.8,612.9,646.8,612.9,646.8,612.9z"/>
				<path class="st6" d="M927.8,546.6l-0.6-1l-0.1-0.1l-1-0.6c-0.1,0-0.1-0.1-0.1-0.2c0,0,0,0,0.1-0.1l1-0.6l0.1-0.1l0.6-1
					c0-0.1,0.1-0.1,0.2-0.1c0,0,0,0,0.1,0.1l0.6,1l0.1,0.1l1,0.6c0.1,0,0.1,0.1,0.1,0.2c0,0,0,0-0.1,0.1l-1,0.6c0,0-0.1,0-0.1,0.1
					l-0.6,1C928,546.7,927.9,546.7,927.8,546.6C927.8,546.7,927.8,546.7,927.8,546.6z"/>
				<path class="st6" d="M240,737l-0.6-1c0,0,0-0.1-0.1-0.1l-1-0.6c-0.1,0-0.1-0.1-0.1-0.2c0,0,0,0,0.1-0.1l1-0.6c0,0,0,0,0.1-0.1
					l0.6-1c0-0.1,0.1-0.1,0.2-0.1c0,0,0,0,0.1,0.1l0.6,1l0.1,0.1l1,0.6c0.1,0,0.1,0.1,0.1,0.2c0,0,0,0-0.1,0.1l-1,0.6
					c0,0,0,0-0.1,0.1l-0.6,1C240.2,737.1,240.1,737.1,240,737C240,737,240,737,240,737z"/>
				<path class="st6" d="M145.4,478.8l-0.6-1h-0.1l-1-0.6c-0.1,0-0.1-0.1-0.1-0.2c0,0,0,0,0.1-0.1l1-0.6l0.1,0l0.6-1
					c0-0.1,0.1-0.1,0.2-0.1c0,0,0,0,0.1,0.1l0.6,1c0,0,0,0,0.1,0l1.1,0.6c0.1,0,0.1,0.1,0.1,0.2c0,0,0,0-0.1,0.1l-1.1,0.6
					c0,0,0,0-0.1,0l-0.6,1C145.6,478.9,145.5,478.9,145.4,478.8C145.5,478.9,145.4,478.9,145.4,478.8z"/>
			</g>
			
				<linearGradient id="SVGID_25_" gradientUnits="userSpaceOnUse" x1="683.2" y1="219.5" x2="953.58" y2="219.5" gradientTransform="matrix(1 0 0 -1 0 1082)">
				<stop  offset="0.27" style="stop-color:#DAD1C0"/>
				<stop  offset="0.41" style="stop-color:#D6CEBE"/>
				<stop  offset="0.55" style="stop-color:#C9C5B7"/>
				<stop  offset="0.7" style="stop-color:#B4B6AC"/>
				<stop  offset="0.85" style="stop-color:#96A09C"/>
				<stop  offset="1" style="stop-color:#718588"/>
				<stop  offset="1" style="stop-color:#708588"/>
			</linearGradient>
			<path class="st31" d="M953.6,838.9V950H683.2c6.4-97.9,73.1-175,154.5-175C883.8,775,925.2,799.7,953.6,838.9z"/>
			<path class="st32" d="M775.3,940.9c-1-55.2,7.6-109.8,43.3-133.6c-4.3-0.2-43.7,1.5-60.1,4.5c-42,22.9-47.1,69.9-41.7,129
				L775.3,940.9z"/>
			<path class="st33" d="M852.9,812.3c-45.2,5.3-55.7,65.6-56.4,137.7h-9.7c-0.2-74,13.5-145.3,66.2-145.9V812.3z"/>
			<path class="st33" d="M758.5,811.8c16.4-3,55.8-4.7,60.1-4.5c-3.9,2.6-7.5,5.6-10.8,9l-48.9,2c-34.1,22.9-36.9,70.8-35,122.6
				h-7.1C711.3,881.7,716.4,834.7,758.5,811.8z"/>
			
				<linearGradient id="SVGID_26_" gradientUnits="userSpaceOnUse" x1="1160.8926" y1="289.5102" x2="1171.1726" y2="113.6302" gradientTransform="matrix(-1 0 0 -1 1942.96 1082)">
				<stop  offset="0.27" style="stop-color:#DAD1C0"/>
				<stop  offset="0.41" style="stop-color:#D6CEBE"/>
				<stop  offset="0.55" style="stop-color:#C9C5B7"/>
				<stop  offset="0.7" style="stop-color:#B4B6AC"/>
				<stop  offset="0.85" style="stop-color:#96A09C"/>
				<stop  offset="1" style="stop-color:#718588"/>
				<stop  offset="1" style="stop-color:#708588"/>
			</linearGradient>
			<path class="st34" d="M706.8,950h79.9c4.8-75.7,17.3-139.2,66.2-145.9c-35-3.7-62.7-4.8-98.3,1.9
				C703.9,832.7,700,886.4,706.8,950z M758.5,811.8c16.4-3,55.8-4.7,60.1-4.5c-35.6,23.7-44.3,78.3-43.3,133.6h-58.5
				C711.3,881.7,716.4,834.7,758.5,811.8L758.5,811.8z"/>
			<g id="loupe">
				<g>
					<defs>
						<path id="SVGID_27_" d="M762.7,938.5c2.2-55.1,14-109,50.9-130.6c-4.3-0.4-127.8-64.4-144.4-62.3
							c-43.2,20.4-146.7,84.7,35.2,189.6L762.7,938.5z"/>
					</defs>
					<clipPath id="SVGID_28_">
						<use xlink:href="#SVGID_27_"  style="overflow:visible;"/>
					</clipPath>
					<g class="st35">
						<g>
							<path class="st36" d="M757.2,948l16-18.2l9.2,4.8l4.8-6.2l-82.3-45.3l5,15.4l12,6.5l17.5,31.5L757.2,948z M754.2,943.8
								l-9.8-5.8l-10-27.5l29.8,14.5L754.2,943.8z"/>
							
								<linearGradient id="SVGID_29_" gradientUnits="userSpaceOnUse" x1="1135.8138" y1="235.457" x2="1174.0138" y2="164.757" gradientTransform="matrix(-1 -6.000000e-02 6.000000e-02 -1 1927.9899 1154.13)">
								<stop  offset="0" style="stop-color:#E2F0D5"/>
								<stop  offset="0" style="stop-color:#E1EFD4"/>
								<stop  offset="4.000000e-02" style="stop-color:#BBD2C0"/>
								<stop  offset="7.000000e-02" style="stop-color:#9BB9AF"/>
								<stop  offset="0.12" style="stop-color:#80A4A1"/>
								<stop  offset="0.16" style="stop-color:#6C9596"/>
								<stop  offset="0.21" style="stop-color:#5D8A8E"/>
								<stop  offset="0.27" style="stop-color:#558389"/>
								<stop  offset="0.37" style="stop-color:#528188"/>
								<stop  offset="1" style="stop-color:#DAD1C0"/>
							</linearGradient>
							<path class="st37" d="M647.7,853.6l223,122.4c30.5-14.9,44.5-34.5,36.3-61L692.3,778.5L647.7,853.6z"/>
							<path class="st38" d="M626.5,849.4l26.9,11.2c35.8-22.4,52.4-50.2,49.8-83.7L674,755C637,749.8,597,816.9,626.5,849.4z"/>
							
								<linearGradient id="SVGID_30_" gradientUnits="userSpaceOnUse" x1="1099.8323" y1="130.6423" x2="1099.8323" y2="224.2323" gradientTransform="matrix(-0.86 -0.51 0.51 -0.86 1525.84 1524.1899)">
								<stop  offset="0" style="stop-color:#4DA9A3"/>
								<stop  offset="1" style="stop-color:#004D5C"/>
							</linearGradient>
							<path class="st39" d="M626.5,849.4l26.9,11.2c35.8-22.4,52.4-50.2,49.8-83.7L674,755C681.7,798.1,668.1,831.1,626.5,849.4z"
								/>
							
								<linearGradient id="SVGID_31_" gradientUnits="userSpaceOnUse" x1="1036.5837" y1="220.3723" x2="1036.5837" y2="130.7123" gradientTransform="matrix(-0.86 -0.51 0.51 -0.86 1525.84 1524.1899)">
								<stop  offset="0" style="stop-color:#004D5C"/>
								<stop  offset="1" style="stop-color:#4DA9A3"/>
							</linearGradient>
							<path class="st40" d="M691.2,880.9l6.9,3.5c33.1-20.8,47.9-47,45.6-77.8l-7.6-4.8C736.5,837.6,722.4,859.5,691.2,880.9z"/>
							<path class="st36" d="M626.9,845.9c36.2-16.9,51.2-46.6,44.5-88.5c-15.8-0.4-34.2,13.8-44.6,34.8
								C618.9,808.3,615,830.4,626.9,845.9z"/>
							
								<linearGradient id="SVGID_32_" gradientUnits="userSpaceOnUse" x1="1111.4111" y1="106.8482" x2="1120.3412" y2="195.2882" gradientTransform="matrix(-0.86 -0.51 0.51 -0.86 1525.84 1524.1899)">
								<stop  offset="0" style="stop-color:#83F7C7"/>
								<stop  offset="0.18" style="stop-color:#4CDDC6"/>
								<stop  offset="0.37" style="stop-color:#15C2C4"/>
								<stop  offset="0.46" style="stop-color:#00B8C4"/>
								<stop  offset="0.5" style="stop-color:#04ABBB"/>
								<stop  offset="0.65" style="stop-color:#1186A0"/>
								<stop  offset="0.79" style="stop-color:#1A6C8D"/>
								<stop  offset="0.91" style="stop-color:#205C81"/>
								<stop  offset="1" style="stop-color:#22567D"/>
							</linearGradient>
							<path class="st41" d="M634.3,842.1c-2.9-33.1,7.3-62.8,38.5-72C674.6,802.5,661.7,826.7,634.3,842.1z"/>
							<path class="st38" d="M731.9,803.7c1.4-0.7,2.8-1.3,4.2-1.9c0.4,35.8-13.7,57.7-44.9,79.1l0,0c0-1.1,0.1-2.3,0.2-3.4
								C722.9,855.5,736.5,824.9,731.9,803.7z"/>
						</g>
					</g>
				</g>
			</g>
		</g>
	</g>
</g>
</svg>
