<?xml version="1.0" encoding="utf-8"?>
<!-- Generator: Adobe Illustrator 22.1.0, SVG Export Plug-In . SVG Version: 6.00 Build 0)  -->
<svg version="1.1" id="Calque_1" xmlns="http://www.w3.org/2000/svg" xmlns:xlink="http://www.w3.org/1999/xlink" x="0px" y="0px"
	 viewBox="0 0 976.8 1085" style="enable-background:new 0 0 976.8 1085;" xml:space="preserve">
<style type="text/css">
	.st0{fill:url(#fond_1_);}
	.st1{fill:#FFEDFF;}
	.st2{fill:#B7C2D3;}
	.st3{fill:url(#SVGID_1_);}
	.st4{fill:url(#SVGID_2_);}
	.st5{fill:url(#SVGID_3_);}
	.st6{fill:url(#SVGID_4_);}
	.st7{fill:url(#SVGID_5_);}
	.st8{fill:url(#SVGID_6_);}
	.st9{fill:url(#SVGID_7_);}
	.st10{fill:url(#SVGID_8_);}
	.st11{fill:url(#SVGID_9_);}
	.st12{opacity:0.3;fill:#47335D;enable-background:new    ;}
	.st13{opacity:0.5;fill:#47335D;enable-background:new    ;}
	.st14{fill:url(#SVGID_10_);}
	.st15{opacity:0.15;fill:#231F20;enable-background:new    ;}
	.st16{fill:#CC0066;}
	.st17{fill:url(#SVGID_11_);}
	.st18{fill:#006699;}
</style>
<title>space</title>
<g id="Calque_2_1_">
	<g id="Calque_3">
		
			<linearGradient id="fond_1_" gradientUnits="userSpaceOnUse" x1="500.0652" y1="3.8633" x2="483.5801" y2="766.7988" gradientTransform="matrix(1 0 0 -1 0 1086)">
			<stop  offset="0" style="stop-color:#006AA6"/>
			<stop  offset="1" style="stop-color:#4A2D92"/>
		</linearGradient>
		<rect id="fond" class="st0" width="976.8" height="1085"/>
		<g id="étoile">
			<path class="st1" d="M770.1,141.1l0.9,1.7c0,0,0.1,0.1,0.1,0.1l1.7,0.9c0.1,0.1,0.1,0.2,0.1,0.3c0,0,0,0.1-0.1,0.1l-1.7,0.9
				c0,0-0.1,0.1-0.1,0.1l-0.9,1.7c-0.1,0.1-0.2,0.1-0.3,0.1c0,0-0.1,0-0.1-0.1l-0.9-1.7c0,0-0.1-0.1-0.1-0.1l-1.7-0.9
				c-0.1-0.1-0.1-0.2-0.1-0.3c0,0,0-0.1,0.1-0.1l1.7-0.9c0,0,0.1-0.1,0.1-0.1l0.9-1.7C769.8,141,769.9,141,770.1,141.1
				C770.1,141.1,770.1,141.1,770.1,141.1z"/>
			<path class="st1" d="M445.9,44.2l0.9,1.7c0,0,0.1,0.1,0.1,0.1l1.7,0.9c0.1,0.1,0.1,0.2,0.1,0.3c0,0,0,0.1-0.1,0.1l-1.7,0.9
				c0,0-0.1,0.1-0.1,0.1l-0.9,1.7c-0.1,0.1-0.2,0.1-0.3,0.1c0,0-0.1-0.1-0.1-0.1l-0.9-1.7c0,0-0.1-0.1-0.1-0.1l-1.7-0.9
				c-0.1-0.1-0.1-0.2-0.1-0.3c0,0,0-0.1,0.1-0.1l1.7-0.9c0,0,0.1-0.1,0.1-0.1l0.9-1.7C445.5,44.1,445.7,44.1,445.9,44.2
				C445.8,44.1,445.9,44.2,445.9,44.2z"/>
			<path class="st1" d="M954.5,350.5l0.9,1.7c0,0,0.1,0.1,0.1,0.1l1.7,0.9c0.1,0.1,0.1,0.2,0.1,0.3c0,0,0,0.1-0.1,0.1l-1.7,0.9
				c0,0-0.1,0.1-0.1,0.1l-0.9,1.7c-0.1,0.1-0.2,0.1-0.3,0.1c0,0-0.1,0-0.1-0.1l-0.9-1.7c0,0-0.1-0.1-0.1-0.1l-1.7-0.9
				c-0.1-0.1-0.1-0.2-0.1-0.3c0,0,0-0.1,0.1-0.1l1.7-0.9c0,0,0.1-0.1,0.1-0.1l0.9-1.7C954.1,350.4,954.3,350.3,954.5,350.5
				C954.4,350.4,954.5,350.4,954.5,350.5z"/>
			<path class="st1" d="M175.1,204.2l0.9,1.7c0,0,0.1,0.1,0.1,0.1l1.7,0.9c0.1,0.1,0.1,0.2,0.1,0.3c0,0-0.1,0.1-0.1,0.1l-1.7,0.9
				c0,0-0.1,0.1-0.1,0.1l-0.9,1.7c-0.1,0.1-0.2,0.1-0.3,0.1c0,0-0.1-0.1-0.1-0.1l-0.9-1.7c0,0-0.1-0.1-0.1-0.1l-1.7-0.9
				c-0.1-0.1-0.1-0.2-0.1-0.3c0,0,0.1-0.1,0.1-0.1l1.7-0.9c0,0,0.1-0.1,0.1-0.1l0.9-1.7C174.7,204.1,174.9,204.1,175.1,204.2
				C175,204.1,175.1,204.2,175.1,204.2z"/>
			<path class="st1" d="M37.2,49.8l0.9,1.7c0,0,0.1,0.1,0.1,0.1l1.7,0.9c0.1,0.1,0.1,0.2,0.1,0.3c0,0,0,0.1-0.1,0.1l-1.7,0.9
				c0,0-0.1,0.1-0.1,0.1l-0.9,1.7c-0.1,0.1-0.2,0.1-0.3,0.1c0,0-0.1,0-0.1-0.1l-0.9-1.7c0,0-0.1-0.1-0.1-0.1l-1.7-0.9
				C34,52.8,34,52.7,34,52.5c0,0,0-0.1,0.1-0.1l1.7-0.9c0,0,0.1-0.1,0.1-0.1l0.9-1.7C36.8,49.7,37,49.7,37.2,49.8
				C37.1,49.7,37.2,49.8,37.2,49.8z"/>
			<path class="st1" d="M215.5,423.1l0.9,1.7c0,0,0.1,0.1,0.1,0.1l1.7,0.9c0.1,0.1,0.1,0.2,0.1,0.3c0,0,0,0.1-0.1,0.1l-1.7,0.9
				c0,0-0.1,0.1-0.1,0.1l-0.9,1.7c-0.1,0.1-0.2,0.1-0.3,0.1c0,0-0.1,0-0.1-0.1l-0.9-1.7c0,0-0.1-0.1-0.1-0.1l-1.7-0.9
				c-0.1-0.1-0.1-0.2-0.1-0.3c0,0,0-0.1,0.1-0.1l1.7-0.9l0.1-0.1l0.9-1.7C215.1,423,215.3,423,215.5,423.1
				C215.4,423,215.4,423.1,215.5,423.1z"/>
			<path class="st1" d="M855.8,45.3l0.6,1h0.1l1,0.6c0.1,0,0.1,0.1,0.1,0.2c0,0,0,0-0.1,0.1l-1,0.6h-0.1l-0.6,1
				c0,0.1-0.1,0.1-0.2,0.1c0,0,0,0-0.1-0.1l-0.6-0.9c0,0,0,0-0.1,0l-1-0.6c-0.1,0-0.1-0.1-0.1-0.2c0,0,0,0,0.1-0.1l1-0.6
				c0,0,0,0,0.1,0l0.6-1c0-0.1,0-0.2,0.1-0.2C855.7,45.2,855.8,45.2,855.8,45.3z"/>
			<path class="st1" d="M925.3,127.8l0.3,0.5l0,0l0.5,0.3c0,0,0.1,0.1,0,0.1c0,0,0,0,0,0l-0.5,0.3l0,0l-0.3,0.5c0,0-0.1,0-0.1,0
				c0,0,0,0,0,0l-0.3-0.5l0,0l-0.5-0.3c0,0-0.1-0.1,0-0.1c0,0,0,0,0,0l0.5-0.3l0,0l0.3-0.5C925.2,127.8,925.3,127.8,925.3,127.8
				C925.3,127.8,925.3,127.8,925.3,127.8z"/>
			<path class="st1" d="M680.1,338.2l0.3,0.5l0,0l0.5,0.3c0,0,0,0.1,0,0.1c0,0,0,0,0,0l-0.5,0.3l0,0l-0.3,0.5c0,0-0.1,0-0.1,0
				c0,0,0,0,0,0l-0.3-0.5l0,0l-0.5-0.3c0,0,0-0.1,0-0.1c0,0,0,0,0,0l0.5-0.3l0,0l0.3-0.5C680,338.2,680.1,338.1,680.1,338.2
				C680.1,338.2,680.1,338.2,680.1,338.2z"/>
			<path class="st1" d="M664,135.2l0.3,0.5l0,0l0.5,0.3c0,0,0.1,0.1,0,0.1c0,0,0,0,0,0l-0.5,0.3l0,0L664,137c0,0-0.1,0.1-0.1,0
				c0,0,0,0,0,0l-0.3-0.5l0,0l-0.5-0.3c0,0,0-0.1,0-0.1c0,0,0,0,0,0l0.5-0.3l0,0l0.3-0.5c0,0,0-0.1,0-0.1
				C663.9,135.1,664,135.1,664,135.2z"/>
			<path class="st1" d="M224,311.1l0.3,0.5l0,0l0.5,0.3c0,0,0,0.1,0,0.1c0,0,0,0,0,0l-0.5,0.3l0,0L224,313c0,0-0.1,0-0.1,0
				c0,0,0,0,0,0l-0.3-0.5l0,0l-0.5-0.3c0,0,0-0.1,0-0.1c0,0,0,0,0,0l0.5-0.3l0,0l0.3-0.5c0,0,0-0.1,0-0.1S224,311.1,224,311.1
				L224,311.1z"/>
			<path class="st1" d="M16,308.5l0.3,0.5l0,0l0.5,0.3c0,0,0.1,0,0.1,0.1c0,0,0,0.1-0.1,0.1l-0.5,0.3l0,0l-0.3,0.5
				c0,0-0.1,0.1-0.1,0c0,0,0,0,0,0l-0.3-0.5l0,0l-0.5-0.3c0,0,0-0.1,0-0.1c0,0,0,0,0,0l0.5-0.3l0,0l0.3-0.5
				C15.9,308.5,15.9,308.4,16,308.5C16,308.5,16,308.5,16,308.5z"/>
			<path class="st1" d="M130.9,146.1l0.3,0.5l0,0l0.5,0.3c0,0,0,0.1,0,0.1c0,0,0,0,0,0l-0.5,0.3l0,0l-0.3,0.5c0,0-0.1,0-0.1,0
				c0,0,0,0,0,0l-0.3-0.5l0,0l-0.5-0.3c0,0,0-0.1,0-0.1c0,0,0,0,0,0l0.5-0.3l0,0l0.3-0.5C130.8,146.1,130.8,146,130.9,146.1
				C130.9,146.1,130.9,146.1,130.9,146.1z"/>
			<path class="st1" d="M342.5,36.5l0.3,0.5l0,0l0.5,0.3c0,0,0,0.1,0,0.1c0,0,0,0,0,0l-0.5,0.3l0,0l-0.3,0.5c0,0-0.1,0-0.1,0
				c0,0,0,0,0,0l-0.3-0.5l0,0l-0.5-0.3c0,0,0-0.1,0-0.1c0,0,0,0,0,0l0.5-0.3l0,0l0.3-0.5C342.4,36.5,342.5,36.5,342.5,36.5
				C342.5,36.5,342.5,36.5,342.5,36.5z"/>
			<path class="st1" d="M433.2,97.7l0.3,0.5l0,0l0.5,0.3c0,0,0,0.1,0,0.1c0,0,0,0,0,0l-0.5,0.3l0,0l-0.3,0.5c0,0-0.1,0-0.1,0
				c0,0,0,0,0,0l-0.3-0.5l0,0l-0.5-0.3c0,0,0-0.1,0-0.1c0,0,0,0,0,0l0.5-0.3l0,0l0.3-0.5C433.1,97.7,433.2,97.7,433.2,97.7
				C433.2,97.7,433.2,97.7,433.2,97.7z"/>
			<path class="st1" d="M628.8,25.9l0.3,0.5l0,0l0.5,0.3c0,0,0,0.1,0,0.1c0,0,0,0,0,0l-0.5,0.3l0,0l-0.3,0.5c0,0-0.1,0-0.1,0
				c0,0,0,0,0,0l-0.3-0.5l0,0l-0.5-0.3c0,0,0-0.1,0-0.1c0,0,0,0,0,0l0.5-0.3l0,0l0.3-0.5C628.7,25.8,628.7,25.8,628.8,25.9
				C628.8,25.8,628.8,25.9,628.8,25.9z"/>
			<path class="st1" d="M912.4,312.1l0.3,0.5l0,0l0.5,0.3c0,0,0,0.1,0,0.1c0,0,0,0,0,0l-0.5,0.3l0,0l-0.3,0.5c0,0-0.1,0-0.1,0
				c0,0,0,0,0,0l-0.3-0.5l0,0l-0.5-0.3c0,0,0-0.1,0-0.1c0,0,0,0,0,0l0.5-0.3l0,0l0.3-0.5C912.3,312,912.3,312,912.4,312.1
				C912.4,312.1,912.4,312.1,912.4,312.1z"/>
			<path class="st1" d="M584.4,85.5l0.3,0.5l0,0l0.5,0.3c0,0,0,0.1,0,0.1c0,0,0,0,0,0l-0.5,0.3l0,0l-0.3,0.5c0,0-0.1,0-0.1,0
				c0,0,0,0,0,0l-0.3-0.5l0,0l-0.5-0.3c0,0,0-0.1,0-0.1c0,0,0,0,0,0l0.5-0.3l0,0l0.3-0.5C584.2,85.5,584.3,85.4,584.4,85.5
				C584.3,85.5,584.4,85.5,584.4,85.5z"/>
			<path class="st1" d="M702.9,422.3l0.6,1c0,0,0,0,0,0.1l1,0.6c0.1,0,0.1,0.1,0.1,0.2c0,0,0,0-0.1,0.1l-1,0.6v0.1l-0.6,1
				c0,0.1-0.1,0.1-0.2,0.1c0,0,0,0-0.1-0.1l-0.6-1c0,0,0,0-0.1-0.1l-1-0.6c-0.1,0-0.1-0.1-0.1-0.2c0,0,0,0,0.1-0.1l1-0.6
				c0,0,0.1,0,0.1-0.1l0.6-1C702.7,422.2,702.8,422.2,702.9,422.3C702.9,422.2,702.9,422.3,702.9,422.3z"/>
			<path class="st1" d="M357.3,336.3l0.6,1l0.1,0.1l1,0.6c0.1,0,0.1,0.1,0.1,0.2c0,0,0,0-0.1,0.1l-1,0.6c0,0,0,0-0.1,0.1l-0.6,1
				c0,0.1-0.1,0.1-0.2,0.1c0,0,0,0-0.1-0.1l-0.6-1c0,0,0-0.1-0.1-0.1l-1-0.6c-0.1,0-0.1-0.1-0.1-0.2c0,0,0,0,0.1-0.1l1-0.6
				c0,0,0,0,0.1-0.1l0.6-1C357.1,336.3,357.2,336.2,357.3,336.3C357.3,336.3,357.3,336.3,357.3,336.3z"/>
			<path class="st1" d="M318.1,156.9l0.6,1c0,0,0,0,0.1,0.1l1,0.6c0.1,0,0.1,0.1,0.1,0.2c0,0,0,0-0.1,0.1l-1,0.6c0,0-0.1,0-0.1,0.1
				l-0.6,1.1c0,0.1-0.1,0.1-0.2,0.1c0,0,0,0-0.1-0.1l-0.6-1.1c0,0,0,0-0.1-0.1l-1-0.6c-0.1,0-0.1-0.1-0.1-0.2c0,0,0,0,0.1-0.1l1-0.6
				l0.1-0.1l0.6-1C317.9,156.8,317.9,156.8,318.1,156.9C318,156.9,318.1,156.9,318.1,156.9z"/>
			<path class="st1" d="M37.1,223.1l0.6,1v0.1l1,0.6c0.1,0,0.1,0.1,0.1,0.2c0,0,0,0-0.1,0.1l-1,0.6c0,0,0,0,0,0.1l-0.6,1.1
				c0,0.1-0.1,0.1-0.2,0.1c0,0,0,0-0.1-0.1l-0.6-1.1c0,0,0,0,0-0.1l-1-0.6c-0.1,0-0.1-0.1-0.1-0.2c0,0,0,0,0.1-0.1l1-0.6v-0.1l0.6-1
				C36.9,223.1,37,223.1,37.1,223.1C37.1,223.1,37.1,223.1,37.1,223.1z"/>
			<path class="st1" d="M724.9,32.8l0.6,1c0,0,0,0,0.1,0.1l1,0.6c0.1,0,0.1,0.1,0.1,0.2c0,0,0,0-0.1,0.1l-1,0.6c0,0-0.1,0-0.1,0.1
				l-0.6,1c0,0.1-0.1,0.1-0.2,0.1c0,0,0,0-0.1-0.1l-0.6-1l-0.1-0.1l-1-0.6c-0.1,0-0.1-0.1-0.1-0.2c0,0,0,0,0.1-0.1l1-0.6l0.1-0.1
				l0.6-1C724.7,32.7,724.7,32.7,724.9,32.8C724.9,32.7,724.9,32.8,724.9,32.8z"/>
			<path class="st1" d="M819.4,291l0.6,1l0.1,0.1l1,0.6c0.1,0,0.1,0.1,0.1,0.2c0,0,0,0-0.1,0.1l-1,0.6l-0.1,0.1l-0.6,1
				c0,0.1-0.1,0.1-0.2,0.1c0,0,0,0-0.1-0.1l-0.6-1l-0.1-0.1l-1-0.6c-0.1,0-0.1-0.1-0.1-0.2c0,0,0,0,0.1-0.1l1-0.6c0,0,0.1,0,0.1-0.1
				l0.6-1C819.2,290.9,819.3,290.9,819.4,291C819.4,290.9,819.4,291,819.4,291z"/>
		</g>
		<g id="étoile-2">
			<path class="st1" d="M261.8,857.6l-1.5-1.2h-0.1l-1.9-0.2c-0.1,0-0.2-0.1-0.2-0.3c0,0,0-0.1,0-0.1l1.2-1.5c0,0,0-0.1,0-0.1
				l0.2-1.9c0-0.1,0.1-0.2,0.3-0.2c0,0,0.1,0,0.1,0.1l1.5,1.2c0,0,0.1,0,0.1,0l1.9,0.2c0.1,0,0.2,0.1,0.2,0.3c0,0,0,0.1,0,0.1
				l-1.2,1.5c0,0,0,0.1,0,0.1l-0.2,1.9C262.1,857.6,262,857.7,261.8,857.6C261.9,857.6,261.9,857.6,261.8,857.6z"/>
			<path class="st1" d="M598.7,824.8l-1.5-1.2c0,0-0.1,0-0.1,0l-1.9-0.2c-0.1,0-0.2-0.1-0.2-0.3c0,0,0-0.1,0.1-0.1l1.2-1.5
				c0,0,0-0.1,0-0.1l0.2-1.9c0-0.1,0.1-0.2,0.3-0.2c0,0,0.1,0,0.1,0l1.5,1.2c0,0,0.1,0,0.1,0l1.9,0.2c0.1,0,0.2,0.1,0.2,0.3
				c0,0,0,0.1,0,0.1l-1.2,1.5c0,0,0,0.1,0,0.1l-0.2,1.9c0,0.1-0.1,0.2-0.2,0.3C598.8,824.8,598.7,824.8,598.7,824.8z"/>
			<path class="st1" d="M12,733.5l-1.5-1.2c0,0-0.1,0-0.1,0l-1.9-0.2c-0.1,0-0.2-0.1-0.2-0.3c0,0,0-0.1,0-0.1l1.2-1.5
				c0,0,0-0.1,0.1-0.1l0.2-1.9c0-0.1,0.1-0.2,0.3-0.2c0,0,0.1,0,0.1,0l1.5,1.2h0.1l1.9,0.2c0.1,0,0.2,0.1,0.2,0.2
				c0,0.1,0,0.1-0.1,0.1l-1.2,1.5c0,0,0,0.1-0.1,0.1l-0.2,1.9c0,0.1-0.1,0.2-0.2,0.3C12.1,733.6,12,733.6,12,733.5z"/>
			<path class="st1" d="M788.9,574.3l-1.5-1.2c0,0-0.1,0-0.1-0.1l-1.9-0.2c-0.1,0-0.2-0.1-0.2-0.3c0,0,0-0.1,0-0.1l1.2-1.5
				c0,0,0-0.1,0-0.1l0.2-1.9c0-0.1,0.1-0.2,0.3-0.2c0,0,0.1,0,0.1,0.1l1.5,1.2h0.1l1.9,0.2c0.1,0,0.2,0.1,0.2,0.3c0,0,0,0.1-0.1,0.1
				l-1.2,1.5c0,0,0,0.1,0,0.1l-0.2,1.9c0,0.1-0.1,0.2-0.2,0.2C789,574.3,788.9,574.3,788.9,574.3z"/>
			<path class="st1" d="M974.9,665.1l-1.5-1.2c0,0-0.1,0-0.1,0l-1.9-0.2c-0.1,0-0.2-0.1-0.2-0.3c0,0,0-0.1,0.1-0.1l1.2-1.5
				c0,0,0-0.1,0-0.1l0.2-1.9c0-0.1,0.1-0.2,0.3-0.2c0,0,0.1,0,0.1,0.1l1.5,1.2c0,0,0.1,0,0.1,0l1.9,0.2c0.1,0,0.2,0.1,0.2,0.3
				c0,0,0,0.1,0,0.1l-1.2,1.5c0,0,0,0.1,0,0.1l-0.2,1.9C975.3,665.1,975.1,665.2,974.9,665.1C975,665.1,974.9,665.1,974.9,665.1z"/>
			<path class="st1" d="M668.7,386.9l-1.5-1.2c0,0-0.1,0-0.1,0l-1.9-0.2c-0.1,0-0.2-0.1-0.2-0.3c0,0,0-0.1,0.1-0.1l1.2-1.5
				c0,0,0-0.1,0-0.1l0.2-1.9c0-0.1,0.1-0.2,0.3-0.2c0,0,0.1,0,0.1,0l1.5,1.2c0,0,0.1,0,0.1,0l1.9,0.2c0.1,0,0.2,0.1,0.2,0.3
				c0,0,0,0.1,0,0.1l-1.2,1.5c0,0,0,0.1,0,0.1l-0.2,1.9c0,0.1-0.1,0.2-0.2,0.3C668.8,386.9,668.8,386.9,668.7,386.9z"/>
			<path class="st1" d="M218.7,978.8l-0.9-0.8h-0.1l-1.2-0.1c-0.1,0-0.1-0.1-0.1-0.1c0,0,0-0.1,0-0.1l0.8-0.9c0,0,0-0.1,0-0.1
				l0.1-1.2c0-0.1,0.1-0.1,0.2-0.1c0,0,0.1,0,0.1,0l0.9,0.8c0,0,0.1,0,0.1,0l1.2,0.1c0.1,0,0.1,0.1,0.1,0.1c0,0,0,0.1,0,0.1
				l-0.8,0.9c0,0,0,0.1,0,0.1l-0.1,1.2C219,978.8,218.9,978.8,218.7,978.8C218.8,978.8,218.8,978.8,218.7,978.8z"/>
			<path class="st1" d="M123.2,928.6l-0.5-0.4l0,0l-0.6-0.1c0,0,0-0.1,0-0.1c0,0,0,0,0,0l0.4-0.5l0,0l0.1-0.6c0,0,0.1,0,0.1,0
				c0,0,0,0,0,0l0.5,0.4l0,0l0.6,0.1c0,0,0.1,0,0.1,0.1c0,0,0,0,0,0l-0.4,0.5l0,0l-0.1,0.6c0,0,0,0.1-0.1,0.1
				C123.3,928.7,123.2,928.7,123.2,928.6z"/>
			<path class="st1" d="M270.7,641.2l-0.5-0.4l0,0l-0.6-0.1c0,0-0.1,0-0.1-0.1c0,0,0,0,0-0.1l0.4-0.5l0,0l0.1-0.6c0,0,0.1,0,0.1,0
				c0,0,0,0,0,0l0.5,0.4l0,0l0.6,0.1c0,0,0.1,0.1,0.1,0.1c0,0,0,0,0,0l-0.4,0.5l0,0l-0.1,0.6C270.8,641.2,270.7,641.2,270.7,641.2
				C270.7,641.2,270.7,641.2,270.7,641.2z"/>
			<path class="st1" d="M362.3,823l-0.5-0.4l0,0l-0.6-0.1c0,0-0.1,0-0.1-0.1c0,0,0,0,0-0.1l0.4-0.5l0,0l0.1-0.6c0,0,0,0,0.1,0
				c0,0,0,0,0,0l0.5,0.4l0,0l0.6,0.1c0,0,0.1,0,0.1,0.1c0,0,0,0,0,0l-0.4,0.5l0,0l-0.1,0.6C362.4,823,362.3,823,362.3,823z"/>
			<path class="st1" d="M703.2,493.8l-0.5-0.4l0,0l-0.6-0.1c0,0,0,0,0-0.1c0,0,0,0,0,0l0.4-0.5l0,0l0.1-0.6c0-0.1,0.1-0.1,0.1,0
				l0.5,0.4l0,0l0.6,0.1c0,0,0,0.1,0,0.1c0,0,0,0,0,0l-0.4,0.5l0,0l-0.1,0.6C703.2,493.8,703.2,493.8,703.2,493.8
				C703.2,493.8,703.2,493.8,703.2,493.8z"/>
			<path class="st1" d="M896.7,417.6l-0.5-0.4l0,0l-0.6-0.1c0,0-0.1-0.1-0.1-0.1c0,0,0,0,0,0l0.4-0.5l0,0l0.1-0.6c0,0,0.1,0,0.1,0
				c0,0,0,0,0,0l0.5,0.4l0,0l0.6,0.1c0,0,0,0.1,0,0.1c0,0,0,0,0,0l-0.4,0.5l0,0L896.7,417.6C896.8,417.6,896.7,417.6,896.7,417.6z"
				/>
			<path class="st1" d="M851.8,611.3l-0.5-0.4l0,0l-0.6-0.1c0,0,0-0.1,0-0.1c0,0,0,0,0,0l0.4-0.5l0,0l0.1-0.6c0,0,0,0,0.1,0
				c0,0,0,0,0,0l0.5,0.4l0,0l0.6,0.1c0.1,0,0.1,0.1,0,0.1l-0.4,0.5l0,0l-0.1,0.6C851.9,611.4,851.9,611.4,851.8,611.3
				C851.8,611.4,851.8,611.4,851.8,611.3z"/>
			<path class="st1" d="M697.2,792.8l-0.5-0.4l0,0l-0.6-0.1c0,0,0-0.1,0-0.1c0,0,0,0,0,0l0.4-0.5l0,0l0.1-0.6c0,0,0.1,0,0.1,0
				c0,0,0,0,0,0l0.5,0.4l0,0l0.6,0.1c0,0,0.1,0,0.1,0.1c0,0,0,0,0,0l-0.4,0.5l0,0l-0.1,0.6C697.4,792.8,697.4,792.9,697.2,792.8
				C697.3,792.9,697.2,792.9,697.2,792.8L697.2,792.8z"/>
			<path class="st1" d="M590.1,770.5l-0.5-0.4l0,0L589,770c0,0,0-0.1,0-0.1c0,0,0,0,0,0l0.4-0.5l0,0l0.1-0.6c0,0,0.1-0.1,0.1,0
				l0.5,0.4l0,0l0.6,0.1c0,0,0.1,0,0.1,0.1c0,0,0,0,0,0.1l-0.4,0.5l0,0l-0.1,0.6C590.2,770.5,590.2,770.5,590.1,770.5z"/>
			<path class="st1" d="M436.3,910.9l-0.5-0.4l0,0l-0.6-0.1c0,0-0.1-0.1-0.1-0.1c0,0,0,0,0,0l0.4-0.5l0,0l0.1-0.6c0,0,0.1,0,0.1,0
				c0,0,0,0,0,0l0.5,0.4l0,0l0.6,0.1c0,0,0.1,0,0.1,0.1c0,0,0,0,0,0l-0.4,0.5l0,0l-0.1,0.6C436.4,910.9,436.3,910.9,436.3,910.9
				C436.3,910.9,436.3,910.9,436.3,910.9z"/>
			<path class="st1" d="M65.5,753.1l-0.5-0.4l0,0l-0.6-0.1c0,0,0-0.1,0-0.1c0,0,0,0,0,0l0.4-0.5l0,0l0.1-0.6c0,0,0.1-0.1,0.1-0.1
				c0,0,0,0,0,0l0.5,0.4l0,0l0.6,0.1c0,0,0,0.1,0,0.1c0,0,0,0,0,0l-0.4,0.5l0,0l-0.1,0.6C65.6,753.1,65.6,753.2,65.5,753.1
				C65.6,753.2,65.5,753.2,65.5,753.1L65.5,753.1z"/>
			<path class="st1" d="M454.9,838.9l-0.5-0.4l0,0l-0.6-0.1c0,0,0,0,0-0.1c0,0,0,0,0,0l0.4-0.5l0,0l0.1-0.6c0,0,0-0.1,0.1-0.1
				c0,0,0,0,0,0l0.5,0.4l0,0l0.6,0.1c0,0,0.1,0.1,0.1,0.1c0,0,0,0,0,0l-0.4,0.5l0,0l-0.1,0.6c0,0,0,0.1-0.1,0.1
				C454.9,839,454.9,838.9,454.9,838.9z"/>
			<path class="st1" d="M217.7,571.9l-0.9-0.8c0,0-0.1,0-0.1,0l-1.2-0.1c-0.1,0-0.1-0.1-0.1-0.1c0,0,0-0.1,0-0.1l0.8-0.9
				c0,0,0-0.1,0-0.1l0.1-1.2c0-0.1,0.1-0.1,0.2-0.1c0,0,0.1,0,0.1,0l0.9,0.8c0,0,0.1,0,0.1,0l1.2,0.1c0.1,0,0.1,0.1,0.1,0.2
				c0,0,0,0.1,0,0.1l-0.8,0.9c0,0,0,0.1,0,0.1l-0.1,1.2C218,571.9,217.9,572,217.7,571.9C217.8,572,217.8,571.9,217.7,571.9z"/>
			<path class="st1" d="M570.2,520.8l-0.9-0.8h-0.1L568,520c-0.1,0-0.1-0.1-0.1-0.2c0,0,0-0.1,0-0.1l0.8-0.9c0,0,0,0,0-0.1l0.1-1.2
				c0-0.1,0.1-0.1,0.2-0.1c0,0,0.1,0,0.1,0l0.9,0.8c0,0,0,0,0.1,0l1.2,0.1c0.1,0,0.1,0.1,0.1,0.2c0,0,0,0.1,0,0.1l-0.8,0.9v0.1
				l-0.1,1.2C570.4,520.8,570.3,520.9,570.2,520.8C570.2,520.9,570.2,520.9,570.2,520.8z"/>
			<path class="st1" d="M674.4,672.1l-0.9-0.8c0,0,0,0-0.1,0l-1.2-0.1c-0.1,0-0.1-0.1-0.1-0.1c0,0,0-0.1,0-0.1l0.8-0.9
				c0,0,0-0.1,0-0.1l0.1-1.2c0-0.1,0.1-0.1,0.2-0.1c0,0,0.1,0,0.1,0l0.9,0.8c0,0,0,0,0.1,0l1.2,0.1c0.1,0,0.1,0.1,0.1,0.2
				c0,0,0,0.1,0,0.1l-0.8,0.9c0,0,0,0.1,0,0.1l-0.1,1.2C674.6,672.1,674.5,672.2,674.4,672.1C674.4,672.1,674.4,672.1,674.4,672.1z"
				/>
			<path class="st1" d="M909.5,504.5l-0.9-0.8c0,0,0,0-0.1,0l-1.2-0.1c-0.1,0-0.1-0.1-0.1-0.2c0,0,0-0.1,0-0.1l0.8-0.9
				c0,0,0-0.1,0-0.1l0.1-1.2c0-0.1,0.1-0.1,0.2-0.1c0,0,0,0,0.1,0l0.9,0.8c0,0,0,0,0.1,0l1.2,0.1c0.1,0,0.1,0.1,0.1,0.1
				c0,0,0,0.1,0,0.1l-0.8,0.9c0,0,0,0.1,0,0.1l-0.1,1.2C909.7,504.5,909.6,504.6,909.5,504.5C909.5,504.6,909.5,504.6,909.5,504.5z"
				/>
			<path class="st1" d="M344.7,940.8l-0.9-0.8c0,0,0,0-0.1,0l-1.2-0.1c-0.1,0-0.1-0.1-0.1-0.2c0,0,0-0.1,0-0.1l0.8-0.9v-0.1l0.1-1.2
				c0-0.1,0.1-0.1,0.2-0.1c0,0,0.1,0,0.1,0l0.9,0.8h0.1l1.2,0.1c0.1,0,0.1,0.1,0.1,0.2c0,0,0,0.1,0,0.1l-0.8,0.9c0,0,0,0,0,0.1
				l-0.1,1.2C344.9,940.8,344.8,940.9,344.7,940.8C344.7,940.9,344.7,940.8,344.7,940.8z"/>
			<path class="st1" d="M159.6,737.6l-0.9-0.8c0,0-0.1,0-0.1,0l-1.2-0.1c-0.1,0-0.1-0.1-0.1-0.2c0,0,0-0.1,0-0.1l0.8-0.9
				c0,0,0-0.1,0-0.1l0.1-1.2c0-0.1,0.1-0.1,0.2-0.1c0,0,0.1,0,0.1,0l0.9,0.8c0,0,0.1,0,0.1,0l1.2,0.1c0.1,0,0.1,0.1,0.1,0.1
				c0,0,0,0.1,0,0.1l-0.8,0.9c0,0,0,0.1,0,0.1l-0.1,1.2C159.8,737.5,159.7,737.6,159.6,737.6C159.6,737.6,159.6,737.6,159.6,737.6z"
				/>
		</g>
		<g id="étoile-3">
			<path class="st1" d="M195.8,787.9V786c0,0,0-0.1,0-0.1l-1-1.6c-0.1-0.1,0-0.2,0.1-0.3c0,0,0.1,0,0.1,0h1.9c0,0,0.1,0,0.1,0l1.6-1
				c0.1-0.1,0.2,0,0.3,0.1c0,0,0,0.1,0,0.1v1.9c0,0,0,0.1,0,0.1l1,1.6c0.1,0.1,0,0.2-0.1,0.3c0,0-0.1,0-0.1,0h-1.9c0,0-0.1,0-0.1,0
				l-1.6,1c-0.1,0.1-0.2,0.1-0.3,0C195.8,788,195.8,788,195.8,787.9z"/>
			<path class="st1" d="M437.1,1025.2v-1.9c0,0,0-0.1,0-0.1l-1-1.6c-0.1-0.1,0-0.2,0.1-0.3c0,0,0.1,0,0.1,0h1.9h0.1l1.6-1
				c0.1-0.1,0.2,0,0.3,0.1c0,0,0,0.1,0,0.1v1.9c0,0,0,0.1,0,0.1l1,1.6c0.1,0.1,0,0.2-0.1,0.3c0,0-0.1,0-0.1,0h-1.9c0,0-0.1,0-0.1,0
				l-1.6,1c-0.1,0.1-0.3,0-0.3-0.1C437.1,1025.2,437.1,1025.2,437.1,1025.2z"/>
			<path class="st1" d="M130.6,516.7v-1.9c0,0,0-0.1,0-0.1l-1.1-1.6c-0.1-0.1,0-0.2,0.1-0.3c0,0,0.1,0,0.1,0h1.9c0,0,0.1,0,0.1,0
				l1.6-1c0.1-0.1,0.2,0,0.3,0.1c0,0,0,0.1,0,0.1v1.9c0,0,0,0.1,0,0.1l1,1.6c0.1,0.1,0,0.2-0.1,0.3c0,0-0.1,0-0.1,0h-1.9
				c0,0-0.1,0-0.1,0l-1.6,1C130.8,516.9,130.7,516.8,130.6,516.7C130.6,516.7,130.6,516.7,130.6,516.7z"/>
			<path class="st1" d="M751.3,1010.3v-1.9c0,0,0-0.1,0-0.1l-1-1.6c-0.1-0.1,0-0.2,0.1-0.3c0,0,0.1,0,0.1,0h1.9c0,0,0.1,0,0.1,0
				l1.6-1c0.1-0.1,0.2,0,0.3,0.1c0,0,0,0.1,0,0.1v1.9c0,0,0,0.1,0,0.1l1,1.6c0.1,0.1,0,0.3-0.1,0.3c0,0-0.1,0-0.1,0h-1.9
				c0,0-0.1,0-0.1,0l-1.6,1c-0.1,0.1-0.2,0-0.3-0.1C751.3,1010.4,751.3,1010.3,751.3,1010.3z"/>
			<path class="st1" d="M817.9,797.9V796c0,0,0-0.1,0-0.1l-1-1.6c-0.1-0.1,0-0.2,0.1-0.3c0,0,0.1,0,0.1,0h1.9h0.1l1.6-1
				c0.1-0.1,0.2,0,0.3,0.1c0,0,0,0.1,0,0.1v1.9c0,0,0,0.1,0,0.1l1,1.6c0.1,0.1,0,0.2-0.1,0.3c0,0-0.1,0-0.1,0L820,797
				c0,0-0.1,0-0.1,0l-1.6,1c-0.1,0.1-0.3,0.1-0.3,0C817.9,798,817.9,797.9,817.9,797.9z"/>
			<path class="st1" d="M75.2,832.6v-1.2c0,0,0-0.1,0-0.1l-0.7-1c0-0.1,0-0.2,0-0.2c0,0,0.1,0,0.1,0h1.2c0,0,0.1,0,0.1,0l1-0.7
				c0.1,0,0.2,0,0.2,0c0,0,0,0,0,0.1v1.2c0,0,0,0.1,0,0.1l0.7,1c0,0.1,0,0.2,0,0.2c0,0-0.1,0-0.1,0h-1.2h-0.1l-1,0.7
				C75.3,832.8,75.3,832.8,75.2,832.6C75.2,832.7,75.2,832.6,75.2,832.6z"/>
			<path class="st1" d="M52.3,727.2v-0.6l0,0L52,726c0,0,0-0.1,0-0.1c0,0,0,0,0,0h0.6l0,0l0.5-0.3c0,0,0.1,0,0.1,0c0,0,0,0,0,0v0.6
				l0,0l0.3,0.5c0,0,0,0.1,0,0.1c0,0,0,0,0,0H53l-0.5,0.3C52.5,727.2,52.5,727.2,52.3,727.2C52.4,727.2,52.3,727.2,52.3,727.2z"/>
			<path class="st1" d="M367.4,655.8v-0.6l0,0l-0.3-0.5c0,0,0-0.1,0-0.1c0,0,0,0,0,0h0.6l0.5-0.3c0,0,0.1,0,0.1,0c0,0,0,0,0,0v0.6
				l0,0l0.3,0.5c0,0,0,0.1,0,0.1c0,0,0,0,0,0h-0.6l0,0l-0.5,0.3c0,0-0.1,0.1-0.1,0C367.4,655.9,367.4,655.8,367.4,655.8z"/>
			<path class="st1" d="M286.8,842.8v-0.6l0,0l-0.3-0.5c0,0,0-0.1,0-0.1c0,0,0,0,0,0h0.6l0.5-0.3c0,0,0.1,0,0.1,0c0,0,0,0,0,0.1v0.6
				l0,0l0.3,0.5c0,0,0,0.1,0,0.1c0,0,0,0,0,0h-0.6l-0.5,0.3C286.9,842.8,286.8,842.8,286.8,842.8z"/>
			<path class="st1" d="M758,892.9v-0.6l0,0l-0.3-0.5c0,0,0-0.1,0-0.1c0,0,0,0,0,0h0.6l0.5-0.3c0,0,0.1,0,0.1,0c0,0,0,0,0,0v0.6l0,0
				l0.3,0.5c0,0,0,0.1,0,0.1c0,0,0,0,0,0h-0.6l-0.5,0.3C758.1,893,758,893,758,892.9C758,892.9,758,892.9,758,892.9z"/>
			<path class="st1" d="M940.7,992.4v-0.6l0,0l-0.3-0.5c0,0,0-0.1,0-0.1c0,0,0,0,0,0h0.6l0,0l0.5-0.3c0,0,0.1,0,0.1,0c0,0,0,0,0,0
				v0.6l0.3,0.5c0,0,0,0.1,0,0.1c0,0,0,0,0,0h-0.6L940.7,992.4C940.7,992.5,940.6,992.5,940.7,992.4
				C940.6,992.4,940.6,992.4,940.7,992.4z"/>
			<path class="st1" d="M763.2,1082.3v-0.6l-0.3-0.5c0,0,0-0.1,0-0.1c0,0,0,0,0,0h0.6l0.5-0.3c0,0,0.1,0,0.1,0c0,0,0,0,0,0v0.6l0,0
				l0.3,0.5c0,0,0,0.1,0,0.1c0,0,0,0,0,0h-0.6l0,0l-0.5,0.3C763.3,1082.4,763.3,1082.4,763.2,1082.3
				C763.2,1082.4,763.2,1082.4,763.2,1082.3z"/>
			<path class="st1" d="M524.9,1080.2v-0.6l0,0l-0.3-0.5c0,0,0-0.1,0-0.1c0,0,0,0,0,0h0.6l0.5-0.3c0,0,0.1,0,0.1,0c0,0,0,0,0,0v0.6
				l0,0l0.3,0.5c0,0,0,0.1,0,0.1c0,0,0,0,0,0h-0.6l0,0l-0.5,0.3c0,0.1-0.1,0.1-0.1,0.1C524.9,1080.4,524.9,1080.3,524.9,1080.2
				L524.9,1080.2z"/>
			<path class="st1" d="M473.3,983.8v-0.6l-0.3-0.5c0,0,0-0.1,0-0.1c0,0,0,0,0,0h0.6l0.5-0.3c0,0,0.1,0,0.1,0c0,0,0,0,0,0v0.6l0,0
				l0.3,0.5c0,0,0,0.1,0,0.1c0,0,0,0,0,0h-0.6l-0.5,0.3C473.4,983.8,473.3,983.8,473.3,983.8C473.3,983.8,473.3,983.8,473.3,983.8z"
				/>
			<path class="st1" d="M266.8,955.9v-0.6l0,0l-0.3-0.5c0,0,0-0.1,0-0.1c0,0,0,0,0,0h0.6l0.5-0.3c0,0,0.1,0,0.1,0c0,0,0,0,0,0v0.6
				l0,0l0.3,0.5c0,0,0,0.1,0,0.1c0,0,0,0,0,0h-0.6l-0.5,0.3C266.9,956,266.9,956,266.8,955.9C266.8,955.9,266.8,955.9,266.8,955.9z"
				/>
			<path class="st1" d="M149.9,570.3v-0.6l0,0l-0.3-0.5c0,0,0-0.1,0-0.1c0,0,0,0,0,0h0.6l0.5-0.3c0,0,0.1,0,0.1,0c0,0,0,0,0,0v0.6
				l0,0l0.3,0.5c0,0,0,0.1,0,0.1c0,0,0,0,0,0h-0.6l-0.5,0.3C150,570.4,149.9,570.4,149.9,570.3C149.9,570.3,149.9,570.3,149.9,570.3
				z"/>
			<path class="st1" d="M334,923.9v-0.6l0,0l-0.3-0.5c0,0,0-0.1,0-0.1c0,0,0,0,0,0h0.6l0.5-0.3c0,0,0.1,0,0.1,0c0,0,0,0,0,0v0.5l0,0
				l0.3,0.5c0,0,0,0.1-0.1,0.1h-0.6l0,0l-0.5,0.3C334.2,924,334.1,924,334,923.9C334,924,334,924,334,923.9z"/>
			<path class="st1" d="M386.6,570.8v-1.2c0,0,0-0.1,0-0.1l-0.7-1c0-0.1,0-0.2,0-0.2c0,0,0,0,0.1,0h1.2c0,0,0.1,0,0.1,0l1-0.7
				c0.1,0,0.2,0,0.2,0c0,0,0,0,0,0.1v1.2c0,0,0,0.1,0,0.1l0.7,1c0,0.1,0,0.2,0,0.2c0,0,0,0-0.1,0h-1.2c0,0-0.1,0-0.1,0l-1,0.7
				C386.7,570.9,386.6,570.9,386.6,570.8C386.6,570.8,386.6,570.8,386.6,570.8z"/>
			<path class="st1" d="M651.9,808.3v-1.2c0,0,0-0.1,0-0.1l-0.7-1c0-0.1,0-0.2,0-0.2c0,0,0,0,0.1,0h1.2c0,0,0.1,0,0.1,0l1-0.7
				c0.1,0,0.2,0,0.2,0c0,0,0,0.1,0,0.1v1.2c0,0,0,0.1,0,0.1l0.7,1c0.1,0.1,0,0.1,0,0.2c0,0-0.1,0-0.1,0h-1.2h-0.1l-1,0.7
				C652.1,808.4,652,808.4,651.9,808.3C651.9,808.3,651.9,808.3,651.9,808.3z"/>
			<path class="st1" d="M602.8,985.3v-1.2c0,0,0,0,0-0.1l-0.7-1c0-0.1,0-0.2,0-0.2c0,0,0,0,0.1,0h1.2h0.1l1-0.7c0.1,0,0.2,0,0.2,0
				c0,0,0,0,0,0.1v1.2c0,0,0,0.1,0,0.1l0.7,1c0,0.1,0,0.2,0,0.2c0,0,0,0-0.1,0h-1.2H604l-1,0.7c-0.1,0-0.2,0-0.2,0
				C602.8,985.3,602.8,985.3,602.8,985.3z"/>
			<path class="st1" d="M882.1,1058v-1.2c0,0,0-0.1,0-0.1l-0.7-1c0-0.1,0-0.2,0-0.2c0,0,0.1,0,0.1,0h1.2h0.1l1-0.7
				c0.1,0,0.2,0,0.2,0c0,0,0,0,0,0.1v1.2c0,0,0,0.1,0,0.1l0.7,1c0,0.1,0,0.2,0,0.2c0,0-0.1,0-0.1,0h-1.2h-0.1l-1,0.7
				C882.3,1058.2,882.2,1058.1,882.1,1058C882.1,1058.1,882.1,1058,882.1,1058z"/>
			<path class="st1" d="M185.1,904.8v-1.2c0,0,0-0.1,0-0.1l-0.7-1c0-0.1,0-0.2,0-0.2c0,0,0.1,0,0.1,0h1.2h0.1l1-0.7
				c0.1,0,0.2,0,0.2,0c0,0,0,0,0,0.1v1.2c0,0,0,0.1,0,0.1l0.7,1c0,0.1,0,0.2,0,0.2c0,0-0.1,0-0.1,0h-1.2c0,0-0.1,0-0.1,0l-1,0.7
				C185.2,905,185.2,905,185.1,904.8C185.1,904.9,185.1,904.8,185.1,904.8z"/>
			<path class="st1" d="M222.2,632.4v-1.2c0,0,0-0.1,0-0.1l-0.6-1c-0.1-0.1,0-0.1,0-0.2c0,0,0.1,0,0.1,0h1.2h0.1l1-0.7
				c0.1,0,0.2,0,0.2,0c0,0,0,0.1,0,0.1v1.2c0,0,0,0.1,0,0.1l0.7,1c0,0.1,0,0.2,0,0.2c0,0,0,0-0.1,0h-1.2c0,0-0.1,0-0.1,0l-1,0.7
				C222.4,632.6,222.3,632.6,222.2,632.4C222.2,632.5,222.2,632.4,222.2,632.4z"/>
		</g>
		<circle class="st2" cx="495.3" cy="298" r="5"/>
		<circle class="st2" cx="595.5" cy="176" r="2.5"/>
		<circle class="st2" cx="317.3" cy="789" r="5"/>
		<circle class="st2" cx="417.5" cy="667" r="2.5"/>
		<circle class="st2" cx="747.8" cy="193.6" r="5"/>
		<circle class="st2" cx="819.8" cy="334.1" r="2.5"/>
		<circle class="st2" cx="656.5" cy="1001.2" r="5"/>
		<circle class="st2" cx="807.1" cy="1048.7" r="2.5"/>
		<circle class="st2" cx="114.4" cy="1048.9" r="5"/>
		<circle class="st2" cx="269.5" cy="1019.3" r="2.5"/>
		<circle class="st2" cx="461.3" cy="492" r="5"/>
		<g>
			
				<linearGradient id="SVGID_1_" gradientUnits="userSpaceOnUse" x1="85.698" y1="224.1052" x2="291.8946" y2="224.1052" gradientTransform="matrix(0.9988 4.954705e-02 4.954705e-02 -0.9988 -56.0276 1053.8158)">
				<stop  offset="0" style="stop-color:#300D5D"/>
				<stop  offset="1" style="stop-color:#006AA6;stop-opacity:0"/>
			</linearGradient>
			<path class="st3" d="M251,756L71.1,936.2c-8.3,7.8-21.3,7.4-29.1-0.8l0,0c-7.8-8.3-7.4-21.3,0.8-29.1L233,736.9L251,756z"/>
			
				<linearGradient id="SVGID_2_" gradientUnits="userSpaceOnUse" x1="39.3794" y1="279.4537" x2="216.4094" y2="279.4537" gradientTransform="matrix(1 -2.000000e-02 -2.000000e-02 -1 5.89 1131.89)">
				<stop  offset="0" style="stop-color:#FF3FA5"/>
				<stop  offset="0.32" style="stop-color:#1CB797;stop-opacity:0.68"/>
				<stop  offset="0.99" style="stop-color:#006AA6;stop-opacity:0"/>
			</linearGradient>
			<path class="st4" d="M217.3,777.4L61.7,929.3c-4.3,4.1-11.1,3.9-15.2-0.4l0,0c-4.1-4.3-3.9-11.1,0.4-15.2l161-146.2L217.3,777.4z
				"/>
		</g>
		<g>
			
				<linearGradient id="SVGID_3_" gradientUnits="userSpaceOnUse" x1="-87.1021" y1="-621.4714" x2="24.6879" y2="-621.4714" gradientTransform="matrix(-1.35 -0.16 -0.63 1.23 -60.72 977.48)">
				<stop  offset="0" style="stop-color:#300D5D"/>
				<stop  offset="1" style="stop-color:#4A2D92;stop-opacity:0"/>
			</linearGradient>
			<path class="st5" d="M269.2,268.5l189.2-111.2c8.5-4.8,18.2-3.9,21.5,2l0,0c3.3,5.9-0.9,14.6-9.5,19.4L276.8,282.1L269.2,268.5z"
				/>
			
				<linearGradient id="SVGID_4_" gradientUnits="userSpaceOnUse" x1="-194.8401" y1="-555.1268" x2="-98.8801" y2="-555.1268" gradientTransform="matrix(-1.39 -7.000000e-02 -0.53 1.23 -107.25 884.6401)">
				<stop  offset="0" style="stop-color:#7E3FFF"/>
				<stop  offset="0.4" style="stop-color:#2ADD90"/>
				<stop  offset="0.99" style="stop-color:#4A2D92;stop-opacity:0"/>
			</linearGradient>
			<path class="st6" d="M300.9,255.9l162.4-93.5c4.5-2.5,9.5-2,11.2,1.1l0,0c1.7,3.1-0.5,7.6-5,10.1L304.9,263L300.9,255.9z"/>
		</g>
		<g>
			
				<linearGradient id="SVGID_5_" gradientUnits="userSpaceOnUse" x1="267.7393" y1="797.0745" x2="488.918" y2="797.0745" gradientTransform="matrix(2.390878e-02 0.9997 0.9997 -2.390878e-02 -67.3182 109.9706)">
				<stop  offset="0" style="stop-color:#300D5D"/>
				<stop  offset="1" style="stop-color:#006AA6;stop-opacity:0"/>
			</linearGradient>
			<path class="st7" d="M836.2,577.4l-207-178.3c-9-8.2-9.6-22.2-1.4-31.2c0,0,0,0,0,0l0,0c8.2-9,22.2-9.6,31.2-1.4l196.1,190.1
				L836.2,577.4z"/>
			
				<linearGradient id="SVGID_6_" gradientUnits="userSpaceOnUse" x1="262.5967" y1="835.6337" x2="452.3963" y2="835.6337" gradientTransform="matrix(9.601951e-02 0.9954 0.9954 -9.601951e-02 -139.7464 180.1829)">
				<stop  offset="0" style="stop-color:#15F5FF"/>
				<stop  offset="0.33" style="stop-color:#2ADD90"/>
				<stop  offset="0.99" style="stop-color:#006AA6;stop-opacity:0"/>
			</linearGradient>
			<path class="st8" d="M810.6,543L636,388.5c-4.7-4.3-5-11.6-0.7-16.3l0,0c4.3-4.7,11.6-5,16.3-0.7l169,160.7L810.6,543z"/>
		</g>
		
			<linearGradient id="SVGID_7_" gradientUnits="userSpaceOnUse" x1="115.7176" y1="167.5934" x2="370.0976" y2="-22.2966" gradientTransform="matrix(1 0 0 -1 0 1086)">
			<stop  offset="0" style="stop-color:#006AA6"/>
			<stop  offset="0.11" style="stop-color:#0364A0;stop-opacity:0.95"/>
			<stop  offset="0.28" style="stop-color:#0B5391;stop-opacity:0.83"/>
			<stop  offset="0.51" style="stop-color:#183779;stop-opacity:0.62"/>
			<stop  offset="0.77" style="stop-color:#2B1257;stop-opacity:0.34"/>
			<stop  offset="0.8" style="stop-color:#2D0D53;stop-opacity:0.3"/>
		</linearGradient>
		<path class="st9" d="M336.8,1038.9c-5.5,17.5-15.3,33.4-28.6,46.1H157.4c-43.5-41.6-44.9-110.6-3.3-154.1
			c41.6-43.5,110.6-44.9,154.1-3.3C338.1,956.2,349.2,999.4,336.8,1038.9z"/>
		
			<linearGradient id="SVGID_8_" gradientUnits="userSpaceOnUse" x1="119.2435" y1="163.8313" x2="365.8235" y2="-20.2488" gradientTransform="matrix(1 0 0 -1 0 1086)">
			<stop  offset="0" style="stop-color:#006AA6"/>
			<stop  offset="0.11" style="stop-color:#0364A0;stop-opacity:0.95"/>
			<stop  offset="0.28" style="stop-color:#0B5391;stop-opacity:0.83"/>
			<stop  offset="0.51" style="stop-color:#183779;stop-opacity:0.62"/>
			<stop  offset="0.77" style="stop-color:#2B1257;stop-opacity:0.34"/>
			<stop  offset="0.8" style="stop-color:#2D0D53;stop-opacity:0.3"/>
		</linearGradient>
		<path class="st10" d="M333.6,1038.9c-5.5,17.7-15.6,33.6-29.2,46.1H161.2c-42.9-39.5-45.7-106.4-6.2-149.3s106.4-45.7,149.3-6.2
			C334.4,957.3,345.8,999.9,333.6,1038.9z"/>
	</g>
	<g id="galaxy">
		
			<linearGradient id="SVGID_9_" gradientUnits="userSpaceOnUse" x1="0" y1="892.0099" x2="272.61" y2="892.0099" gradientTransform="matrix(1 0 0 -1 0 1086)">
			<stop  offset="0" style="stop-color:#486BED"/>
			<stop  offset="0.32" style="stop-color:#404CBD"/>
			<stop  offset="0.78" style="stop-color:#35227C"/>
			<stop  offset="1" style="stop-color:#311163"/>
		</linearGradient>
		<path class="st11" d="M272.6,194c0,97.2-78.8,176-176,176c-34.3,0-67.9-10-96.6-28.9V46.8C81.2-6.5,190.4,16.1,243.7,97.4
			C262.6,126.1,272.6,159.7,272.6,194z"/>
		<g>
			<circle class="st12" cx="694.2" cy="689.5" r="224"/>
			<circle class="st13" cx="694.2" cy="689.5" r="220"/>
			<g>
				
					<linearGradient id="SVGID_10_" gradientUnits="userSpaceOnUse" x1="478.82" y1="396.48" x2="909.58" y2="396.48" gradientTransform="matrix(1 0 0 -1 0 1086)">
					<stop  offset="0" style="stop-color:#486BED"/>
					<stop  offset="0.32" style="stop-color:#404CBD"/>
					<stop  offset="0.78" style="stop-color:#35227C"/>
					<stop  offset="1" style="stop-color:#311163"/>
				</linearGradient>
				<circle class="st14" cx="694.2" cy="689.5" r="215.4"/>
				<path class="st15" d="M790.7,497c51,40.9,80.6,102.7,80.5,168c0,119-96.4,215.4-215.4,215.4c-33.5,0-66.5-7.8-96.5-22.8
					c38.2,30.7,85.8,47.4,134.8,47.3c119,0,215.4-96.4,215.4-215.4C909.6,608,863.6,533.5,790.7,497z"/>
				<ellipse class="st15" cx="622.9" cy="560.2" rx="10.8" ry="12.5"/>
				<ellipse class="st15" cx="808.8" cy="712.6" rx="10.8" ry="12.5"/>
				<path class="st15" d="M537.1,701.1c0,3.5-2.4,6.2-5.4,6.2s-5.4-2.8-5.4-6.2s2.4-6.2,5.4-6.2S537.1,697.6,537.1,701.1z"/>
				<ellipse class="st15" cx="689.6" cy="758.1" rx="5.4" ry="6.2"/>
				<path class="st15" d="M710.9,739.5c0,2.7-1.9,4.9-4.2,4.9s-4.2-2.2-4.2-4.9s1.9-4.9,4.2-4.9S710.9,736.8,710.9,739.5z"/>
				<path class="st15" d="M555.8,689.7c-0.2,1.5-1.6,2.5-3.1,2.3c-1.5-0.2-2.5-1.6-2.3-3.1c0.2-1.3,1.3-2.3,2.7-2.3
					C554.7,686.7,555.9,688.1,555.8,689.7z"/>
				<ellipse class="st15" cx="527.5" cy="736.4" rx="2.7" ry="3.1"/>
				<ellipse class="st15" cx="780.3" cy="734.3" rx="6.1" ry="7"/>
				<ellipse class="st15" cx="665.4" cy="635.5" rx="5.7" ry="6.5"/>
				<path class="st15" d="M653.8,646.8c-0.3,1.8-1.9,3-3.7,2.7c-1.8-0.3-3-1.9-2.7-3.7c0.2-1.6,1.6-2.8,3.2-2.8
					C652.5,643.3,653.9,644.9,653.8,646.8z"/>
				<path class="st15" d="M695.3,636.4c-3.3-1.4-5-4.9-3.8-7.7s4.9-4.1,8.2-2.7s5,4.9,3.8,7.8S698.7,637.8,695.3,636.4z"/>
				<path class="st15" d="M691.7,616c-1.5-0.9-2-2.9-1.1-4.4c0.9-1.5,2.9-2,4.4-1.1c1.4,0.8,1.9,2.6,1.3,4
					C695.4,616.2,693.3,616.9,691.7,616z"/>
				<path class="st15" d="M633.8,845.2c0,3.9-2.7,7-6.1,7s-6.1-3.2-6.1-7s2.7-7,6.1-7S633.8,841.3,633.8,845.2z"/>
				<path class="st15" d="M788.2,546.3c0,3.3-2.3,6-5.2,6s-5.2-2.7-5.2-6s2.3-6,5.2-6S788.2,543,788.2,546.3z"/>
				<path class="st15" d="M780.6,565.4c-0.2,1.4-1.5,2.5-3,2.3c-1.4-0.2-2.5-1.5-2.3-3c0.2-1.3,1.3-2.3,2.6-2.3
					C779.5,562.5,780.7,563.9,780.6,565.4z"/>
				<ellipse class="st15" cx="764.6" cy="842.1" rx="5.4" ry="6.2"/>
				<path class="st15" d="M785.9,823.5c0,2.7-1.9,4.9-4.2,4.9s-4.2-2.2-4.2-4.9s1.9-4.9,4.2-4.9S785.9,820.8,785.9,823.5z"/>
				<path class="st15" d="M703.8,602.9c-0.2,1.4-1.5,2.5-3,2.3c-1.4-0.2-2.5-1.5-2.3-3c0.2-1.3,1.3-2.3,2.6-2.3
					C702.7,600.1,703.9,601.4,703.8,602.9z"/>
			</g>
			<g>
				<ellipse class="st16" cx="103.3" cy="108.1" rx="6.1" ry="7"/>
				<ellipse class="st16" cx="207.3" cy="193.5" rx="6.1" ry="7"/>
				<path class="st16" d="M55.2,187c-0.2,1.7-1.8,2.8-3.5,2.6c-1.7-0.2-2.8-1.8-2.6-3.5c0.2-1.5,1.5-2.6,3.1-2.6
					C54,183.7,55.4,185.2,55.2,187z"/>
				<ellipse class="st16" cx="140.6" cy="218.9" rx="3" ry="3.5"/>
				<path class="st16" d="M152.5,208.5c-0.2,1.3-1.4,2.2-2.7,2c-1.3-0.2-2.2-1.4-2-2.7c0.2-1.2,1.2-2,2.4-2
					C151.6,205.9,152.6,207.1,152.5,208.5z"/>
				<path class="st16" d="M65.7,180.6c-0.1,0.8-0.9,1.4-1.7,1.3s-1.4-0.9-1.3-1.7c0.1-0.8,0.8-1.3,1.5-1.3
					C65.1,179,65.8,179.7,65.7,180.6C65.7,180.6,65.7,180.6,65.7,180.6z"/>
				<ellipse class="st16" cx="49.9" cy="206.8" rx="1.5" ry="1.8"/>
				<ellipse class="st16" cx="191.4" cy="205.6" rx="3.4" ry="3.9"/>
				<ellipse class="st16" cx="127.1" cy="150.3" rx="3.2" ry="3.7"/>
				<path class="st16" d="M120.6,156.6c-0.1,1-1.1,1.7-2.1,1.5c-1-0.1-1.7-1.1-1.5-2.1c0.1-0.9,0.9-1.6,1.8-1.5
					C119.8,154.6,120.6,155.6,120.6,156.6z"/>
				<path class="st16" d="M143.8,150.8c-1.5-0.9-2-2.9-1.1-4.4c0.9-1.5,2.9-2,4.4-1.1c1.4,0.8,1.9,2.5,1.3,4
					C147.6,151,145.5,151.6,143.8,150.8z"/>
				<path class="st16" d="M141.8,139.4c-0.9-0.5-1.1-1.6-0.6-2.5c0.5-0.9,1.6-1.1,2.5-0.6c0.8,0.5,1.1,1.4,0.7,2.3
					C143.9,139.5,142.7,139.8,141.8,139.4C141.8,139.4,141.8,139.4,141.8,139.4z"/>
				<path class="st16" d="M109.4,267.7c-0.3,1.9-2.1,3.2-4,2.9c-1.9-0.3-3.2-2.1-2.9-4c0.3-1.7,1.7-2.9,3.4-2.9
					C108,263.8,109.6,265.6,109.4,267.7C109.4,267.6,109.4,267.6,109.4,267.7z"/>
				<path class="st16" d="M195.8,100.3c-0.2,1.6-1.7,2.8-3.3,2.6c-1.6-0.2-2.8-1.7-2.6-3.3c0.2-1.5,1.5-2.7,3-2.7
					C194.6,97.1,195.9,98.6,195.8,100.3z"/>
				<path class="st16" d="M191.6,111.1c-0.1,0.8-0.9,1.4-1.7,1.3c-0.8-0.1-1.4-0.9-1.3-1.7c0.1-0.7,0.7-1.3,1.5-1.3
					C191,109.4,191.6,110.2,191.6,111.1z"/>
				<ellipse class="st16" cx="182.6" cy="265.9" rx="3" ry="3.5"/>
				<path class="st16" d="M194.5,255.5c-0.2,1.3-1.4,2.2-2.7,2c-1.3-0.2-2.2-1.4-2-2.7c0.2-1.2,1.2-2,2.4-2
					C193.6,252.9,194.6,254.1,194.5,255.5z"/>
				<path class="st16" d="M148.6,132.1c-0.1,0.8-0.9,1.4-1.7,1.3c-0.8-0.1-1.4-0.9-1.3-1.7c0.1-0.7,0.7-1.3,1.5-1.3
					C148,130.4,148.6,131.2,148.6,132.1z"/>
			</g>
		</g>
		
			<linearGradient id="SVGID_11_" gradientUnits="userSpaceOnUse" x1="-49.6263" y1="1070.7831" x2="279.0337" y2="681.7531" gradientTransform="matrix(1 0 0 -1 0 1086)">
			<stop  offset="0" style="stop-color:#FF543C"/>
			<stop  offset="8.000000e-02" style="stop-color:#FF4B40"/>
			<stop  offset="0.21" style="stop-color:#FF3349"/>
			<stop  offset="0.38" style="stop-color:#FF0D59"/>
			<stop  offset="0.42" style="stop-color:#FF005E"/>
			<stop  offset="0.57" style="stop-color:#B0055F;stop-opacity:0.75"/>
			<stop  offset="0.73" style="stop-color:#610A60;stop-opacity:0.5"/>
			<stop  offset="0.8" style="stop-color:#420C60;stop-opacity:0.4"/>
			<stop  offset="1" style="stop-color:#2D0D53;stop-opacity:0"/>
		</linearGradient>
		<path class="st17" d="M268.2,194.4c-0.3,94.2-76.8,170.3-171,170.1c-34.8-0.1-68.7-10.8-97.2-30.8V54.3
			c77.2-54,183.5-35.1,237.4,42C257.5,125.1,268.3,159.4,268.2,194.4z"/>
		<path class="st12" d="M278.5,194.5c0,99.8-81,180.8-180.8,180.7c-34.6,0-68.5-10-97.7-28.7V42.4c84-54,195.9-29.6,249.8,54.4
			C268.5,126,278.5,159.9,278.5,194.5z"/>
		<g>
			<ellipse class="st18" cx="195.1" cy="936.6" rx="6.1" ry="7"/>
			<ellipse class="st18" cx="299.1" cy="1021.9" rx="6" ry="7"/>
			<path class="st18" d="M147,1015.5c-0.2,1.7-1.8,2.8-3.5,2.6c-1.7-0.2-2.8-1.8-2.6-3.5c0.2-1.5,1.5-2.6,3.1-2.6
				C145.8,1012.1,147.1,1013.7,147,1015.5z"/>
			<ellipse class="st18" cx="232.4" cy="1047.4" rx="3" ry="3.5"/>
			<path class="st18" d="M244.3,1037c-0.2,1.3-1.4,2.2-2.7,2c-1.3-0.2-2.2-1.4-2-2.7c0.2-1.2,1.2-2,2.4-2.1
				C243.4,1034.4,244.4,1035.6,244.3,1037z"/>
			<path class="st18" d="M157.5,1009.1c-0.1,0.8-0.9,1.4-1.7,1.3c-0.8-0.1-1.4-0.9-1.3-1.7c0.1-0.8,0.8-1.3,1.5-1.3
				C156.9,1007.4,157.6,1008.2,157.5,1009.1z"/>
			<ellipse class="st18" cx="141.7" cy="1035.2" rx="1.5" ry="1.8"/>
			<ellipse class="st18" cx="283.2" cy="1034.1" rx="3.4" ry="3.9"/>
			<ellipse class="st18" cx="218.9" cy="978.8" rx="3.2" ry="3.7"/>
			<path class="st18" d="M212.4,985.1c-0.1,1-1.1,1.7-2.1,1.5c-1-0.1-1.7-1.1-1.5-2.1c0.1-0.9,0.9-1.6,1.8-1.5
				C211.6,983.1,212.4,984,212.4,985.1z"/>
			<path class="st18" d="M235.6,979.2c-1.5-0.9-2-2.9-1.1-4.4c0.9-1.5,2.9-2,4.4-1.1c1.4,0.8,1.9,2.5,1.3,4
				C239.4,979.4,237.3,980.1,235.6,979.2z"/>
			<path class="st18" d="M233.6,967.8c-0.9-0.5-1.1-1.6-0.6-2.5c0.5-0.9,1.6-1.1,2.5-0.6c0.8,0.5,1.1,1.4,0.7,2.3
				C235.7,967.9,234.5,968.3,233.6,967.8C233.6,967.8,233.6,967.8,233.6,967.8z"/>
			<path class="st18" d="M287.6,928.8c-0.2,1.6-1.7,2.8-3.4,2.6c-1.6-0.2-2.8-1.7-2.6-3.4c0.2-1.5,1.5-2.6,3-2.6
				C286.4,925.6,287.7,927.1,287.6,928.8z"/>
			<path class="st18" d="M283.4,939.5c-0.1,0.8-0.9,1.4-1.7,1.2s-1.4-0.9-1.2-1.7c0.1-0.7,0.7-1.3,1.4-1.3
				C282.8,937.9,283.4,938.7,283.4,939.5z"/>
			<path class="st18" d="M240.4,960.5c-0.1,0.8-0.9,1.4-1.7,1.2c-0.8-0.1-1.4-0.9-1.2-1.7c0.1-0.7,0.7-1.3,1.4-1.3
				C239.8,958.9,240.4,959.7,240.4,960.5z"/>
		</g>
	</g>
</g>
</svg>
