<svg xmlns="http://www.w3.org/2000/svg" viewBox="0 0 1419 316.84">
  <title>title</title>
  <g id="title">
    <g>
      <path d="M294.21,40.93a8.31,8.31,0,0,0-5.59,3.37,12.86,12.86,0,0,0-2.53,6.22,47.57,47.57,0,0,0-.63,7.59V111a30.5,30.5,0,0,1-11.07,24q-10.44,9.06-26.46,10.54c-1.41.07-2.73.16-4,.26s-2.68.16-4.37.16q-19.29,0-31.63-7.59-13.71-8.43-13.7-23.82V51.36a22.73,22.73,0,0,0-.32-4.48,7,7,0,0,0-1.69-3,8,8,0,0,0-6.11-3V36.81h51.23v4.12a8.37,8.37,0,0,0-3.65.79,13.4,13.4,0,0,0-3.44,2.47,9.91,9.91,0,0,0-2.51,3.64,13.7,13.7,0,0,0-.73,4.8V115q0,7.59,7.26,12.23a27.86,27.86,0,0,0,15.36,4.11,23.71,23.71,0,0,0,15.4-5.43,16.8,16.8,0,0,0,6.68-13.55V56.84a44.12,44.12,0,0,0-.63-8.32,8.94,8.94,0,0,0-2.74-5.06,9.67,9.67,0,0,0-6.64-2.53V36.81h32.47Z" style="fill: none;stroke: #fc0000;stroke-miterlimit: 10;stroke-width: 2px"/>
      <path d="M420.29,142.34H367.16v-3.79a12.84,12.84,0,0,0,5.16-1.69,3,3,0,0,0,1.27-2.85c0-1.89-.78-4.56-2.32-8q-1.59-3.48-8.75-16.34a91,91,0,0,0-5.33-8.12q-3.21-4.42-6.37-8.75l-5.59,2.64v29.73a27,27,0,0,0,.47,5.53,9,9,0,0,0,1.74,3.74,9.78,9.78,0,0,0,3.27,2.85,26.76,26.76,0,0,0,3.69.95v4.11H304.11v-4.11a7.54,7.54,0,0,0,2.9-.47A12.6,12.6,0,0,0,309.7,136a7.62,7.62,0,0,0,2.74-3.9,21.64,21.64,0,0,0,.64-5.79l.21-69c0-2.17,0-3.86-.11-5.05-.28-3.72-.83-6.28-1.63-7.69a6.92,6.92,0,0,0-2.8-2.89,8.35,8.35,0,0,0-3.79-.79V36.81h73.79q12.35,0,18.82,3.8a14.31,14.31,0,0,1,7.43,11c.14,1.26.21,2.18.21,2.74q0,7.79-6,14.64a46.9,46.9,0,0,1-11.28,9q-5.26,3-6.11,3,5.58,7.07,9.75,13.11t8.7,13.64q2.42,4.11,8.12,18.22,4.22,10.32,6.95,11.48a23.76,23.76,0,0,0,5,1.37Zm-49-82.86a10,10,0,0,0-4.54-8.64,16.8,16.8,0,0,0-9.9-2.75,20.08,20.08,0,0,0-7.7,1.48,4.91,4.91,0,0,0-2.79,2.79,12.15,12.15,0,0,0-.8,4.59V83.41l3.69-1.16a42.5,42.5,0,0,0,14.13-8Q371.27,67.39,371.27,59.48Z" style="fill: none;stroke: #fc0000;stroke-miterlimit: 10;stroke-width: 2px"/>
      <path d="M569.88,100.81,556.38,145a11.43,11.43,0,0,0-3.11-1.83,12.81,12.81,0,0,0-2.63-.66,25.17,25.17,0,0,0-3-.15H473.94v-4.11a8,8,0,0,0,6-2.42,7.32,7.32,0,0,0,1.9-3.48,24.26,24.26,0,0,0,.42-5.05V51.09a16.64,16.64,0,0,1,.11-1.84,11.92,11.92,0,0,0-.26-2.74,5.79,5.79,0,0,0-1.22-2.21,11.08,11.08,0,0,0-2.74-2.53,6.12,6.12,0,0,0-3.27-.84V36.81h49.66v4.12A11.61,11.61,0,0,0,521,42a10.87,10.87,0,0,0-3,2.43,8.26,8.26,0,0,0-2,3.85,27,27,0,0,0-.47,5.58l-.11,66.52a27.42,27.42,0,0,0,.58,6.54,5.15,5.15,0,0,0,3.22,3.37,16.73,16.73,0,0,0,3.79,1.27,20.54,20.54,0,0,0,4.22.42,30.09,30.09,0,0,0,10.38-1.95,50.8,50.8,0,0,0,10.81-5.64,42.61,42.61,0,0,0,10.65-11.07,70,70,0,0,0,7.59-13.92Z" style="fill: none;stroke: #fc0000;stroke-miterlimit: 10;stroke-width: 2px"/>
      <path d="M697,142.34H642.41v-4.1a15.25,15.25,0,0,0,4.11-1.26q4.22-2.53,4.22-8.21a14.88,14.88,0,0,0-.22-2.94q-.74-5-6.22-11a39,39,0,0,0-13.19-9.88,38.57,38.57,0,0,0-8.39-2.27,54.07,54.07,0,0,0-9.13-1l-7.44,21.42a24.22,24.22,0,0,0-1.38,8.33,6.27,6.27,0,0,0,.53,3.06,8.57,8.57,0,0,0,2.85,2.79,10.37,10.37,0,0,0,3.58,1.21v3.9h-35v-4a13,13,0,0,0,3.16-1.32,34.63,34.63,0,0,0,3.16-2.48,21.22,21.22,0,0,0,4.11-4.17A23.38,23.38,0,0,0,589.8,125L619,50c.35-.84.67-1.68,1-2.53a7.37,7.37,0,0,0,.42-2.32,4.23,4.23,0,0,0-.68-2.47,3.72,3.72,0,0,0-1.37-1.32,10.08,10.08,0,0,0-1.42-.53v-4h46.7v4.64a3.58,3.58,0,0,0-3.48,1.79,3.8,3.8,0,0,0-.42,1.69,6.63,6.63,0,0,0,.31,1.89c.07.14.32.85.74,2.11l27.41,82.25,1.16,2a10.65,10.65,0,0,0,2.64,3.11,10,10,0,0,0,2.31,1.26,19,19,0,0,0,2.75.68ZM640.83,95.87,629,58.54,619,88.17c.84,0,1.89,0,3.15.11a28.14,28.14,0,0,1,5.58,1.16,44.09,44.09,0,0,1,8,3.27A42.86,42.86,0,0,1,640.83,95.87Z" style="fill: none;stroke: #fc0000;stroke-miterlimit: 10;stroke-width: 2px"/>
      <path d="M850,70.65l-3.16.95A31.14,31.14,0,0,0,840.6,60a32.93,32.93,0,0,0-10.7-8.7,30.2,30.2,0,0,0-13.34-2.79l.11,71.81v2.1a34.34,34.34,0,0,0,.58,6.64,12,12,0,0,0,2.42,5.26,9.21,9.21,0,0,0,4.06,3.11,16.78,16.78,0,0,0,5.59.79v4.11H771.55v-4a7.85,7.85,0,0,1,1.47-.11,11.3,11.3,0,0,0,7.8-3.47,8.18,8.18,0,0,0,2.64-4.31,39.38,39.38,0,0,0,.42-6.73V48.52A30.31,30.31,0,0,0,773,50.26a37.85,37.85,0,0,0-9.8,6A27,27,0,0,0,758,62.64a33.22,33.22,0,0,0-4.11,8.65l-3.17-.64,7.59-36.58a13.1,13.1,0,0,0,3.48,2.22,8.81,8.81,0,0,0,2.37.42c1,.07,1.6.1,1.74.1h66.31q1.59,0,2.85-.06a15.69,15.69,0,0,0,3.53-.71,17.46,17.46,0,0,0,4.38-2Z" style="fill: none;stroke: #fc0000;stroke-miterlimit: 10;stroke-width: 2px"/>
      <path d="M975.54,142.34H922.4v-3.79a12.88,12.88,0,0,0,5.17-1.69,3,3,0,0,0,1.26-2.85q0-2.83-2.31-8-1.59-3.48-8.75-16.34a93.31,93.31,0,0,0-5.33-8.12q-3.21-4.42-6.38-8.75l-5.58,2.64v29.73a26.28,26.28,0,0,0,.47,5.53,9,9,0,0,0,1.74,3.74,9.59,9.59,0,0,0,3.27,2.85,26.76,26.76,0,0,0,3.69.95v4.11H859.36v-4.11a7.57,7.57,0,0,0,2.9-.47A12.85,12.85,0,0,0,865,136a7.68,7.68,0,0,0,2.74-3.9,21.69,21.69,0,0,0,.63-5.79l.21-69c0-2.17,0-3.86-.1-5.05q-.42-5.58-1.64-7.69A7,7,0,0,0,864,41.72a8.36,8.36,0,0,0-3.8-.79V36.81H934q12.33,0,18.82,3.8a14.31,14.31,0,0,1,7.43,11c.14,1.26.21,2.18.21,2.74q0,7.79-6,14.64a46.9,46.9,0,0,1-11.28,9q-5.26,3-6.11,3,5.58,7.07,9.75,13.11t8.7,13.64q2.41,4.11,8.11,18.22,4.21,10.32,7,11.48a23.76,23.76,0,0,0,5,1.37Zm-49-82.86A10,10,0,0,0,922,50.84a16.81,16.81,0,0,0-9.91-2.75,20,20,0,0,0-7.69,1.48,5,5,0,0,0-2.8,2.79,12.35,12.35,0,0,0-.79,4.59V83.41l3.69-1.16a42.6,42.6,0,0,0,14.13-8Q926.52,67.39,926.52,59.48Z" style="fill: none;stroke: #fc0000;stroke-miterlimit: 10;stroke-width: 2px"/>
      <path d="M1105.52,142.34h-54.61v-4.1A15,15,0,0,0,1055,137q4.21-2.53,4.22-8.21a15.85,15.85,0,0,0-.21-2.94q-.75-5-6.23-11a39,39,0,0,0-13.19-9.88,38.57,38.57,0,0,0-8.39-2.27,54,54,0,0,0-9.13-1l-7.44,21.42a24.22,24.22,0,0,0-1.38,8.33,6.27,6.27,0,0,0,.53,3.06,8.66,8.66,0,0,0,2.85,2.79,10.45,10.45,0,0,0,3.58,1.21v3.9h-35v-4a12.77,12.77,0,0,0,3.16-1.32,34.41,34.41,0,0,0,3.17-2.48,21.8,21.8,0,0,0,4.11-4.17A23.82,23.82,0,0,0,998.3,125l29.21-75c.35-.84.66-1.68,1-2.53a7.37,7.37,0,0,0,.42-2.32,4.23,4.23,0,0,0-.69-2.47,3.65,3.65,0,0,0-1.37-1.32,10.08,10.08,0,0,0-1.42-.53v-4h46.7v4.64a3.58,3.58,0,0,0-3.48,1.79,3.8,3.8,0,0,0-.42,1.69,6.67,6.67,0,0,0,.32,1.89c.06.14.31.85.73,2.11l27.41,82.25,1.16,2a11,11,0,0,0,2.64,3.11,9.8,9.8,0,0,0,2.32,1.26,18.47,18.47,0,0,0,2.74.68Zm-56.19-46.47-11.8-37.33-10.08,29.63c.84,0,1.9,0,3.16.11a28.08,28.08,0,0,1,5.57,1.16,43.81,43.81,0,0,1,8,3.27A42.08,42.08,0,0,1,1049.33,95.87Z" style="fill: none;stroke: #fc0000;stroke-miterlimit: 10;stroke-width: 2px"/>
      <path d="M1224.54,110.71,1212,145.61l-1.37-1.37a8.49,8.49,0,0,0-1.31-.9,3.74,3.74,0,0,0-1.74-.37q-8.23.74-15.61,1.32t-12.75.58c-3.59,0-6.66-.12-9.23-.37a56.2,56.2,0,0,1-7.85-1.32q-23.09-5.9-35.11-20.45t-12-35.95q0-24.45,15.86-38.63T1174,34A67.86,67.86,0,0,1,1184.9,35q13.92,2.32,16.13,2.32a14.45,14.45,0,0,0,4.85-.74,7.37,7.37,0,0,0,1.74-.84c.53-.35,1.49-1.12,2.9-2.32L1219,77.93l-3.16,1.69q0-3.69-4.64-11a54.21,54.21,0,0,0-12.44-13.91q-8.85-6.85-17.92-6.86-15.6,0-24,11.28-7.38,9.91-7.38,25.3a53.11,53.11,0,0,0,7.28,27.1q8.43,14.44,22.66,17.81a47.88,47.88,0,0,0,11.07,1.38,30.29,30.29,0,0,0,18.35-5.7q6.94-5.16,12.44-15.49Z" style="fill: none;stroke: #fc0000;stroke-miterlimit: 10;stroke-width: 2px"/>
    </g>
    <rect id="trait_haut" data-name="trait haut" x="1" y="1" width="1417" height="8.96" rx="4.48" ry="4.48" style="fill: none;stroke: #fc0000;stroke-linecap: round;stroke-linejoin: round;stroke-width: 2px"/>
    <rect id="trait_gauche" data-name="trait gauche" x="2" y="255.96" width="206" height="9" rx="4.48" ry="4.48" style="fill: none;stroke: #fc0000;stroke-linecap: round;stroke-linejoin: round;stroke-width: 2px"/>
    <rect id="trait_droit" data-name="trait droit" x="1208" y="256" width="210" height="8.96" rx="4.48" ry="4.48" style="fill: none;stroke: #fc0000;stroke-linecap: round;stroke-linejoin: round;stroke-width: 2px"/>
    <g>
      <path d="M344.55,256.32q0,25.41-12.77,39.87-14.56,16.5-44,16.49H220.3v-4.4a8.34,8.34,0,0,0,6.32-2.94,11.69,11.69,0,0,0,1.87-3.55,13.3,13.3,0,0,0,1-4.68V215.19a33.76,33.76,0,0,0-.12-3.72,9.49,9.49,0,0,0-1.92-4.52,7.15,7.15,0,0,0-3-2.36,12.1,12.1,0,0,0-4.12-.57v-4.4h61.78q25.19,0,43.49,16Q344.55,232.27,344.55,256.32Zm-36.26,0a52.66,52.66,0,0,0-10.62-32.53q-10.17-13.56-22.25-13.56a14.82,14.82,0,0,0-5.93,1.25,6.44,6.44,0,0,0-3.78,4.34,27,27,0,0,0-.91,7.52v63q0,6.78,1.47,9.32a9.65,9.65,0,0,0,5,4,20.07,20.07,0,0,0,7.57,1.41q12.07,0,20.78-12.6T308.29,256.32Z" style="fill: none;stroke: #fc0000;stroke-miterlimit: 10;stroke-width: 2px"/>
      <path d="M463.71,271.57,449,314.83l-3.84-1.13a22.62,22.62,0,0,0-4.29-.79c-1.58-.15-3.24-.23-5-.23H353.58v-4.29a18.45,18.45,0,0,0,4.35-1.07,9.58,9.58,0,0,0,2.31-2,10.42,10.42,0,0,0,2.32-4.35,26.06,26.06,0,0,0,.51-5.7V213.85a27.19,27.19,0,0,0-.28-4.46,6.43,6.43,0,0,0-1.64-3,6,6,0,0,0-2.71-1.92,14.19,14.19,0,0,0-3.84-.4v-4.4h76.58a62.63,62.63,0,0,0,9.6-.86c1.88-.29,2.9-.43,3.05-.43a19.38,19.38,0,0,0,3.05-1l8.24,38.17-3.72,2.83a35.63,35.63,0,0,0-11.41-19,34.45,34.45,0,0,0-12.09-6.66,44.6,44.6,0,0,0-13.78-2.26q-7.56,0-11.18,2.71a9.71,9.71,0,0,0-3.33,4.41,17.55,17.55,0,0,0-1,6.1V236h15.86a15.21,15.21,0,0,0,4.33-.62,11.45,11.45,0,0,0,4-2.21,10.63,10.63,0,0,0,3.82-8.24v-1.7l3.39-1,7.57,43-4.3.68a23,23,0,0,0-2.26-5.76,21.78,21.78,0,0,0-11.52-10.79,16.43,16.43,0,0,0-6.1-1.52H399v36.82a30,30,0,0,0,.56,6.32,14.83,14.83,0,0,0,2.6,5.43,12.14,12.14,0,0,0,5.76,4.23,24.16,24.16,0,0,0,8.58,1.41,39.69,39.69,0,0,0,10.9-1.58,46.36,46.36,0,0,0,10.23-4.18,52.48,52.48,0,0,0,13.21-11.18q7.13-8,9-15.47Z" style="fill: none;stroke: #fc0000;stroke-miterlimit: 10;stroke-width: 2px"/>
      <path d="M578,276.2a31.66,31.66,0,0,1-10.16,23.6q-8.37,8-22.14,12.43a70.73,70.73,0,0,1-21.57,3.61,143.59,143.59,0,0,1-18.53-1.35q-10.28-1.37-21-2.71a13.67,13.67,0,0,0-2.43.17,6.41,6.41,0,0,0-2.26,1c-.86.57-1.71,1.15-2.54,1.75L473,268l4.06-.45a34.63,34.63,0,0,0,2.83,9.26,39.2,39.2,0,0,0,7.34,12,40.81,40.81,0,0,0,14.18,9.71,41.56,41.56,0,0,0,16,3.39A27.56,27.56,0,0,0,532,298.11a15.44,15.44,0,0,0,7.46-10.5,13.86,13.86,0,0,0,.22-2.83,11.47,11.47,0,0,0-2.43-7.28A13.44,13.44,0,0,0,530.8,273L501,263.21q-10.73-3.49-16.72-10.39a27.06,27.06,0,0,1-6.55-18.3q0-14.81,11.52-25.08,10.27-9.15,27-12.53a44.64,44.64,0,0,1,8.58-.8,67.11,67.11,0,0,1,13.11,1.47q7.22,1.47,14.91,2.94a4.82,4.82,0,0,0,1.24-.11,27.8,27.8,0,0,0,5.19-2c1.36-.82,2.41-1.43,3.17-1.8l3.84,36.71-4.07,1.24a21.48,21.48,0,0,0-2.26-5.2q-4.52-8.46-9.83-12.08a38.43,38.43,0,0,0-9.82-4.75,34.31,34.31,0,0,0-10.62-1.8A19.28,19.28,0,0,0,522,212.1a9.65,9.65,0,0,0-4.86,4.35,18.45,18.45,0,0,0-1.47,3.16,14.46,14.46,0,0,0-.79,4.74,9.6,9.6,0,0,0,2.71,6.67q3.39,3.61,10.51,5.87l27.11,8.7q10.72,3.49,16.77,11.29T578,276.2Z" style="fill: none;stroke: #fc0000;stroke-miterlimit: 10;stroke-width: 2px"/>
      <path d="M761.22,257.11q0,26.2-16,41.9-16.83,16.5-46.31,16.5-28.12,0-45.52-16.89T636,256.21q0-25.65,18.18-42.81,17.73-16.72,43.26-16.72,27.23,0,44.28,13.89Q761.21,226.5,761.22,257.11Zm-37.39-1.92a62.45,62.45,0,0,0-6.66-28.92q-7.68-14.91-19.54-14.91-9.82,0-17,13.61a62.8,62.8,0,0,0-7.17,29.77,67.34,67.34,0,0,0,6.89,30.38q7.78,15.7,19.2,15.7,13.1,0,19.31-15Q723.83,273.83,723.83,255.19Z" style="fill: none;stroke: #fc0000;stroke-miterlimit: 10;stroke-width: 2px"/>
      <path d="M888.18,204a14.15,14.15,0,0,0-3.45,1.75,18.53,18.53,0,0,0-2.94,2.6,20.45,20.45,0,0,0-2.2,2.77,17.08,17.08,0,0,0-1.81,4.06L848.3,296.3a19,19,0,0,0-1.24,6.27,5.76,5.76,0,0,0,1,3.58,5.34,5.34,0,0,0,4.74,2.13v4.4H805.61v-4.4a8.82,8.82,0,0,0,2.71-.79,4.12,4.12,0,0,0,1.81-2,7.12,7.12,0,0,0,.67-3.11,16.49,16.49,0,0,0-.9-5.19L783.81,218c-.61-1.58-1.09-2.82-1.47-3.72a19.14,19.14,0,0,0-3.67-5.87,15.34,15.34,0,0,0-4-2.82A21.25,21.25,0,0,0,770,204v-4.4H827V204a8.58,8.58,0,0,0-7.91,3.5,5.17,5.17,0,0,0-1,2,9.62,9.62,0,0,0-.34,2.48,15.26,15.26,0,0,0,.79,4.52c.53,1.65.83,2.63.91,2.93l19,59.26,22.23-60.84q.92-2.37,1.44-4.23a13.84,13.84,0,0,0,.52-3.67,6.47,6.47,0,0,0-.68-2.93c-1.36-2-3.5-3-6.44-3v-4.4h32.76Z" style="fill: none;stroke: #fc0000;stroke-miterlimit: 10;stroke-width: 2px"/>
      <path d="M1009.26,204l-2.71.45a7.35,7.35,0,0,0-3.73,2.71,12.86,12.86,0,0,0-2.54,6.37,52.29,52.29,0,0,0-.51,6.94v75.15a30.56,30.56,0,0,0,.34,4.24,11.13,11.13,0,0,0,1.41,4.23,7.75,7.75,0,0,0,3.05,2.87,11.19,11.19,0,0,0,4.35,1.3v4.4H974.81v-4.4a9.88,9.88,0,0,0,2.93-.45q5.53-1.8,5.54-9.25a19.43,19.43,0,0,0-2.37-9.36,49.52,49.52,0,0,0-6.09-8.35L923,220l-.11,75.58a25.27,25.27,0,0,0,.39,4.8,14,14,0,0,0,1.34,3.78,6.65,6.65,0,0,0,2.62,2.76,13.07,13.07,0,0,0,4.35,1.41v4.4H898.68v-4.4q2.15-.22,2.94-.39a8.56,8.56,0,0,0,2.14-1q2.37-1.47,3.39-6a47.6,47.6,0,0,0,1-10.32v-72a50.66,50.66,0,0,0-.46-6.89,8.55,8.55,0,0,0-1.58-4.51,10.42,10.42,0,0,0-6.55-3.16v-4.4h64.61V204a3.31,3.31,0,0,0-2,.62,7.83,7.83,0,0,0-1.63,1.7,3.64,3.64,0,0,0-.79,2.2,7.53,7.53,0,0,0,1,3.5,15.19,15.19,0,0,0,1.58,2.37l22.71,28.47V216a23.26,23.26,0,0,0-.35-4.63,9.4,9.4,0,0,0-1.71-3.44,8.16,8.16,0,0,0-3.26-2.71,16,16,0,0,0-4.62-1.19v-4.4h34.11Z" style="fill: none;stroke: #fc0000;stroke-miterlimit: 10;stroke-width: 2px"/>
      <path d="M1073.64,204a16.55,16.55,0,0,0-4.74,1.41,8.06,8.06,0,0,0-2.38,2.31,10.6,10.6,0,0,0-2,4.8,46.84,46.84,0,0,0-.4,6.82V295.3a27.88,27.88,0,0,0,.62,6,8.11,8.11,0,0,0,1.87,4,10.87,10.87,0,0,0,2.93,2.09,8.41,8.41,0,0,0,3.84.85v4.4h-54.78v-4.4a9.4,9.4,0,0,0,7.57-3.73,9,9,0,0,0,2-3.72,20.66,20.66,0,0,0,.5-4.85V219.7a51.18,51.18,0,0,0-.45-7.67,11.27,11.27,0,0,0-2.14-5.08,5.4,5.4,0,0,0-2.6-1.86,25.5,25.5,0,0,0-4.86-1.07v-4.4h55Z" style="fill: none;stroke: #fc0000;stroke-miterlimit: 10;stroke-width: 2px"/>
      <path d="M1188.28,276.2a31.63,31.63,0,0,1-10.16,23.6q-8.37,8-22.14,12.43a70.73,70.73,0,0,1-21.57,3.61,143.59,143.59,0,0,1-18.53-1.35q-10.28-1.37-21-2.71a13.67,13.67,0,0,0-2.43.17,6.41,6.41,0,0,0-2.26,1c-.86.57-1.71,1.15-2.54,1.75l-4.4-46.76,4.06-.45a34.63,34.63,0,0,0,2.83,9.26,39.2,39.2,0,0,0,7.34,12,40.81,40.81,0,0,0,14.18,9.71,41.56,41.56,0,0,0,16,3.39,27.56,27.56,0,0,0,14.68-3.73,15.44,15.44,0,0,0,7.46-10.5,13.86,13.86,0,0,0,.22-2.83,11.47,11.47,0,0,0-2.43-7.28,13.44,13.44,0,0,0-6.49-4.47l-29.82-9.82q-10.73-3.49-16.72-10.39a27.06,27.06,0,0,1-6.55-18.3q0-14.81,11.52-25.08,10.27-9.15,27-12.53a44.64,44.64,0,0,1,8.58-.8,67.11,67.11,0,0,1,13.11,1.47q7.21,1.47,14.91,2.94a4.82,4.82,0,0,0,1.24-.11,27.8,27.8,0,0,0,5.19-2c1.36-.82,2.41-1.43,3.17-1.8l3.84,36.71-4.07,1.24a21.48,21.48,0,0,0-2.26-5.2q-4.51-8.46-9.83-12.08a38.43,38.43,0,0,0-9.82-4.75,34.31,34.31,0,0,0-10.62-1.8,19.28,19.28,0,0,0-7.68,1.41,9.65,9.65,0,0,0-4.86,4.35,18.45,18.45,0,0,0-1.47,3.16,14.46,14.46,0,0,0-.79,4.74,9.6,9.6,0,0,0,2.71,6.67q3.39,3.61,10.51,5.87l27.11,8.7q10.72,3.49,16.77,11.29T1188.28,276.2Z" style="fill: none;stroke: #fc0000;stroke-miterlimit: 10;stroke-width: 2px"/>
    </g>
    <path d="M176.77,166.68q0,23-16.94,39.34-13.94,13.36-36.9,20.71a118.08,118.08,0,0,1-35.95,6,237.65,237.65,0,0,1-30.88-2.26Q39,228.24,21.09,226a23.88,23.88,0,0,0-4.05.28A10.6,10.6,0,0,0,13.28,228q-2.17,1.41-4.24,2.92L1.7,152.93l6.78-.75q.55,5.65,4.7,15.44,5.27,12.62,12.24,19.95A67.72,67.72,0,0,0,49,203.76a69.33,69.33,0,0,0,26.64,5.65q14.31,0,24.47-6.21a25.73,25.73,0,0,0,12.43-17.51A22.89,22.89,0,0,0,113,181a19.13,19.13,0,0,0-4-12.14,22.37,22.37,0,0,0-10.83-7.44L48.39,145Q30.5,139.2,20.52,127.71,9.6,115.1,9.6,97.21q0-24.66,19.21-41.79,17.13-15.26,45-20.9A75.6,75.6,0,0,1,88.11,33.2a110.73,110.73,0,0,1,21.83,2.45q12,2.45,24.85,4.9a7.72,7.72,0,0,0,2.07-.19A46.79,46.79,0,0,0,145.52,37q3.39-2.07,5.27-3l6.41,61.18-6.78,2.07q-.57-2.82-3.77-8.66-7.53-14.11-16.37-20.14A64.51,64.51,0,0,0,113.9,60.5a57.2,57.2,0,0,0-17.7-3,32.14,32.14,0,0,0-12.8,2.35,16.08,16.08,0,0,0-8.09,7.25,31.39,31.39,0,0,0-2.45,5.27,23.75,23.75,0,0,0-1.32,7.91,15.93,15.93,0,0,0,4.52,11.1q5.64,6,17.51,9.79l45.18,14.5q17.88,5.84,27.95,18.82T176.77,166.68Z" style="fill: none;stroke: #fc0000;stroke-miterlimit: 10;stroke-width: 2px"/>
    <path d="M1416.9,155.53l-24.47,72.1-6.4-1.88a38,38,0,0,0-7.15-1.32q-4-.37-8.29-.37H1233.36V216.9c3.76-.63,6.18-1.22,7.25-1.79a15.93,15.93,0,0,0,3.85-3.29,17.32,17.32,0,0,0,3.86-7.25,43.22,43.22,0,0,0,.85-9.51V59.33a44.21,44.21,0,0,0-.47-7.43,10.66,10.66,0,0,0-2.73-5.09,10.2,10.2,0,0,0-4.52-3.2,24.46,24.46,0,0,0-6.4-.65V35.61h127.64a102.9,102.9,0,0,0,16-1.43c3.13-.48,4.83-.72,5.08-.72a29.43,29.43,0,0,0,5.08-1.61l13.75,63.63-6.22,4.7a59.2,59.2,0,0,0-19-31.62,57.05,57.05,0,0,0-20.14-11.11,74.54,74.54,0,0,0-23-3.76q-12.62,0-18.64,4.51a16.25,16.25,0,0,0-5.55,7.35,29.17,29.17,0,0,0-1.6,10.16V96.23h26.44a25.16,25.16,0,0,0,7.22-1,18.9,18.9,0,0,0,6.65-3.68,17.68,17.68,0,0,0,6.38-13.74V75l5.65-1.7L1373.42,145l-7.16,1.13a38.73,38.73,0,0,0-3.76-9.6,36.3,36.3,0,0,0-19.2-18,27.14,27.14,0,0,0-10.17-2.54H1309v61.37a50.32,50.32,0,0,0,.94,10.54,24.57,24.57,0,0,0,4.33,9,20.39,20.39,0,0,0,9.6,7.06,40.19,40.19,0,0,0,14.3,2.35,66.5,66.5,0,0,0,18.17-2.64,77.79,77.79,0,0,0,17-7,87.67,87.67,0,0,0,22-18.64q11.86-13.37,15.06-25.79Z" style="fill: none;stroke: #fc0000;stroke-miterlimit: 10;stroke-width: 2px"/>
  </g>
</svg>
